<?xml version="1.0" standalone="no"?>
<!DOCTYPE svg PUBLIC "-//W3C//DTD SVG 1.1//EN" "http://www.w3.org/Graphics/SVG/1.1/DTD/svg11.dtd" >
<svg xmlns="http://www.w3.org/2000/svg" xmlns:xlink="http://www.w3.org/1999/xlink" version="1.1">
<metadata>
Created by FontForge 20170731 at Thu Jul 25 20:05:09 2019
 By Aleksey,,,
Copyright (c) 2019 by Fontastica. All rights reserved.
</metadata>
<defs>
<font id="Spot-Outline" horiz-adv-x="440" >
  <font-face 
    font-family="Spot Outline"
    font-weight="400"
    font-stretch="normal"
    units-per-em="1000"
    panose-1="0 0 5 0 0 0 0 0 0 0"
    ascent="800"
    descent="-200"
    x-height="754"
    cap-height="754"
    bbox="-101 -259 904 853"
    underline-thickness="50"
    underline-position="-200"
    unicode-range="U+000D-2212"
  />
<missing-glyph horiz-adv-x="188" 
 />
    <glyph glyph-name=".notdef" horiz-adv-x="188" 
 />
    <glyph glyph-name=".null" horiz-adv-x="0" 
 />
    <glyph glyph-name="nonmarkingreturn" horiz-adv-x="333" 
 />
    <glyph glyph-name="CR" unicode="&#xd;" horiz-adv-x="0" 
 />
    <glyph glyph-name="space" unicode=" " horiz-adv-x="172" 
 />
    <glyph glyph-name="exclam" unicode="!" horiz-adv-x="232" 
d="M51 754q-24 0 -36 -21t-12 -40l10 -384q0 -19 11.5 -38.5t35.5 -19.5h112q24 0 35.5 19.5t11.5 38.5l10 384q0 19 -12 40t-36 21h-130zM30 309l-10 384q0 18 9 31t22 13h130q13 0 22 -13t9 -31l-10 -384q0 -17 -8.5 -29t-21.5 -12h-112q-13 0 -21.5 12t-8.5 29zM8 176
v-134q0 -19 11.5 -39t35.5 -20h122q24 0 35.5 20t11.5 39v134q0 19 -11.5 39t-35.5 20h-122q-24 0 -35.5 -20t-11.5 -39zM25 42v134q0 17 8.5 29.5t21.5 12.5h122q13 0 21.5 -12.5t8.5 -29.5v-134q0 -17 -8.5 -29.5t-21.5 -12.5h-122q-13 0 -21.5 12.5t-8.5 29.5z" />
    <glyph glyph-name="quotedbl" unicode="&#x22;" horiz-adv-x="435" 
d="M30 754q-17 0 -25.5 -13t-8.5 -26v-5l21 -229q4 -36 34 -36h111q17 0 26 15q5 6 7 21l21 229v5q0 13 -8.5 26t-25.5 13h-152zM252 754q-18 0 -26 -14t-8 -27v-3l22 -229q1 -12 9 -24t25 -12h110q30 0 34 36l21 229v3q0 13 -8 27t-26 14h-153zM34 483l-21 228q-1 10 4 18
t13 8h152q8 0 13 -8t4 -18l-21 -228q0 -9 -5 -15t-11 -6h-111q-15 0 -17 21zM257 483l-22 228q-1 10 4 18t13 8h153q8 0 13 -8t4 -18l-21 -228q-2 -21 -17 -21h-110q-15 0 -17 21z" />
    <glyph glyph-name="numbersign" unicode="#" 
d="M29 104q1 -1 1 -6q0 -1 -1.5 -20.5t-1.5 -33.5q2 -26 7 -37q10 -24 33 -24h99q29 0 36 33q2 12 2 23v23q0 30 2 39l4 6q7 0 9 -2.5t2 -9.5l-1 -65q0 -15 8.5 -31t29.5 -16h99q20 0 29 16t9 30l1 67q0 6 2 8q0 1 2 2q1 0 3 0.5t4 0.5q35 10 36 46q2 92 2 139q0 22 -12 33
q-7 5 -12 7l-10 3q-1 1 -3.5 2t-3.5 1l-1 2q0 1 -0.5 3.5t-0.5 5.5q0 28 5 40l2 2q6 0 9 1q6 0 14 6q15 11 15 37l4 135q1 39 -34 48q-1 1 -3.5 1.5t-3.5 0.5l-2 2q-1 0 -1 6q0 13 0.5 39t0.5 39q0 17 -6 28q-12 20 -32 20h-99q-28 0 -37 -35q-2 -14 -2 -24v-26
q0 -32 -2 -42q-1 -5 -4 -8q-7 0 -9 2.5t-2 9.5q2 52 2 78q0 15 -9.5 30t-28.5 15h-98q-20 0 -29.5 -15.5t-9.5 -30.5l-1 -78q0 -6 -2 -8q0 -1 -2 -1l-6 -3q-33 -10 -34 -44l-4 -135q-1 -37 32 -47l7 -3l2 -1v-1l1 -1q0 -1 0.5 -4t0.5 -5q0 -27 -5 -40l-2 -2q-2 0 -4.5 -0.5
t-3.5 -0.5q-10 -2 -15 -6q-14 -11 -14 -37l-4 -135q-1 -36 32 -48q1 0 3 -1t3 -1zM46 30l1 65q1 12 -5.5 20.5t-15.5 8.5t-15 9.5t-6 21.5l4 135q2 29 21 29h1q20 0 22 29v29q1 13 -5.5 21.5t-15.5 8.5t-15.5 9t-6.5 22l4 135q2 29 22 29t22 28l1 78q2 29 22 29h98
q9 0 15.5 -9t5.5 -22l-2 -75q0 -12 6 -20.5t15 -8.5h7q20 0 22 28l2 78q0 13 6 21t15 8h99q9 0 15.5 -9t5.5 -22l-1 -75q-1 -12 5 -20.5t15 -8.5h3q9 0 15 -9.5t6 -21.5l-4 -135q0 -13 -6 -21t-15 -8h-3q-19 0 -21 -29v-29q-1 -13 5.5 -21.5t15.5 -8.5h1q9 0 15.5 -8.5
t5.5 -21.5l-2 -136q0 -11 -6.5 -20t-14.5 -9h-4q-20 0 -22 -28l-1 -67q0 -12 -6.5 -20.5t-14.5 -8.5h-99q-9 0 -15.5 8.5t-5.5 21.5l1 65q0 12 -6 20.5t-15 8.5h-7q-20 0 -22 -28l-1 -67q-2 -29 -21 -29h-99q-9 0 -15 8.5t-6 21.5zM194 378v-29q-1 -13 5 -21.5t15 -8.5h8
q19 0 21 29v29q1 13 -5.5 21.5t-15.5 8.5h-7q-8 0 -14.5 -8.5t-6.5 -20.5zM211 346v32q0 5 3 10l1 2l9 -2q2 -4 2 -8v-32q0 -6 -3 -10l-1 -2l-9 1q-2 4 -2 9z" />
    <glyph glyph-name="dollar" unicode="$" 
d="M434 551l3 129q0 41 -33 50q-23 7 -67 13q-42 4 -64 8q-5 0 -6 6q-2 6 -2 11q-1 5 -1 15q-1 6 -1 18q-2 12 -5 18q-9 24 -36 24q-26 0 -36 -24q-3 -9 -3 -18l-2 -17v-15q-1 -5 -3 -11t-7 -6q-27 -4 -37 -7q-19 -3 -38 -12q-35 -16 -58 -45t-33 -67t-13 -68t-3 -69
q0 -118 44 -174.5t157 -81.5q22 -3 35 -6q9 -3 12 -6q0 -4 -3 -5q-8 -3 -20 -3q-38 0 -114 10l-15 3t-13 3q-20 4 -32 4q-21 0 -31 -16.5t-11 -32.5l-5 -124q-2 -39 31 -52q36 -13 74 -19q7 -1 73 -12q4 0 7 -5q1 -2 1.5 -5t0.5 -5q1 -2 1.5 -7t0.5 -7q0 -10 1 -15
q2 -12 5 -17q8 -22 34 -22q25 0 35 22q3 5 5 17q1 5 1 15q0 2 0.5 7t1.5 7q0 4 2 10q3 5 6 5l30 6q15 3 32 9q120 50 120 247q0 43 -2.5 71.5t-18.5 67t-47 61.5q-28 21 -106 47q-19 7 -48 15q-20 7 -24 11q-3 2 -3 5q2 2 12 2h37q23 0 95 -7l19 -4q16 -2 23 -2
q22 0 32 16.5t10 33.5zM420 680l-3 -129q0 -14 -7 -23.5t-18 -9.5q-90 13 -137 13q-50 0 -58 -3q-8 -4 -8 -15q0 -13 9 -19q14 -8 53 -20q90 -27 126 -54q36 -26 48.5 -71t12.5 -115q0 -118 -41.5 -177t-126.5 -68q-10 -1 -16.5 -11t-6.5 -23v-14q0 -14 -7.5 -24.5
t-17.5 -10.5t-17 10.5t-7 24.5v14q0 13 -7 23t-17 11q-82 8 -140 29l-4 1q-20 7 -20 35l5 124q1 14 8 23.5t17 9.5q109 -20 174 -20q22 0 32 7q8 5 8 18q0 12 -9 16q-12 6 -51 13q-49 12 -79 24.5t-57.5 38t-39.5 68.5t-12 108q0 126 39 184t129 67q10 1 17 10.5t7 23.5v23
q0 14 7 24t17 10t17.5 -10t7.5 -24v-24q0 -13 7 -23t16 -11q66 -7 125 -19l4 -1q9 -2 15.5 -12t5.5 -22z" />
    <glyph glyph-name="percent" unicode="%" horiz-adv-x="533" 
d="M296 340l61 398v7q0 13 -8 27.5t-26 14.5q-28 0 -35 -34l-27 -181q0 14 -2 38q-4 43 -13 68q-29 77 -116 77t-116 -76q-17 -42 -17 -137t16 -137q30 -77 116 -77q70 0 103 51l-63 -414v-6q0 -35 30 -42h5q27 3 33 33l35 231q0 -88 16 -131q30 -77 116 -77t116 77
q16 42 16 137q0 45 -2 68q-4 44 -13 68q-28 77 -115 77q-77 0 -110 -60zM202 -66q-3 0 -4 1q-15 6 -12 28l119 787q4 18 18 20q4 0 6 -1q14 -9 11 -29l-120 -787q-2 -17 -18 -19zM14 542q0 101 23.5 148.5t92.5 47.5t91.5 -47t22.5 -149q0 -101 -23 -149t-92 -48t-92 48
t-23 149zM141 611q-3 11 -12 11q-10 0 -12 -13q-3 -11 -3 -58q0 -42 2 -64q2 -16 4 -19q2 -5 10 -5t11 12q2 16 2 68t-2 68zM289 187q0 101 23.5 148.5t93.5 47.5q68 0 90.5 -47t22.5 -149q0 -101 -23 -149t-92 -48t-92 48t-23 149zM416 255q-3 11 -12 11t-12 -12
q-2 -8 -2 -58q0 -53 1 -64q1 -15 4 -20q3 -4 11 -4q7 0 10 12q2 8 2 68t-2 67z" />
    <glyph glyph-name="ampersand" unicode="&#x26;" horiz-adv-x="562" 
d="M392 355l-4 4q-2 1 -5 7q-2 2 -2 3l19 9q7 3 21 11q39 26 51.5 63.5t12.5 88.5q0 115 -50.5 171t-164.5 56q-217 0 -217 -218q0 -26 4 -64q3 -21 12 -61v-4q-49 -40 -65 -89.5t-16 -122.5q0 -130 55.5 -185t184.5 -55q106 0 181 49q7 5 14 5q1 0 3 -1l6 -3q1 -1 2 -1.5
t2 -0.5q9 -4 29 -16l29 -17q10 -4 13 -6q12 -3 14 -3q13 0 20 10q3 3 5 11q3 13 18 61q3 12 10 36l3 14q1 5 1 11q0 13 -8 23q-2 2 -6 8t-7 9q-15 24 -15 48q0 16 14 64q4 12 10 36q5 20 5 39q0 9 -8 19t-19 11l-121 6q-13 1 -23 -11q-1 -1 -4 -7l-3 -6zM270 751
q96 0 147 -45t51 -165q0 -71 -21.5 -103t-73.5 -54q-7 -2 -8.5 -11.5t3.5 -16.5l13 -14q6 -6 12 -6q11 0 17 16q2 12 10 12h2l121 -6q5 -2 8.5 -7.5t2.5 -12.5q-12 -55 -24 -100q-17 -56 16 -94l11 -13q6 -6 4 -18l-31 -112q0 -4 -4 -8q-5 -3 -12 1l-74 40q-12 6 -18 6
q-10 0 -22 -8q-67 -46 -172 -46q-121 0 -172 49.5t-51 173.5q0 147 75 199q10 5 6 21q-16 44 -16 121q0 201 200 201zM243 548q0 -45 24 -45q25 0 25 45q0 49 -24 49q-25 0 -25 -49zM263 525q-3 11 -3 23q0 18 3 26l2 4l1 2h3l3 -6q3 -8 3 -26q0 -13 -3 -22q-3 -4 -3 -6h-3
q-2 2 -3 5zM246 185q9 0 11.5 10.5t-3.5 16.5l-49 58q-4 4 -7 4q-12 0 -12 -15q0 -74 60 -74zM202 248q2 -3 7.5 -8.5t7.5 -8.5q14 -16 19 -23l3 -6q-34 3 -37 46z" />
    <glyph glyph-name="quotesingle" unicode="'" horiz-adv-x="213" 
d="M30 754q-17 0 -25.5 -13t-8.5 -26v-5l21 -229q4 -36 34 -36h111q17 0 26 15q5 6 7 21l21 229v5q0 13 -8.5 26t-25.5 13h-152zM34 483l-21 228q-1 10 4 18t13 8h152q8 0 13 -8t4 -18l-21 -228q0 -9 -5 -15t-11 -6h-111q-15 0 -17 21z" />
    <glyph glyph-name="parenleft" unicode="(" horiz-adv-x="261" 
d="M255 -69q-44 172 -44 401q0 102 17 235q11 91 27 178q1 6 5 20q3 21 3 25q0 17 -10.5 34.5t-32.5 17.5h-112q-14 0 -26 -12q-10 -12 -14 -22q-3 -6 -5 -13l-4 -14t-3 -10q-27 -80 -43.5 -201.5t-16.5 -214.5q0 -314 73 -481q16 -29 38 -29h112q22 0 32.5 18t10.5 35
q0 12 -3 19q-2 10 -4 14zM238 748q-10 -47 -27 -179q-17 -134 -17 -237q0 -217 45 -405l5 -18q4 -17 -4 -32t-21 -15h-112q-16 0 -22 19q-72 190 -72 474q0 91 17 211t42 200l13 38q8 21 23 21h112q13 0 21 -14t4 -31q-4 -12 -7 -32z" />
    <glyph glyph-name="parenright" unicode=")" horiz-adv-x="261" 
d="M6 762q43 -168 43 -400q0 -111 -16 -236q-19 -143 -27 -177q-1 -7 -5 -21q-3 -24 -3 -25q0 -17 10.5 -34.5t32.5 -17.5h112q14 0 26 12q4 5 14 22q3 8 7.5 22t4.5 15q27 80 43.5 202t16.5 215q0 313 -73 480q-16 29 -38 29h-112q-22 0 -32.5 -18t-10.5 -35q0 -11 3 -19
q2 -10 4 -14zM16 -87l7 32q6 29 27 179q16 127 16 238q0 219 -44 404l-5 18q-4 17 4 32t21 15h112q16 0 22 -19q72 -190 72 -473q0 -91 -17 -211t-42 -201l-13 -38q-8 -21 -23 -21h-112q-13 0 -21 14t-4 31z" />
    <glyph glyph-name="asterisk" unicode="*" horiz-adv-x="332" 
d="M262 504l2 2h4q1 0 3 -1t3 -1t3.5 -0.5t4.5 -0.5q3 -1 9 -1q20 0 31 19q7 13 7 28v85q0 16 -10 30.5t-30 14.5q-3 0 -9.5 -0.5t-8.5 -0.5q-9 0 -11 1q-1 3 -1 11q0 5 1 9q3 9 4 11q0 3 2 7.5t2 6.5q3 8 3 18q0 31 -25 43q-2 1 -33 15l-20 9q-6 2 -9 2q-6 2 -10 2
q-22 0 -32 -22q-3 -5 -5 -16l-3 -15q0 -2 -1 -6.5t-2 -6.5q-1 -6 -3 -9v-2q-1 0 -2 1l-4 4l-5 6q-1 1 -2.5 3.5t-2.5 3.5l-7 7q-13 10 -23 10q-21 0 -33 -22q-2 -4 -10.5 -18t-12.5 -23q-18 -32 -18 -52t10 -31q3 -6 9 -10q5 -5 8 -7q14 -10 14 -19t-14 -20q-6 -4 -8 -7
q-5 -3 -9 -9q-10 -13 -10 -31q0 -20 19 -52q4 -7 8 -15t8.5 -15.5t6.5 -10.5q12 -21 32 -21q14 0 24 10l8 8q1 1 2.5 3.5t2.5 3.5l5 6q1 2 3 4l2 1l2 -2q2 -4 2 -9l3 -13q2 -9 3 -15q1 -7 5 -16q10 -22 32 -22q4 0 10 2q3 0 9 3l19 8q7 3 33 16q25 11 25 43q0 9 -3 18
q-1 3 -2 7.5t-2 6.5q-2 4 -4 12t-2 10q0 5 3 11zM290 519l-25 4q-11 1 -18 -12.5t-3 -28.5l9 -32q4 -11 0 -23t-13 -16l-57 -26q-2 -1 -7 -1q-7 0 -13 6t-7 16l-6 33q-6 22 -21 22q-8 0 -14 -7l-19 -22q-6 -7 -14 -7q-10 0 -17 12l-35 68q-14 23 5 42l20 17q11 8 11 24.5
t-11 25.5l-21 17q-18 18 -5 42l35 68q6 13 18 13q6 0 13 -7l18 -21q9 -7 14 -7q17 0 20 22l7 33q3 22 20 22q4 0 7 -1l58 -26q9 -5 13 -16t0 -23l-9 -30q-4 -14 2.5 -27t17.5 -13h2l24 2q9 0 16 -8t7 -20v-85q0 -13 -6.5 -22t-15.5 -8z" />
    <glyph glyph-name="plus" unicode="+" 
d="M18 351v-143q0 -35 30 -44q11 -3 23 -3q3 1 10.5 1t11.5 1q7 1 20 1q7 1 13 -1q3 0 3 -2q2 0 2 -8v-100q0 -14 8.5 -29.5t28.5 -15.5h104q20 0 28.5 15.5t8.5 29.5v100q0 8 2 8q0 2 3 2q6 2 13 1q13 0 20 -1q3 -1 11 -1t11 -1q13 0 23 3q30 9 30 44v143q0 35 -30 43
q-13 3 -23 2q-15 0 -22 -1q-3 0 -9.5 -0.5t-9.5 -1.5q-9 0 -13 2q-4 1 -4 2q-2 2 -2 9v98q0 14 -9 29t-28 15h-104q-19 0 -28 -15t-9 -29v-98q0 -7 -2 -9q0 -1 -4 -2q-4 -2 -13 -2q-3 1 -9.5 1.5t-9.5 0.5q-7 1 -22 1q-10 1 -23 -2q-30 -8 -30 -43zM35 208v143q0 11 6 19
t14 8h73q8 0 14 8.5t6 19.5v98q0 11 6 19t14 8h104q8 0 14 -8t6 -19v-98q0 -11 6 -19.5t14 -8.5h73q8 0 14 -8t6 -19v-143q0 -11 -6 -19.5t-14 -8.5h-73q-8 0 -14 -8t-6 -19v-100q0 -12 -6 -20t-14 -8h-104q-8 0 -14 8t-6 20v100q0 11 -6 19t-14 8h-73q-8 0 -14 8.5t-6 19.5
z" />
    <glyph glyph-name="comma" unicode="," horiz-adv-x="231" 
d="M9 190l-16 -276q-1 -14 8 -29t28 -15h114q14 0 23 10t12 22l53 277l1 10q0 14 -9 27t-26 13h-154q-19 0 -27 -16q-7 -11 -7 -23zM10 -87l16 276q0 10 5 16.5t12 6.5h154q9 0 14.5 -9.5t2.5 -20.5l-53 -277q-5 -18 -18 -18h-114q-8 0 -13.5 7.5t-5.5 18.5z" />
    <glyph glyph-name="hyphen" unicode="-" horiz-adv-x="285" 
d="M6 351v-149q0 -14 8.5 -28t27.5 -14h201q19 0 27.5 14t8.5 28v149q0 14 -8.5 28t-27.5 14h-201q-19 0 -27.5 -14t-8.5 -28zM23 202v149q0 11 5.5 18t13.5 7h201q8 0 13.5 -7t5.5 -18v-149q0 -11 -5.5 -18t-13.5 -7h-201q-8 0 -13.5 7t-5.5 18z" />
    <glyph glyph-name="period" unicode="." horiz-adv-x="226" 
d="M5 194v-169q0 -13 8 -27.5t27 -14.5h146q19 0 27 14.5t8 27.5v169q0 13 -8 27.5t-27 14.5h-146q-19 0 -27 -14.5t-8 -27.5zM22 25v169q0 10 5 17.5t13 7.5h146q8 0 13 -7.5t5 -17.5v-169q0 -10 -5 -17.5t-13 -7.5h-146q-8 0 -13 7.5t-5 17.5z" />
    <glyph glyph-name="slash" unicode="/" 
d="M413 765q-118 35 -143 41h-6q-23 -4 -30 -27q-52 -172 -123 -413q-109 -367 -109 -382q0 -33 25 -39q55 -16 75 -21q8 -2 23.5 -6.5t22.5 -6.5q3 -1 15 -4q6 -2 11 -2q26 0 33 26q26 83 123 413q109 367 109 382q0 32 -26 39zM20 -8l230 782q4 13 16 15l4 -1l138 -39
q8 -2 12 -11.5t1 -19.5l-230 -782q-4 -14 -17 -14l-4 1l-138 38q-19 8 -12 31z" />
    <glyph glyph-name="zero" unicode="0" 
d="M221 756q-46 0 -83 -15t-60.5 -37t-40.5 -58t-25 -66.5t-12.5 -76t-5.5 -72.5t-1 -68q0 -42 0.5 -68t5 -72t12.5 -76.5t25 -67t40 -58.5t60 -37t83 -15q146 0 198 143q28 82 28 252q0 209 -48 296q-52 96 -176 96zM10 363q0 199 48 288q46 88 163 88t161 -87
q46 -86 46 -288q0 -71 -4 -122.5t-17.5 -102.5t-36 -82.5t-60.5 -51t-91 -19.5q-52 0 -90 19.5t-61 51t-36 82t-17.5 102.5t-4.5 122zM219 532q-7 0 -11.5 -4t-5.5 -8.5t-4 -16.5q-6 -33 -6 -140t6 -139q5 -31 21 -31q17 0 23 31q4 28 4 114v114q-1 29 -5 51q-5 29 -22 29z
M220 213l-3 8q-5 17 -7 51q-1 13 -1 91v70q0 42 6 67q0 3 2 9q0 2 1 4v2q1 0 2 -2q3 -4 6 -17q3 -17 3 -44v-114q0 -2 0.5 -16.5t0.5 -31t-1 -31.5q-3 -29 -7 -41q-2 -4 -2 -5z" />
    <glyph glyph-name="one" unicode="1" 
d="M391 65v595q0 27 -16.5 54.5t-48.5 27.5h-92q-19 0 -35 -13l-142 -113q-30 -23 -30 -70q0 -18 8 -48q12 -36 14 -43q6 -22 21 -38.5t40 -16.5q6 0 14 2q4 2 10 4q1 0 3.5 1.5t3.5 1.5q2 1 4 1q11 0 20.5 -15t9.5 -34v-296q0 -27 16.5 -54.5t47.5 -27.5h87q32 0 48.5 27.5
t16.5 54.5zM374 660v-595q0 -26 -14.5 -45.5t-33.5 -19.5h-87q-19 0 -33 19.5t-14 45.5v296q0 27 -14 46.5t-33 19.5q-8 0 -18 -5t-17 -5q-15 0 -27.5 11.5t-17.5 31.5l-18 64q-6 22 0 44.5t21 34.5l142 113q10 9 24 9h92q19 0 33.5 -19.5t14.5 -45.5z" />
    <glyph glyph-name="two" unicode="2" 
d="M55 -17h325q20 0 29 16t9 30v140q0 35 -31 45q-13 3 -24 2q-15 0 -23 -1q-14 -2 -21 -2q-8 0 -14 2q-2 0 -3 1l-2 1v1q-1 2 -1.5 4t-0.5 5q0 7 4 11q34 34 43 45q45 53 60.5 109.5t15.5 135.5q0 103 -54.5 166.5t-156.5 63.5q-93 0 -166 -36q-26 -12 -24 -44l5 -123
q1 -21 13.5 -37.5t36.5 -16.5q10 0 42 5.5t49 5.5q26 0 32 -4t6 -23q0 -49 -90 -163q-62 -78 -64 -81q-11 -14 -23 -33q-10 -20 -10 -31v-148q0 -14 9 -30t29 -16zM380 0h-325q-8 0 -14.5 8.5t-6.5 20.5v148q0 12 7 21l63 84q22 27 43 57l34 46q30 42 38 77q2 16 2 23
q0 29 -12 36q-11 8 -43 8q-40 0 -91 -11q-14 0 -23 9.5t-10 28.5l-5 123q0 23 14 28q75 34 159 34q83 0 138.5 -52t55.5 -161q0 -102 -25 -159.5t-89 -118.5q-12 -12 -7.5 -32t19.5 -20h78q8 0 14.5 -8.5t6.5 -20.5v-140q0 -12 -6.5 -20.5t-14.5 -8.5z" />
    <glyph glyph-name="three" unicode="3" 
d="M421 530q0 124 -58.5 175t-182.5 51q-61 0 -128 -24q-36 -14 -36 -61l2 -126q0 -13 9 -27.5t27 -14.5t56 4.5t57 4.5q20 0 29 -4t9 -13q0 -13 -10 -14q-5 -2 -20 -2q-4 0 -12.5 0.5t-13.5 0.5q-39 2 -58 -5q-34 -14 -34 -57v-107q0 -44 35 -58q10 -3 30 -5q20 0 31 1
q9 1 27 1q10 0 20 -2q12 -3 12 -20q0 -12 -10 -13q-4 -2 -17 -2h-21q-16 0 -50 4t-50 4q-25 0 -36.5 -19.5t-12.5 -40.5l-3 -109q-1 -18 8 -36.5t29 -24.5q69 -22 149 -22q127 0 178.5 64.5t51.5 194.5q0 58 -14 94q-2 4 -18 34q-7 14 -7 26t4 17q28 50 28 131zM180 739
q118 0 171 -46q53 -47 53 -163q0 -87 -26 -122q-17 -29 3 -59q12 -18 17 -33q13 -30 13 -88q0 -139 -53 -190.5t-160 -51.5q-71 0 -144 21q-25 7 -25 45l3 109q0 18 9.5 30.5t22.5 12.5q61 -8 100 -8q37 0 52 5q13 7 13 27t-9 28q-8 8 -34 11h-80q-13 0 -22.5 13t-9.5 31
v107q0 18 9.5 31t22.5 13h73q43 0 43 33q0 34 -55 34q-41 0 -113 -9q-17 0 -19 25l-2 126q-1 16 6.5 28.5t18.5 16.5q70 23 122 23z" />
    <glyph glyph-name="four" unicode="4" 
d="M212 71l1 -1q0 -1 0.5 -4.5t0.5 -6.5v-15v-17q0 -9 3 -18q7 -26 32 -26h146q18 0 26.5 14t8.5 27v50q13 5 17 18q3 8 3 16v14v139q0 15 -6 28q-4 11 -14 18v95q0 13 -8 27t-26 14q-20 0 -42.5 -1t-50 -2.5t-42.5 -2.5q-11 0 -20 -9q2 7 7.5 30t8.5 36q9 38 19.5 81.5
t19 75.5t9.5 38q0 1 0.5 5.5t0.5 6.5q0 13 -8.5 27t-26.5 14h-170q-15 0 -24 -10.5t-11 -22.5l-69 -440q-2 -16 -2 -78q2 -62 2 -79q0 -13 8.5 -27t26.5 -14h180zM231 24v40q0 10 -5 17t-12 7h-182q-7 0 -12.5 7t-5.5 17v150v4l69 440q3 19 18 19h170q10 0 15 -10.5t2 -21.5
l-87 -366q-3 -12 2 -22t14 -10q15 0 17 20l12 84q2 19 16 21l132 6q8 1 13.5 -6t5.5 -18v-107q8 0 14 -10t6 -24v-139q0 -34 -10 -34h-10v-64q0 -10 -5.5 -17t-12.5 -7h-146q-7 0 -12.5 7t-5.5 17z" />
    <glyph glyph-name="five" unicode="5" 
d="M282 488h90q25 0 37.5 21t12.5 41v130q0 20 -12.5 41t-37.5 21h-302q-25 0 -37 -20t-12 -40l-10 -410q0 -28 24 -37h1q1 0 2.5 -0.5t4 -0.5h5.5q4 -1 18 -1q7 -1 26 -1.5t28 -0.5l90 -2q21 0 21 -12q0 -14 -24 -14q-47 0 -101 8q-7 1 -23 5q-24 3 -27 3q-23 0 -35.5 -19
t-13.5 -37q0 -8 -3.5 -44.5t-3.5 -55.5q0 -46 36 -59q93 -35 189 -35q217 0 217 270q0 51 -6 89.5t-22.5 74.5t-49.5 57.5t-82 27.5zM405 680v-130q0 -19 -9.5 -32t-23.5 -13h-180q-13 0 -15 -18q-1 -10 3.5 -16.5t10.5 -6.5q26 9 55 9q94 0 136.5 -53t42.5 -181
q0 -253 -200 -253q-88 0 -177 32l-6 2q-28 9 -25 48l7 94q1 17 10.5 28.5t21.5 11.5q90 -16 151 -16q41 0 41 31q0 29 -38 29l-169 5q-15 2 -13 21l10 410q0 18 9.5 30.5t22.5 12.5h302q14 0 23.5 -13t9.5 -32zM195 482v6h30l-14 -3q-10 -2 -14 -3h-2z" />
    <glyph glyph-name="six" unicode="6" 
d="M205 492q9 29 40 29q43 0 93 -8l15 -3q14 -2 20 -2q23 0 35.5 19t13.5 37l7 97q2 20 -8.5 39.5t-35.5 27.5l5 -1q-102 29 -164 29q-230 0 -230 -401q0 -386 231 -386q60 0 104 22t68 61t35 84.5t11 100.5q0 53 -7.5 95t-27 82.5t-60.5 63t-100 22.5q-19 0 -45 -8z
M245 538q-30 0 -44.5 -17.5t-16.5 -57.5l8 5q30 15 58 15q92 0 135 -60t43 -186q0 -127 -53.5 -189t-147.5 -62q-61 0 -104 28t-66.5 80.5t-33.5 115.5t-10 145q0 304 135 367q37 17 78 17q67 0 159 -28h1q12 -5 19.5 -18.5t6.5 -30.5l-7 -97q-1 -17 -10.5 -28.5
t-21.5 -11.5q-74 13 -128 13zM229 288q-11 0 -17 -1q-14 -3 -21.5 -17.5t-5.5 -32.5q3 -29 12 -42t30 -13q38 0 38 53t-36 53zM202 244q0 15 6 21t21 6q11 0 14 -8q5 -8 5 -28q0 -36 -21 -36q-14 0 -19 11q-6 11 -6 34z" />
    <glyph glyph-name="seven" unicode="7" 
d="M197 477q0 -5 -2 -13l-115 -373q-4 -14 -4 -22q0 -17 9 -36t28 -24q1 0 24 -7t40 -11l38 -11q3 0 7.5 -1.5t6.5 -1.5q6 -2 11 -2q18 0 30 12.5t16 27.5l128 454l3 9q0 2 0.5 6t0.5 6v191q0 20 -12 40.5t-37 20.5h-298q-25 0 -37 -20.5t-12 -40.5v-143q0 -20 12 -40.5
t37 -20.5h126zM39 538v143q0 18 9.5 31t22.5 13h298q13 0 22.5 -13t9.5 -31v-191q0 -7 -3 -16l-128 -454q-8 -28 -30 -28q-4 0 -6 1l-116 32q-14 5 -21 23.5t-1 37.5l115 373q3 6 3 16v19h-143q-13 0 -22.5 13t-9.5 31z" />
    <glyph glyph-name="eight" unicode="8" 
d="M438 537q0 113 -52.5 166t-166.5 53q-106 0 -161.5 -53.5t-55.5 -159.5q0 -54 7 -89t34 -72q4 -6 4 -11q0 -7 -5 -12q-32 -39 -40.5 -73t-8.5 -91q0 -226 226 -226q111 0 169 56.5t58 167.5q0 40 -1.5 60.5t-12 50.5t-32.5 55q-5 5 -5 12q0 3 2 7q2 5 8 15q8 12 11 18
q7 11 9 18q13 38 13 108zM219 739q151 0 187 -99q15 -39 15 -103q0 -65 -12 -102q-10 -25 -23 -42q-8 -9 -8 -23t9 -22q27 -27 34.5 -62.5t7.5 -92.5q0 -207 -210 -207q-209 0 -209 209q0 55 9 89.5t36 63.5q8 8 8.5 22t-6.5 22q-38 44 -38 151q0 196 200 196zM199 543
q-5 -9 -5 -39q0 -20 8 -39q5 -14 18 -14q12 0 18 13q8 19 8 42q0 50 -28 50q-14 0 -19 -13zM215 477q-4 12 -4 27v15q0 5 2 13q1 2 2 5l1 2h2q4 0 8 -7q3 -10 3 -26t-4 -28q-1 -5 -5 -9q-1 1 -5 8zM251 224q0 20 -8 40.5t-22 20.5h-3q-12 0 -17 -11q-14 -22 -14 -57
q0 -45 32 -45q19 0 25.5 12t6.5 40zM228 256q6 -16 6 -32q0 -11 -1 -17q0 -6 -2 -12t-12 -6q-15 0 -15 28q0 20 5 36q3 9 7 13l2 2q6 0 10 -12z" />
    <glyph glyph-name="nine" unicode="9" 
d="M234 234q-8 -30 -40 -30q-33 0 -75 5q-3 0 -9.5 1.5t-10.5 2.5q-24 3 -25 3q-27 0 -41 -18t-16 -42q-6 -62 -6 -96q0 -46 36 -63q67 -28 166 -28q230 0 230 401q0 386 -231 386q-60 0 -104 -22t-68 -61t-35 -84.5t-11 -100.5q0 -47 7 -88t25.5 -83.5t57 -67t93.5 -24.5
q11 0 45 6zM194 187q30 0 44.5 17.5t16.5 57.5l-1 -1q-38 -19 -77 -19q-87 5 -126.5 65t-39.5 181q0 127 53.5 189t147.5 62q61 0 104 -28t66.5 -80.5t33.5 -115.5t10 -145q0 -64 -5 -114.5t-18.5 -103.5t-41.5 -91t-70 -58q-35 -17 -78 -17q-74 0 -159 27q-12 5 -19.5 19.5
t-6.5 32.5l6 90q1 21 12.5 32.5t27.5 11.5q66 -12 120 -12zM210 437q10 0 15 1q14 2 22.5 18.5t6.5 35.5q-1 18 -7 29q-7 22 -35 22q-38 0 -38 -53t36 -53zM237 485q0 -31 -27 -31q-11 0 -14 8q-5 8 -5 28q0 36 21 36q25 0 25 -41z" />
    <glyph glyph-name="colon" unicode=":" horiz-adv-x="230" 
d="M7 485v-168q0 -13 8 -27.5t27 -14.5h146q19 0 27 14.5t8 27.5v168q0 13 -8 27.5t-27 14.5h-146q-19 0 -27 -14.5t-8 -27.5zM24 317v168q0 10 5 17.5t13 7.5h146q8 0 13 -7.5t5 -17.5v-168q0 -10 -5 -17.5t-13 -7.5h-146q-8 0 -13 7.5t-5 17.5zM7 194v-169q0 -13 8 -27.5
t27 -14.5h146q19 0 27 14.5t8 27.5v169q0 13 -8 27.5t-27 14.5h-146q-19 0 -27 -14.5t-8 -27.5zM24 25v169q0 10 5 17.5t13 7.5h146q8 0 13 -7.5t5 -17.5v-169q0 -10 -5 -17.5t-13 -7.5h-146q-8 0 -13 7.5t-5 17.5z" />
    <glyph glyph-name="semicolon" unicode=";" horiz-adv-x="235" 
d="M16 485v-168q0 -12 6 -24q9 -18 28 -18h147q18 0 26.5 14.5t8.5 27.5v168q0 13 -8.5 27.5t-26.5 14.5h-147q-19 0 -28 -18q-6 -12 -6 -24zM33 317v168q0 10 5 17.5t12 7.5h147q7 0 12.5 -7.5t5.5 -17.5v-168q0 -10 -5.5 -17.5t-12.5 -7.5h-147q-7 0 -12 7.5t-5 17.5z
M200 229h-154q-17 0 -25.5 -14t-8.5 -25q-1 -24 -5.5 -86t-7 -108.5t-2.5 -84.5q0 -14 8.5 -27.5t26.5 -13.5h114q27 0 35 32q1 3 30 146q25 129 25 140q0 13 -9 27t-27 14zM14 -87l15 276q2 23 17 23h154q9 0 14.5 -9.5t3.5 -20.5l-54 -277q-3 -18 -18 -18h-114
q-8 0 -13.5 8t-4.5 18z" />
    <glyph glyph-name="less" unicode="&#x3c;" 
d="M344 267q-4 4 -4 14q0 11 4 15l3 3q3 2 7 4q33 17 33 51v161q0 18 -10.5 35.5t-33.5 17.5q-10 0 -17 -4l-256 -138q-26 -14 -26 -49v-193q0 -34 26 -49q6 -3 26 -14.5t53 -31t58 -33.5q8 -4 39.5 -22t45.5 -25q7 -4 17.5 -9.5t11.5 -6.5l11 -4q8 -3 11 -3q22 0 33 18.5
t11 35.5v169q0 37 -33 51l-2 2q-3 1 -5 2zM346 318q-22 -5 -22.5 -36t22.5 -37h2q9 -2 15.5 -12.5t6.5 -23.5v-169q0 -15 -8 -26t-19 -11q-5 0 -9 3q-2 0 -3 1l-253 143q-17 8 -17 34v193q0 26 17 34l256 138q6 2 9 2q11 0 19 -10.5t8 -25.5v-161q0 -14 -7 -24.5t-17 -11.5z
" />
    <glyph glyph-name="equal" unicode="=" 
d="M30 471v-134q0 -13 8.5 -28.5t27.5 -15.5h308q19 0 27.5 15.5t8.5 28.5v134q0 13 -9 28t-27 15h-308q-18 0 -27 -15t-9 -28zM47 337v134q0 10 5.5 18t13.5 8h308q8 0 13.5 -8t5.5 -18v-134q0 -11 -5.5 -19t-13.5 -8h-308q-8 0 -13.5 8t-5.5 19zM30 223v-134q0 -13 9 -28
t27 -15h308q18 0 27 15t9 28v134q0 13 -8.5 28.5t-27.5 15.5h-308q-19 0 -27.5 -15.5t-8.5 -28.5zM47 89v134q0 11 5.5 19t13.5 8h308q8 0 13.5 -8t5.5 -19v-134q0 -10 -5.5 -18t-13.5 -8h-308q-8 0 -13.5 8t-5.5 18z" />
    <glyph glyph-name="greater" unicode="&#x3e;" 
d="M53 515v-161q0 -36 32 -51q1 0 2.5 -1t2.5 -2t2 -1q3 -1 3 -3q4 -4 4 -15t-4 -15l-3 -2q-2 -2 -6 -4q-33 -14 -33 -51v-169q0 -17 10 -35.5t33 -18.5q8 0 18 5l256 144q25 14 25 49v193q0 36 -25 49l-256 138q-7 4 -18 4q-22 0 -32.5 -18t-10.5 -35zM93 318
q-10 1 -16.5 11.5t-6.5 24.5v161q0 15 7.5 25.5t18.5 10.5q2 0 10 -2l256 -138q16 -8 16 -34v-193q0 -26 -16 -34l-256 -144q-5 -3 -10 -3q-11 0 -18.5 10.5t-7.5 26.5v169q0 28 19 35q1 1 4 1h1q22 6 21.5 37t-22.5 36z" />
    <glyph glyph-name="question" unicode="?" horiz-adv-x="378" 
d="M306 337q47 47 61 91t14 118q0 53 -7.5 92.5t-27 76t-58.5 56t-97 19.5q-92 0 -161 -31q-35 -16 -33 -61v-73q2 -29 7 -47q5 -14 9 -19q8 -12 22 -12q3 0 21 3q3 1 8.5 2.5t6.5 1.5q28 4 64 4q20 0 25.5 -4t5.5 -18q0 -21 -14 -38l-16 -19q-7 -6 -21 -20
q-61 -61 -61 -140q0 -30 6 -54q14 -43 48 -43h102q28 0 43 31q18 36 24 46q14 23 29 38zM364 546q0 -74 -14 -115t-56 -82q-32 -31 -56 -88q-10 -22 -28 -22h-102q-37 0 -37 80q0 47 14 73.5t48 60.5q33 33 43 49q7 10 7 34q0 20 -11 31q-13 8 -37 8q-53 0 -100 -11
q-7 -1 -12 9.5t-6 27.5l-3 98q-2 34 23 44q78 30 154 30q89 0 131 -52.5t42 -174.5zM53 154v-110q0 -20 12 -40.5t37 -20.5h117q25 0 37.5 20t12.5 41v110q0 21 -12.5 41t-37.5 20h-117q-25 0 -37 -20.5t-12 -40.5zM70 44v110q0 18 9.5 31t22.5 13h117q14 0 23.5 -13
t9.5 -31v-110q0 -18 -9.5 -31t-23.5 -13h-117q-13 0 -22.5 13t-9.5 31z" />
    <glyph glyph-name="at" unicode="@" horiz-adv-x="822" 
d="M782 60q41 70 41 268q0 92 -9.5 162t-36.5 134.5t-71 105.5t-115.5 65t-168.5 24q-101 0 -176.5 -27.5t-121.5 -73.5t-74 -116.5t-38.5 -145t-10.5 -169.5q0 -73 3.5 -127.5t13.5 -114.5t28 -102.5t49 -82.5t74 -64.5t105 -39t140 -14.5q68 0 95 8q38 10 38 55
q0 3 0.5 17.5t0.5 30t-1 29.5q-2 27 -10 45q-13 27 -41 24q-69 -8 -83 -8q-101 0 -153 24q-67 33 -87 136q-9 41 -11 95q-1 32 -1 89q0 72 5.5 121t22 91.5t46.5 67t77.5 38t116.5 13.5q72 0 116.5 -14t69 -49.5t33 -82.5t8.5 -124v-89q-1 -25 -7 -46q-1 -3 -5 -11
q-2 2 -5 9q-7 16 -8 40q-2 16 -2 79v172q0 18 -11 37t-35 19h-125q-21 0 -32 -16q-41 31 -84 31q-105 0 -144 -116q-24 -71 -24 -187q0 -42 2.5 -74.5t13 -75t29 -70t54.5 -47.5t85 -20q45 0 89 27q5 3 13 8.5t12 7.5q3 3 7 5h2l1 -1q2 -1 3 -2q57 -45 141 -45q110 0 156 77
zM806 347v-19q0 -191 -39 -259q-39 -69 -141 -69q-84 0 -130 41q-7 7 -17 7q-9 0 -14 -5q-49 -43 -107 -43q-92 0 -129.5 68.5t-37.5 201.5q0 286 151 286q17 0 41.5 -9.5t38.5 -22.5l11 -10q0 11 7.5 19t17.5 8h125q12 0 20.5 -11.5t8.5 -27.5v-172q0 -90 7 -115
q7 -30 25 -30t23 26q6 27 6 117v20q0 75 -11 127.5t-29.5 83.5t-51 48t-66.5 22.5t-86 5.5q-79 0 -129.5 -14.5t-87.5 -52.5t-52.5 -106t-15.5 -175q0 -51 1 -82.5t7 -77.5t17 -75.5t32 -57.5t52 -42q54 -26 160 -26l85 8q12 1 21 -10.5t10 -26.5l1 -92q0 -15 -7.5 -26
t-18.5 -13q-55 -7 -90 -7q-115 0 -190 27.5t-121.5 92t-65.5 162t-19 246.5q0 145 26.5 246t80 159.5t125.5 84t172 25.5q93 0 161 -21.5t119.5 -72.5t77.5 -141t26 -220zM372 277q0 -47 6 -64t21 -17q4 0 14 2t16 14t5 27q0 9 -0.5 31.5t-0.5 36.5v11q0 16 -8.5 27
t-20.5 11q-15 0 -22.5 -14.5t-8.5 -28t-1 -36.5zM391 232q-2 11 -2 45v22q0 11 3 23q3 17 12 17q3 0 6 -6q5 -8 7 -29q1 -12 1 -25.5t-0.5 -26.5t-0.5 -17q0 -22 -19 -22l-2 2q-4 5 -5 17z" />
    <glyph glyph-name="A" unicode="A" horiz-adv-x="511" 
d="M368 754h-226q-22 0 -34.5 -16t-15.5 -34l-103 -645q0 -3 -0.5 -7t-0.5 -6q0 -21 12.5 -42t37.5 -21h113q25 0 39 21q3 6 7 18q1 3 2.5 8.5t2.5 8.5l3 14l5 10q3 5 9 5h68q6 0 9 -5l3 -6q1 -3 2 -4l3 -15q1 -3 2.5 -8t2.5 -8q4 -12 8 -18q12 -21 38 -21h119q26 0 38 21.5
t12 41.5q0 9 -1 14l-104 644q-3 18 -16.5 34t-34.5 16zM6 56l103 645q2 16 11.5 26t21.5 10h226q12 0 21.5 -10t12.5 -26l104 -644q4 -22 -6 -39.5t-26 -17.5h-119q-11 0 -20.5 9.5t-12.5 25.5l-2 15q-3 15 -12.5 25t-20.5 10h-68q-13 0 -22 -10.5t-11 -27.5l-2 -10
q-2 -16 -11.5 -26.5t-21.5 -10.5h-113q-16 0 -26 17.5t-6 38.5zM289 333l-23 204h-20l-24 -204q-3 -21 7 -37.5t26 -16.5t26 16.5t8 37.5zM256 479q16 -123 16 -153q0 -13 -5.5 -21.5t-11.5 -8.5t-11.5 8t-5.5 20q0 2 0.5 4t0.5 3z" />
    <glyph glyph-name="B" unicode="B" horiz-adv-x="486" 
d="M7 690v-643q0 -21 12.5 -42.5t38.5 -21.5h212q223 0 223 226q0 52 -5 78q-9 44 -34 75q-9 10 -9 24q0 8 5 17q29 57 29 151q0 200 -213 200h-208q-26 0 -38.5 -21.5t-12.5 -42.5zM24 47v643q0 20 10 33.5t24 13.5h208q196 0 196 -183q0 -97 -27 -143q-8 -13 -6.5 -31
t12.5 -29q35 -35 35 -142q0 -209 -206 -209h-212q-14 0 -24 13.5t-10 33.5zM250 569h-24q-16 0 -16 -23v-72q0 -23 16 -23h25q23 0 33 14.5t10 46.5q0 57 -44 57zM228 468q0 1 -0.5 3t-0.5 3v72q0 4 1 6h22q16 0 21.5 -8.5t5.5 -31.5q0 -25 -5.5 -34.5t-20.5 -9.5h-23z
M253 292h-27q-16 0 -16 -24v-74q0 -9 4.5 -16t11.5 -7h27q28 0 37 13q10 10 10 47q0 34 -11 47.5t-36 13.5zM228 188q0 1 -0.5 3t-0.5 3v74l1 7h25q19 0 24.5 -8.5t5.5 -35.5q0 -28 -5 -35.5t-25 -7.5h-25z" />
    <glyph glyph-name="C" unicode="C" horiz-adv-x="426" 
d="M431 52v109q0 21 -14 42t-40 20q-73 -5 -89 -5q-31 0 -43 8.5t-20 37.5q-6 27 -6 59v63v54q2 27 7 43q12 36 63 36q15 0 43.5 -3t42.5 -3q26 0 39 18.5t14 41.5l3 109q1 19 -8.5 37.5t-29.5 25.5q-67 23 -142 23q-147 0 -201 -88q-53 -84 -53 -309q0 -155 23 -239
q23 -88 77 -125.5t145 -37.5q92 0 153 22q36 13 36 61zM414 161v-109q1 -16 -6.5 -29t-18.5 -16q-67 -21 -147 -21q-79 0 -131 31t-75 119q-22 85 -22 235q0 218 50 300q49 80 187 80q60 0 136 -22q27 -7 27 -47l-3 -108q0 -20 -10.5 -32t-25.5 -12q-45 6 -86 6
q-56 0 -71 -29q-16 -29 -16 -121q0 -94 7 -126q9 -38 27 -48.5t52 -10.5l90 5q15 1 25 -12t11 -33z" />
    <glyph glyph-name="D" unicode="D" horiz-adv-x="523" 
d="M57 -17h201q69 0 119.5 25t78.5 62t44.5 93t21.5 104.5t5 109.5q0 63 -5.5 112t-23 101t-47 86t-81 56t-120.5 22h-193q-26 0 -38 -20.5t-12 -41.5v-647q0 -21 12 -41.5t38 -20.5zM258 0h-201q-14 0 -23.5 13t-9.5 32v647q0 19 9.5 32t23.5 13h193q137 0 198.5 -85.5
t61.5 -274.5t-58.5 -283t-193.5 -94zM323 364q0 99 -15 132t-66 33q-13 0 -22.5 -13t-9.5 -32v-231q0 -19 9.5 -32t22.5 -13q27 0 44.5 11t25 35t9.5 47t2 63zM304 430q2 -25 2 -66q0 -32 -1 -50q0 -28 -7 -46q-13 -43 -56 -43q-5 0 -10 8t-5 20v231q0 12 5 20t10 8
q39 0 51 -23q8 -19 11 -59z" />
    <glyph glyph-name="E" unicode="E" horiz-adv-x="439" 
d="M7 706v-674q0 -16 9.5 -32.5t30.5 -16.5h356q21 0 30.5 17t9.5 32v141q0 15 -10 31.5t-30 16.5h-171l-2 3q-3 4 -3 11q0 9 3 15l3 3h102q20 0 30 16.5t10 31.5v139q0 39 -36 48q-9 2 -29 2q-8 0 -28 -2l-26 -3q-9 0 -19 2t-10 16q0 6 3 11l3 3h170q20 0 30 16.5t10 31.5
v141q0 15 -10 31.5t-30 16.5h-356q-21 0 -30.5 -16t-9.5 -32zM24 32v674q0 13 6.5 22t16.5 9h356q9 0 16 -9t7 -22v-141q0 -13 -7 -22t-16 -9h-170q-10 0 -16.5 -9.5t-6.5 -21.5q0 -14 6.5 -23t16.5 -9h102q9 0 16 -9t7 -22v-139q0 -13 -7 -22t-16 -9h-102q-10 0 -16.5 -9.5
t-6.5 -21.5v-4q0 -13 6.5 -22t16.5 -9h170q9 0 16 -9.5t7 -21.5v-141q0 -13 -7 -22.5t-16 -9.5h-356q-10 0 -16.5 9t-6.5 23z" />
    <glyph glyph-name="F" unicode="F" horiz-adv-x="417" 
d="M378 754h-321q-25 0 -37.5 -21t-12.5 -41v-646q0 -20 12.5 -41.5t37.5 -21.5h120q25 0 37.5 21.5t12.5 41.5v207h108q20 0 30 16.5t10 31.5v139q0 39 -36 48q-9 2 -28 2q-9 0 -29 -2l-26 -3q-9 0 -19 2q-10 3 -10 16q0 5 2 9h149q24 0 36.5 21.5t12.5 40.5v118
q0 19 -12.5 40.5t-36.5 21.5zM57 737h321q13 0 22.5 -13.5t9.5 -31.5v-118q0 -18 -9.5 -31.5t-22.5 -13.5h-156q-12 -9 -12 -26q0 -14 6.5 -23t16.5 -9h102q9 0 16 -9t7 -22v-139q0 -13 -7 -22t-16 -9h-125v-224q0 -19 -10 -32.5t-23 -13.5h-120q-13 0 -23 13.5t-10 32.5
v646q0 18 10 31.5t23 13.5z" />
    <glyph glyph-name="G" unicode="G" horiz-adv-x="495" 
d="M491 63v328q0 20 -12 39.5t-37 19.5h-135q-25 0 -36.5 -19.5t-11.5 -39.5l1 -103q0 -33 24 -46q-3 -16 -3 -17q-1 -5 -4 -8q-1 -1 -3 -1q-38 0 -49 49q-5 21 -7 50v48v18.5v22.5v19q0 35 5 57q5 27 25 34q9 4 25 4q11 1 33 1t64.5 -5t63.5 -5q27 0 40 20t13 43v106
q0 46 -37 61q-30 12 -88.5 20.5t-95.5 8.5q-53 0 -94.5 -13t-69 -33t-48 -52.5t-31 -64t-17 -75.5t-8 -78.5t-1.5 -81.5t1 -79.5t7 -77.5t16 -75.5t29.5 -64.5t46.5 -54t68.5 -33t93.5 -13q39 0 96.5 8t93.5 18q21 6 31.5 25t10.5 39zM474 391v-328q0 -17 -8.5 -30.5
t-21.5 -17.5q-128 -25 -185 -25q-61 0 -104.5 17t-70.5 46.5t-42.5 78.5t-21.5 105t-6 133q0 201 54.5 291t197.5 90q70 0 173 -27l5 -1q26 -10 26 -45v-106q0 -21 -10.5 -33.5t-25.5 -12.5q-98 10 -128 10q-48 0 -63 -6q-12 -5 -18 -9t-11.5 -13.5t-7.5 -24.5
q-5 -29 -5 -120q0 -38 1.5 -59.5t8 -49.5t22 -41.5t41.5 -13.5q11 1 19 12t8 27v17q-10 0 -17 9.5t-7 23.5l-1 103q0 18 9 30t22 12h135q14 0 23 -12t9 -30z" />
    <glyph glyph-name="H" unicode="H" horiz-adv-x="524" 
d="M227 214q3 26 15 26h27q10 0 18 -2q10 -5 10 -25v-169q0 -20 12 -40.5t37 -20.5h122q25 0 37 20.5t12 40.5v649q0 20 -12 40.5t-37 20.5h-122q-40 0 -49 -57q-2 -14 -2 -46q0 -17 2 -51q4 -68 0 -90q-3 -28 -15 -28h-27q-9 0 -17 2q-11 4 -11 25v184q0 20 -12 40.5
t-37 20.5h-122q-25 0 -37 -20.5t-12 -40.5v-649q0 -20 12 -40.5t37 -20.5h122q41 0 48 55q3 19 3 44q-1 8 -1.5 23.5t-0.5 23.5q-4 59 0 85zM314 44v169q0 19 -9 31.5t-23 12.5h-40q-14 0 -23 -12.5t-9 -31.5v-169q0 -18 -9.5 -31t-22.5 -13h-122q-13 0 -22.5 13t-9.5 31
v649q0 18 9.5 31t22.5 13h122q13 0 22.5 -13t9.5 -31v-184q0 -18 9.5 -31t22.5 -13h40q13 0 22.5 13t9.5 31v184q0 18 9.5 31t22.5 13h122q13 0 22.5 -13t9.5 -31v-649q0 -18 -9.5 -31t-22.5 -13h-122q-13 0 -22.5 13t-9.5 31z" />
    <glyph glyph-name="I" unicode="I" horiz-adv-x="234" 
d="M7 694v-650q0 -20 11.5 -40.5t36.5 -20.5h123q25 0 37 20.5t12 40.5v650q0 19 -12.5 39.5t-36.5 20.5h-123q-24 0 -36 -20.5t-12 -39.5zM24 44v650q0 17 9 30t22 13h123q13 0 22.5 -13t9.5 -30v-650q0 -18 -9.5 -31t-22.5 -13h-123q-13 0 -22 13t-9 31z" />
    <glyph glyph-name="J" unicode="J" horiz-adv-x="296" 
d="M64 216l-1 -1q-1 -1 -4 -1q-15 0 -24 -2q-44 -7 -44 -62v-117q0 -21 12.5 -42.5t38.5 -21.5h44q115 0 160 54.5t45 171.5v500q0 19 -11.5 39t-35.5 20h-125q-24 0 -35.5 -20t-11.5 -39v-341q0 -61 -1 -78q0 -26 -3 -44l-3 -14zM119 737h125q13 0 21.5 -12.5t8.5 -29.5
v-500q0 -46 -5.5 -80.5t-19 -56.5t-27.5 -35.5t-38.5 -21t-44.5 -10.5t-53 -5h-44q-14 0 -24 13.5t-10 33.5v117q0 20 10 33.5t24 13.5h24q6 0 10 7q6 4 7 13q3 15 3 27q3 32 3 110v341q0 17 8.5 29.5t21.5 12.5z" />
    <glyph glyph-name="K" unicode="K" horiz-adv-x="487" 
d="M228 495q-1 2 -1 7v210q0 14 -8.5 28t-27.5 14h-149q-19 0 -27 -14.5t-8 -27.5v-687q0 -13 8 -27.5t27 -14.5h149q19 0 27.5 14t8.5 28v195q0 6 3 7q0 -1 1 -2l55 -212q2 -10 11 -20t23 -10h148q19 0 27.5 15t8.5 28q0 2 -0.5 6t-0.5 6q-1 2 -18 67.5t-29 113.5
q-38 154 -38 162q0 11 35 151l42 168q0 2 0.5 6t0.5 6q0 14 -8.5 28t-27.5 14h-145q-27 0 -34 -31l-52 -225q0 -2 -1 -3zM210 220v-195q0 -11 -5.5 -18t-13.5 -7h-149q-8 0 -13 7.5t-5 17.5v687q0 10 5 17.5t13 7.5h149q8 0 13.5 -7t5.5 -18v-210q0 -11 5 -18.5t13 -7.5
q13 0 18 18l52 225q4 18 17 18h145q10 0 15.5 -10t2.5 -23l-76 -316q-2 -8 0 -15l84 -339q3 -12 -2.5 -23t-15.5 -11h-148q-11 0 -18 17l-55 212q-5 16 -17 16h-2q-8 0 -13 -7.5t-5 -17.5z" />
    <glyph glyph-name="L" unicode="L" horiz-adv-x="391" 
d="M58 -17h292q26 0 38.5 21t12.5 42v116q0 48 -39 61q-15 4 -33 4q-11 0 -33 -2t-31 -2q-14 0 -23 3q-15 4 -15 28v437q0 20 -13 41.5t-38 21.5h-118q-26 0 -38.5 -21t-12.5 -42v-645q0 -21 12.5 -42t38.5 -21zM350 0h-292q-14 0 -24 13.5t-10 32.5v645q0 19 10 32.5
t24 13.5h118q14 0 24 -13.5t10 -32.5v-437q0 -19 10 -32.5t23 -13.5h107q14 0 24 -13.5t10 -32.5v-116q0 -19 -10 -32.5t-24 -13.5z" />
    <glyph glyph-name="M" unicode="M" horiz-adv-x="684" 
d="M227 167l15 -123q2 -18 15 -35.5t35 -17.5h99q22 0 35 17.5t15 35.5l16 128v-126q0 -20 13 -41.5t38 -21.5h118q26 0 38.5 21t12.5 42v645q0 21 -12.5 42t-38.5 21h-222q-34 0 -46 -39q-8 -21 -10 -63t-5 -58q-1 -5 -3 -11l-4 12q-1 5 -6 57q-4 46 -11 64q-13 38 -46 38
h-215q-26 0 -38.5 -21t-12.5 -42v-645q0 -21 12.5 -42t38.5 -21h118q25 0 38 21.5t13 41.5v121zM24 46v645q0 19 10 32.5t24 13.5h215q26 0 33 -36l16 -118q4 -19 18 -19q15 0 18 20l13 115q2 16 11.5 27t21.5 11h222q14 0 24 -13.5t10 -32.5v-645q0 -19 -10 -32.5
t-24 -13.5h-118q-14 0 -24 13.5t-10 32.5v334h-8l-42 -334q-2 -16 -11.5 -27t-21.5 -11h-99q-12 0 -21.5 11t-11.5 27l-41 334h-8v-334q0 -19 -10 -32.5t-24 -13.5h-118q-14 0 -24 13.5t-10 32.5z" />
    <glyph glyph-name="N" unicode="N" horiz-adv-x="550" 
d="M227 220l92 -203q15 -34 44 -34h130q25 0 37.5 21.5t12.5 41.5v645q0 20 -12.5 41.5t-37.5 21.5h-119q-39 0 -48 -49q-6 -28 -2 -82q2 -68 2 -76q0 -3 -0.5 -8.5t-1.5 -7.5l-93 191q-14 32 -44 32h-129q-26 0 -38.5 -21t-12.5 -42v-645q0 -21 12.5 -42t38.5 -21h118
q39 0 50 52q6 29 2 87q0 11 -1 28.5t-1.5 30.5t-0.5 23q0 8 2 16zM24 46v645q0 19 10 32.5t24 13.5h129q19 0 29 -22l94 -195q7 -10 14 -10t12 6t5 16v159q0 19 10 32.5t23 13.5h119q13 0 23 -13.5t10 -32.5v-645q0 -19 -10 -32.5t-23 -13.5h-130q-21 0 -29 24l-94 208
q-4 11 -14 11q-6 0 -11 -6.5t-5 -16.5v-174q0 -19 -10 -32.5t-24 -13.5h-118q-14 0 -24 13.5t-10 32.5z" />
    <glyph glyph-name="O" unicode="O" horiz-adv-x="536" 
d="M269 -31q70 0 121.5 25.5t79.5 63t44.5 94.5t21 106t4.5 111q0 51 -3.5 92.5t-12.5 90.5t-28.5 85t-48 67t-74.5 47.5t-105 16.5q-70 0 -121.5 -25t-80 -62.5t-45 -94t-21 -105.5t-4.5 -111q0 -43 2 -79t9.5 -78.5t19 -76t32.5 -66t49 -54t69 -34.5t92 -13zM523 369
q0 -193 -58.5 -288t-195.5 -95t-196.5 95t-59.5 289q0 193 58.5 287t196.5 94t196.5 -94t58.5 -288zM200 369q0 -91 14 -135q12 -41 55 -41q41 0 54 40t13 137q0 95 -13 135q-12 40 -54 40q-43 0 -55 -41q-14 -44 -14 -135zM217 320v49v49q2 37 6 55q12 55 46 55
q35 0 45 -55q5 -30 5 -55v-48v-13.5v-18.5v-17q0 -25 -5 -55q-11 -56 -45 -56t-46 55q-4 18 -6 55z" />
    <glyph glyph-name="P" unicode="P" horiz-adv-x="490" 
d="M49 -17h136q31 0 40 38q0 1 3 28q0 4 -0.5 14.5t-0.5 15.5q-2 33 1 49q1 8 4 11h2q77 0 129.5 21.5t80.5 65t39.5 96.5t11.5 128q0 154 -55.5 229t-205.5 75h-185q-22 0 -32 -17.5t-10 -33.5v-669q0 -16 10 -33.5t32 -17.5zM234 156q-10 0 -17 -10t-7 -24v-88
q0 -14 -7.5 -24t-17.5 -10h-136q-10 0 -17.5 10t-7.5 24v669q0 14 7.5 24t17.5 10h185q62 0 104.5 -12.5t75.5 -43.5t48.5 -88t15.5 -143q0 -166 -59 -230t-185 -64zM226 536h-16v-178h16q35 0 49.5 21.5t14.5 70.5q0 50 -14 68t-50 18zM227 375v144q29 0 37.5 -14t8.5 -55
q0 -40 -9 -57.5t-37 -17.5z" />
    <glyph glyph-name="Q" unicode="Q" horiz-adv-x="534" 
d="M266 768q-51 0 -92 -13t-69 -34t-48.5 -53.5t-32 -65t-18 -75.5t-8.5 -78.5t-2 -79.5q0 -52 3 -93t12 -90t28 -85t47.5 -67.5t74.5 -48t105 -16.5q12 0 21 -18l44 -89q17 -35 51 -35q19 0 30 8l28 18q27 19 30 22q35 29 35 71q0 13 -6 31q-5 15 -12 26q-13 32 -13 44
q0 14 7 28q57 113 57 281q0 46 -1.5 81t-8 80t-17.5 78.5t-31.5 67.5t-48.5 56t-70 35.5t-95 13.5zM266 -14q-138 0 -195.5 94t-57.5 289q0 196 57 289t196 93q143 0 199 -96t56 -299q0 -180 -55 -273q-20 -33 -2 -71l16 -33q11 -23 6 -49t-23 -39l-61 -42q-12 -5 -20 -5
q-24 0 -36 26l-44 89q-13 27 -36 27zM195 369q0 -29 0.5 -47t4.5 -45.5t11 -43.5t21 -28t34 -12q42 0 54 41q14 39 14 136q0 95 -14 134q-12 41 -54 41q-20 0 -34 -12t-21 -28t-11 -43.5t-4.5 -45.5t-0.5 -47zM212 321v48v48q2 33 7 55q12 56 47 56t45 -55q4 -18 6 -55v-48
v-48q-2 -38 -6 -56q-11 -56 -45 -56q-35 0 -47 56q-5 22 -7 55z" />
    <glyph glyph-name="R" unicode="R" horiz-adv-x="494" 
d="M232 172q1 1 4 1q0 -1 1 -2q4 -4 7 -15q4 -11 10 -63q2 -24 4 -35q0 -5 6 -33q12 -42 42 -42h135q22 0 32 17t10 34q0 20 -7 52q-5 23 -14 55q-20 69 -20 99q0 7 4 14q52 78 52 216q0 146 -53 215t-195 69h-200q-23 0 -33 -17t-10 -35v-667q0 -18 10 -35t33 -17h134
q35 0 42 44q2 10 2 33q0 24 -1 36q-2 46 0 62q3 12 5 14zM235 190q-11 0 -18 -10t-7 -25v-120q0 -15 -7.5 -25t-18.5 -10h-134q-11 0 -18.5 10t-7.5 25v667q0 15 7.5 25t18.5 10h200q59 0 99 -11t71 -39.5t46 -82t15 -134.5q0 -140 -49 -207q-11 -14 -6 -33l39 -186
q4 -16 -3.5 -30t-20.5 -14h-135q-21 0 -24 28l-23 135q-1 12 -8.5 19.5t-15.5 7.5zM234 392h20q40 0 40 71q0 73 -44 73h-16q-10 0 -17.5 -10.5t-7.5 -24.5v-74q0 -15 7 -25t18 -10zM254 409h-20q-8 0 -8 18v74q0 18 8 18h16q15 0 21 -15q6 -13 6 -41q0 -25 -5 -40
q-6 -14 -18 -14z" />
    <glyph glyph-name="S" unicode="S" horiz-adv-x="462" 
d="M451 581q2 64 2 96q0 22 -10.5 42t-33.5 27q-70 22 -184 22q-69 0 -115 -19.5t-70.5 -58t-34 -85.5t-9.5 -112q0 -121 45 -178q43 -55 161 -82q2 0 6 -1t10.5 -2t10.5 -2q2 -1 15 -4q2 -1 5 -1q1 -1 1 -3q0 -3 -4 -5q-8 -3 -20 -3q-46 0 -114 9q-8 1 -24 5q-24 3 -27 3
q-26 0 -40.5 -21.5t-15.5 -43.5q-4 -64 -4 -96q0 -54 41 -70q77 -30 200 -30q126 0 177.5 71t51.5 199q0 124 -39 174t-157 85q-2 1 -16.5 4.5t-23.5 7.5q-11 5 -15 9q-1 1 -2 3l-1 1q4 2 12 3t22.5 0t16.5 -1q40 0 81 -6q3 0 10 -1.5t9 -1.5q16 -2 23 -2q29 0 44 21t16 47z
M436 677l-2 -96q-1 -24 -13 -37.5t-30 -13.5q-74 11 -123 11q-51 0 -60 -3q-8 -4 -8 -17q0 -12 10 -18q8 -7 60 -22q28 -8 40.5 -12.5t40 -17t42.5 -25t31 -34.5t22 -49q8 -42 8 -105q0 -139 -53.5 -196t-158.5 -57q-108 0 -194 29q-13 4 -21.5 19.5t-8.5 34.5l4 95
q2 20 13 34.5t26 14.5q96 -17 165 -17q41 0 41 25q0 11 -9 17q-9 4 -52 13q-112 24 -152 76q-41 50 -41 167q0 145 51 201.5t161 56.5q83 0 178 -21h1q14 -3 23 -18.5t9 -34.5z" />
    <glyph glyph-name="T" unicode="T" horiz-adv-x="415" 
d="M-10 684v-103q0 -23 6.5 -37.5t19.5 -21t21.5 -8t24.5 -2.5q12 0 18 -1q5 -1 11 -4q10 -7 10 -31v-424q0 -23 13 -46t41 -23h111q28 0 41 23.5t13 45.5v424q0 24 9 30q2 2 10 4q12 2 17 2q14 1 23 3t21 8.5t18 21t6 36.5v103q0 23 -13 46.5t-41 23.5h-324
q-29 0 -42.5 -23t-13.5 -47zM7 581v103q0 22 11 37.5t28 15.5h324q15 0 26 -15.5t11 -37.5v-103q0 -22 -11 -37t-26 -15h-29q-16 0 -27 -15.5t-11 -37.5v-424q0 -22 -11 -37t-26 -15h-111q-16 0 -26.5 15t-10.5 37v424q0 22 -11 37.5t-27 15.5h-34q-16 0 -27.5 15t-11.5 37z
" />
    <glyph glyph-name="U" unicode="U" horiz-adv-x="513" 
d="M169 754h-110q-28 0 -41.5 -23t-13.5 -46v-421q0 -146 55.5 -220.5t197.5 -74.5t197 76.5t55 222.5v417q0 23 -13.5 46t-41.5 23h-110q-28 0 -41.5 -23t-13.5 -46v-431q0 -25 -6.5 -33t-25.5 -8q-20 0 -27 8.5t-7 32.5v431q0 23 -13 46t-41 23zM59 737h110q16 0 26.5 -15
t10.5 -37v-431q0 -33 13 -45.5t38 -12.5t37 12.5t12 45.5v431q0 22 11 37t27 15h110q16 0 27 -15t11 -37v-417q0 -157 -58 -219.5t-177 -62.5q-120 0 -178 60.5t-58 217.5v421q0 22 11 37t27 15z" />
    <glyph glyph-name="V" unicode="V" horiz-adv-x="478" 
d="M239 378l-27 314q-2 22 -15.5 42t-38.5 20h-117q-28 0 -42 -23t-14 -46q0 -3 0.5 -7t0.5 -7l94 -632q3 -19 17 -37.5t37 -18.5h212q24 0 37 18.5t16 38.5l91 632q0 1 0.5 5t0.5 6q0 24 -13.5 47.5t-42.5 23.5h-117q-25 0 -38.5 -20t-15.5 -42zM473 674l-91 -632
q-2 -18 -12.5 -30t-23.5 -12h-212q-13 0 -23.5 12t-13.5 30l-94 632q-4 25 8 44t30 19h117q14 0 24.5 -13t12.5 -33l38 -434h14l34 434q2 20 12.5 33t24.5 13h117q18 0 29.5 -19t8.5 -44z" />
    <glyph glyph-name="W" unicode="W" horiz-adv-x="732" 
d="M363 233l11 -186q1 -22 15.5 -43t40.5 -21h201q25 0 39 20t16 42l51 633v6q0 23 -13.5 46.5t-41.5 23.5h-108q-26 0 -39.5 -21.5t-14.5 -43.5l-9 -265l-22 257q-2 22 -16 42t-39 20h-134q-25 0 -39 -20t-16 -42l-21 -276l-15 285q-1 22 -15 43t-40 21h-107
q-27 0 -40.5 -23t-13.5 -46v-7l54 -633q2 -22 16 -42t39 -20h196q27 0 40 21t14 43zM64 46l-54 633q-2 23 9 40.5t28 17.5h107q15 0 25.5 -14t12.5 -34l23 -432h15l32 423q2 20 12.5 33t25.5 13h134q15 0 25.5 -13t12.5 -33l36 -423h14l15 431q1 20 11.5 34.5t25.5 14.5h108
q17 0 28.5 -17.5t9.5 -40.5l-51 -633q-1 -19 -12.5 -32.5t-25.5 -13.5h-201q-15 0 -26 14t-13 34l-23 405l-8 1l-25 -406q-1 -20 -11.5 -34t-25.5 -14h-196q-15 0 -25.5 13t-12.5 33z" />
    <glyph glyph-name="X" unicode="X" horiz-adv-x="466" 
d="M245 633q-5 -11 -10 -11q-2 0 -3 1q-4 4 -6 9q-5 12 -10 42q-1 9 -5 25t-7 24q-14 31 -41 31h-127q-23 0 -34 -18t-11 -37q0 -11 3 -20l73 -246q11 -39 11 -77q0 -42 -12 -81l-70 -216q-3 -9 -3 -20q0 -18 11 -37t34 -19h125q27 0 39 27q5 12 8 22q0 3 1.5 10.5t2.5 11.5
q1 5 3 13t3.5 13t3.5 9q4 8 8 8t8 -8q3 -7 9 -35q1 -8 5 -22q1 -10 7 -21q12 -28 38 -28h130q23 0 34 19t11 37q0 8 -3 19l-75 265q-7 25 -7 58q0 36 10 67l76 230q3 10 3 21q0 18 -10.5 36.5t-33.5 18.5h-121q-26 0 -41 -30q-6 -13 -8 -24l-6 -25q-7 -30 -13 -42zM190 711
l19 -80q6 -26 26 -26q18 0 26 23l26 86q8 23 26 23h121q15 0 23 -17.5t2 -36.5l-76 -230q-22 -67 -3 -135l75 -265q5 -19 -3 -36t-23 -17h-130q-19 0 -26 26l-15 62q-6 26 -26 26t-26 -26l-16 -62q-7 -26 -27 -26h-125q-15 0 -23.5 17.5t-2.5 36.5l70 216q27 85 1 168
l-73 246q-6 19 2.5 36t23.5 17h127q20 0 27 -26z" />
    <glyph glyph-name="Y" unicode="Y" horiz-adv-x="472" 
d="M166 -17h139q22 0 31 17t9 33q0 18 -2 106q0 82 3 94q33 99 77 243q67 213 67 229t-10 32.5t-31 16.5h-143q-24 0 -39 -33q-3 -8 -7 -26t-5 -27q-5 -33 -11 -47q-1 -3 -4 -7l-2 -4q-2 0 -3 1q-4 8 -5 11q-7 15 -10 46q-1 5 -2.5 14t-2.5 13q-4 18 -7 25q-10 34 -38 34
h-144q-21 0 -31.5 -17t-10.5 -33q0 -17 65 -228q44 -144 76 -244q2 -10 2 -93l-2 -106q0 -17 9.5 -33.5t31.5 -16.5zM305 0h-139q-10 0 -17 9.5t-7 23.5v191q0 9 -1 13l-138 455q-5 17 2.5 31t20.5 14h144q17 0 22 -23l22 -98q6 -23 24 -23q16 0 22 23l24 99q5 22 22 22h143
q13 0 20 -14.5t2 -30.5l-141 -454q-2 -10 -2 -14v-191q0 -14 -6.5 -23.5t-16.5 -9.5z" />
    <glyph glyph-name="Z" unicode="Z" horiz-adv-x="455" 
d="M175 512l-168 -295q-9 -16 -9 -33v-142q0 -20 11.5 -39.5t36.5 -19.5h363q24 0 35.5 20t11.5 39v124q0 19 -11.5 39t-35.5 20h-125l164 285q8 13 8 33v152q0 19 -11.5 39t-35.5 20h-363q-25 0 -36.5 -19.5t-11.5 -39.5v-124q0 -20 11.5 -39.5t36.5 -19.5h129zM15 571v124
q0 17 9 29.5t22 12.5h363q13 0 21.5 -12.5t8.5 -29.5v-152q0 -15 -6 -25l-167 -291v-19h143q13 0 21.5 -12.5t8.5 -29.5v-124q0 -17 -8.5 -29.5t-21.5 -12.5h-363q-13 0 -22 12.5t-9 29.5v142q0 13 7 25l171 301v19h-147q-13 0 -22 12.5t-9 29.5z" />
    <glyph glyph-name="bracketleft" unicode="[" horiz-adv-x="273" 
d="M275 660v129q0 17 -10.5 34.5t-32.5 17.5h-180q-22 0 -32.5 -17.5t-10.5 -34.5v-889q0 -17 10.5 -34.5t32.5 -17.5h180q22 0 32.5 17.5t10.5 34.5v129q0 39 -38 51l-7 3l-4 2q-3 3 -3 14v491q0 11 3 14l4 2l7 3q11 3 17.5 7t13.5 15t7 29zM258 789v-129q0 -15 -7.5 -25
t-18.5 -10t-18.5 -10.5t-7.5 -24.5v-491q0 -15 7.5 -25t18.5 -10t18.5 -10.5t7.5 -24.5v-129q0 -15 -7.5 -25t-18.5 -10h-180q-11 0 -18.5 10t-7.5 25v889q0 15 7.5 25t18.5 10h180q11 0 18.5 -10t7.5 -25z" />
    <glyph glyph-name="backslash" unicode="\" 
d="M236 -69q7 -26 33 -26q5 0 11 2q12 3 15 4q7 2 22.5 6.5t23.5 6.5q20 5 75 21q25 6 25 38q0 14 -108 382q-24 82 -52.5 177.5t-48 161t-22.5 75.5q-6 24 -31 27l-8 -1q-20 -8 -43.5 -14.5t-53 -14t-44.5 -11.5q-26 -7 -26 -39q0 -15 109 -382q71 -241 123 -413zM411 -39
l-138 -38l-4 -1q-12 0 -17 14l-230 782q-3 10 1 19.5t12 11.5l139 39q2 1 3 1q13 -2 17 -15l229 -782q7 -24 -12 -31z" />
    <glyph glyph-name="bracketright" unicode="]" horiz-adv-x="271" 
d="M-3 789v-129q0 -39 37 -51l8 -3q2 -1 3 -2l1 -2q0 -1 1 -4t1 -8v-491l-3 -14l-3 -2l-4 -2t-4 -1q-37 -12 -37 -51v-129q0 -17 10 -34.5t32 -17.5h180q23 0 33 17t10 35v889q0 18 -10 35t-33 17h-180q-22 0 -32 -17.5t-10 -34.5zM14 660v129q0 15 7 25t18 10h180
q11 0 18.5 -10t7.5 -25v-889q0 -15 -7.5 -25t-18.5 -10h-180q-11 0 -18 10t-7 25v129q0 14 7.5 24.5t17.5 10.5q11 0 18.5 10t7.5 25v491q0 14 -7.5 24.5t-18.5 10.5t-18 10t-7 25z" />
    <glyph glyph-name="underscore" unicode="_" horiz-adv-x="480" 
d="M15 -89v-89q0 -13 6 -25q10 -18 29 -18h380q19 0 29 18q6 12 6 25v89q0 13 -8 27.5t-27 14.5h-380q-19 0 -27 -14.5t-8 -27.5zM32 -178v89q0 10 5 17.5t13 7.5h380q8 0 13 -7.5t5 -17.5v-89q0 -11 -5 -18.5t-13 -7.5h-380q-8 0 -13 7.5t-5 18.5z" />
    <glyph glyph-name="grave" unicode="`" horiz-adv-x="338" 
d="M250 779h-141q-19 0 -27.5 -15t-8.5 -28q0 -8 9 -31q5 -10 19 -34q10 -17 33 -56q11 -19 29 -19h105q19 0 27.5 14.5t8.5 27.5q0 18 -8 56q-1 7 -4 18t-4.5 19t-2.5 15q-2 11 -11 22t-24 11zM109 762h141q15 0 18 -19l18 -98q2 -13 -3.5 -22.5t-14.5 -9.5h-105
q-10 0 -14 10l-55 98q-7 13 -1.5 27t16.5 14z" />
    <glyph glyph-name="a" unicode="a" horiz-adv-x="511" 
d="M368 754h-226q-22 0 -34.5 -16t-15.5 -34l-103 -645q0 -3 -0.5 -7t-0.5 -6q0 -21 12.5 -42t37.5 -21h113q25 0 39 21q3 6 7 18q1 3 2.5 8.5t2.5 8.5l3 14l5 10q3 5 9 5h68q6 0 9 -5l3 -6q1 -3 2 -4l3 -15q1 -3 2.5 -8t2.5 -8q4 -12 8 -18q12 -21 38 -21h119q26 0 38 21.5
t12 41.5q0 9 -1 14l-104 644q-3 18 -16.5 34t-34.5 16zM6 56l103 645q2 16 11.5 26t21.5 10h226q12 0 21.5 -10t12.5 -26l104 -644q4 -22 -6 -39.5t-26 -17.5h-119q-11 0 -20.5 9.5t-12.5 25.5l-2 15q-3 15 -12.5 25t-20.5 10h-68q-13 0 -22 -10.5t-11 -27.5l-2 -10
q-2 -16 -11.5 -26.5t-21.5 -10.5h-113q-16 0 -26 17.5t-6 38.5zM289 333l-23 204h-20l-24 -204q-3 -21 7 -37.5t26 -16.5t26 16.5t8 37.5zM256 479q16 -123 16 -153q0 -13 -5.5 -21.5t-11.5 -8.5t-11.5 8t-5.5 20q0 2 0.5 4t0.5 3z" />
    <glyph glyph-name="b" unicode="b" horiz-adv-x="486" 
d="M7 690v-643q0 -21 12.5 -42.5t38.5 -21.5h212q223 0 223 226q0 52 -5 78q-9 44 -34 75q-9 10 -9 24q0 8 5 17q29 57 29 151q0 200 -213 200h-208q-26 0 -38.5 -21.5t-12.5 -42.5zM24 47v643q0 20 10 33.5t24 13.5h208q196 0 196 -183q0 -97 -27 -143q-8 -13 -6.5 -31
t12.5 -29q35 -35 35 -142q0 -209 -206 -209h-212q-14 0 -24 13.5t-10 33.5zM250 569h-24q-16 0 -16 -23v-72q0 -23 16 -23h25q23 0 33 14.5t10 46.5q0 57 -44 57zM228 468q0 1 -0.5 3t-0.5 3v72q0 4 1 6h22q16 0 21.5 -8.5t5.5 -31.5q0 -25 -5.5 -34.5t-20.5 -9.5h-23z
M253 292h-27q-16 0 -16 -24v-74q0 -9 4.5 -16t11.5 -7h27q28 0 37 13q10 10 10 47q0 34 -11 47.5t-36 13.5zM228 188q0 1 -0.5 3t-0.5 3v74l1 7h25q19 0 24.5 -8.5t5.5 -35.5q0 -28 -5 -35.5t-25 -7.5h-25z" />
    <glyph glyph-name="c" unicode="c" horiz-adv-x="426" 
d="M431 52v109q0 21 -14 42t-40 20q-73 -5 -89 -5q-31 0 -43 8.5t-20 37.5q-6 27 -6 59v63v54q2 27 7 43q12 36 63 36q15 0 43.5 -3t42.5 -3q26 0 39 18.5t14 41.5l3 109q1 19 -8.5 37.5t-29.5 25.5q-67 23 -142 23q-147 0 -201 -88q-53 -84 -53 -309q0 -155 23 -239
q23 -88 77 -125.5t145 -37.5q92 0 153 22q36 13 36 61zM414 161v-109q1 -16 -6.5 -29t-18.5 -16q-67 -21 -147 -21q-79 0 -131 31t-75 119q-22 85 -22 235q0 218 50 300q49 80 187 80q60 0 136 -22q27 -7 27 -47l-3 -108q0 -20 -10.5 -32t-25.5 -12q-45 6 -86 6
q-56 0 -71 -29q-16 -29 -16 -121q0 -94 7 -126q9 -38 27 -48.5t52 -10.5l90 5q15 1 25 -12t11 -33z" />
    <glyph glyph-name="d" unicode="d" horiz-adv-x="523" 
d="M57 -17h201q69 0 119.5 25t78.5 62t44.5 93t21.5 104.5t5 109.5q0 63 -5.5 112t-23 101t-47 86t-81 56t-120.5 22h-193q-26 0 -38 -20.5t-12 -41.5v-647q0 -21 12 -41.5t38 -20.5zM258 0h-201q-14 0 -23.5 13t-9.5 32v647q0 19 9.5 32t23.5 13h193q137 0 198.5 -85.5
t61.5 -274.5t-58.5 -283t-193.5 -94zM323 364q0 99 -15 132t-66 33q-13 0 -22.5 -13t-9.5 -32v-231q0 -19 9.5 -32t22.5 -13q27 0 44.5 11t25 35t9.5 47t2 63zM304 430q2 -25 2 -66q0 -32 -1 -50q0 -28 -7 -46q-13 -43 -56 -43q-5 0 -10 8t-5 20v231q0 12 5 20t10 8
q39 0 51 -23q8 -19 11 -59z" />
    <glyph glyph-name="e" unicode="e" horiz-adv-x="439" 
d="M7 706v-674q0 -16 9.5 -32.5t30.5 -16.5h356q21 0 30.5 17t9.5 32v141q0 15 -10 31.5t-30 16.5h-171l-2 3q-3 4 -3 11q0 9 3 15l3 3h102q20 0 30 16.5t10 31.5v139q0 39 -36 48q-9 2 -29 2q-8 0 -28 -2l-26 -3q-9 0 -19 2t-10 16q0 6 3 11l3 3h170q20 0 30 16.5t10 31.5
v141q0 15 -10 31.5t-30 16.5h-356q-21 0 -30.5 -16t-9.5 -32zM24 32v674q0 13 6.5 22t16.5 9h356q9 0 16 -9t7 -22v-141q0 -13 -7 -22t-16 -9h-170q-10 0 -16.5 -9.5t-6.5 -21.5q0 -14 6.5 -23t16.5 -9h102q9 0 16 -9t7 -22v-139q0 -13 -7 -22t-16 -9h-102q-10 0 -16.5 -9.5
t-6.5 -21.5v-4q0 -13 6.5 -22t16.5 -9h170q9 0 16 -9.5t7 -21.5v-141q0 -13 -7 -22.5t-16 -9.5h-356q-10 0 -16.5 9t-6.5 23z" />
    <glyph glyph-name="f" unicode="f" horiz-adv-x="417" 
d="M378 754h-321q-25 0 -37.5 -21t-12.5 -41v-646q0 -20 12.5 -41.5t37.5 -21.5h120q25 0 37.5 21.5t12.5 41.5v207h108q20 0 30 16.5t10 31.5v139q0 39 -36 48q-9 2 -28 2q-9 0 -29 -2l-26 -3q-9 0 -19 2q-10 3 -10 16q0 5 2 9h149q24 0 36.5 21.5t12.5 40.5v118
q0 19 -12.5 40.5t-36.5 21.5zM57 737h321q13 0 22.5 -13.5t9.5 -31.5v-118q0 -18 -9.5 -31.5t-22.5 -13.5h-156q-12 -9 -12 -26q0 -14 6.5 -23t16.5 -9h102q9 0 16 -9t7 -22v-139q0 -13 -7 -22t-16 -9h-125v-224q0 -19 -10 -32.5t-23 -13.5h-120q-13 0 -23 13.5t-10 32.5
v646q0 18 10 31.5t23 13.5z" />
    <glyph glyph-name="g" unicode="g" horiz-adv-x="495" 
d="M491 63v328q0 20 -12 39.5t-37 19.5h-135q-25 0 -36.5 -19.5t-11.5 -39.5l1 -103q0 -33 24 -46q-3 -16 -3 -17q-1 -5 -4 -8q-1 -1 -3 -1q-38 0 -49 49q-5 21 -7 50v48v18.5v22.5v19q0 35 5 57q5 27 25 34q9 4 25 4q11 1 33 1t64.5 -5t63.5 -5q27 0 40 20t13 43v106
q0 46 -37 61q-30 12 -88.5 20.5t-95.5 8.5q-53 0 -94.5 -13t-69 -33t-48 -52.5t-31 -64t-17 -75.5t-8 -78.5t-1.5 -81.5t1 -79.5t7 -77.5t16 -75.5t29.5 -64.5t46.5 -54t68.5 -33t93.5 -13q39 0 96.5 8t93.5 18q21 6 31.5 25t10.5 39zM474 391v-328q0 -17 -8.5 -30.5
t-21.5 -17.5q-128 -25 -185 -25q-61 0 -104.5 17t-70.5 46.5t-42.5 78.5t-21.5 105t-6 133q0 201 54.5 291t197.5 90q70 0 173 -27l5 -1q26 -10 26 -45v-106q0 -21 -10.5 -33.5t-25.5 -12.5q-98 10 -128 10q-48 0 -63 -6q-12 -5 -18 -9t-11.5 -13.5t-7.5 -24.5
q-5 -29 -5 -120q0 -38 1.5 -59.5t8 -49.5t22 -41.5t41.5 -13.5q11 1 19 12t8 27v17q-10 0 -17 9.5t-7 23.5l-1 103q0 18 9 30t22 12h135q14 0 23 -12t9 -30z" />
    <glyph glyph-name="h" unicode="h" horiz-adv-x="524" 
d="M227 214q3 26 15 26h27q10 0 18 -2q10 -5 10 -25v-169q0 -20 12 -40.5t37 -20.5h122q25 0 37 20.5t12 40.5v649q0 20 -12 40.5t-37 20.5h-122q-40 0 -49 -57q-2 -14 -2 -46q0 -17 2 -51q4 -68 0 -90q-3 -28 -15 -28h-27q-9 0 -17 2q-11 4 -11 25v184q0 20 -12 40.5
t-37 20.5h-122q-25 0 -37 -20.5t-12 -40.5v-649q0 -20 12 -40.5t37 -20.5h122q41 0 48 55q3 19 3 44q-1 8 -1.5 23.5t-0.5 23.5q-4 59 0 85zM314 44v169q0 19 -9 31.5t-23 12.5h-40q-14 0 -23 -12.5t-9 -31.5v-169q0 -18 -9.5 -31t-22.5 -13h-122q-13 0 -22.5 13t-9.5 31
v649q0 18 9.5 31t22.5 13h122q13 0 22.5 -13t9.5 -31v-184q0 -18 9.5 -31t22.5 -13h40q13 0 22.5 13t9.5 31v184q0 18 9.5 31t22.5 13h122q13 0 22.5 -13t9.5 -31v-649q0 -18 -9.5 -31t-22.5 -13h-122q-13 0 -22.5 13t-9.5 31z" />
    <glyph glyph-name="i" unicode="i" horiz-adv-x="234" 
d="M7 694v-650q0 -20 11.5 -40.5t36.5 -20.5h123q25 0 37 20.5t12 40.5v650q0 19 -12.5 39.5t-36.5 20.5h-123q-24 0 -36 -20.5t-12 -39.5zM24 44v650q0 17 9 30t22 13h123q13 0 22.5 -13t9.5 -30v-650q0 -18 -9.5 -31t-22.5 -13h-123q-13 0 -22 13t-9 31z" />
    <glyph glyph-name="j" unicode="j" horiz-adv-x="296" 
d="M64 216l-1 -1q-1 -1 -4 -1q-15 0 -24 -2q-44 -7 -44 -62v-117q0 -21 12.5 -42.5t38.5 -21.5h44q115 0 160 54.5t45 171.5v500q0 19 -11.5 39t-35.5 20h-125q-24 0 -35.5 -20t-11.5 -39v-341q0 -61 -1 -78q0 -26 -3 -44l-3 -14zM119 737h125q13 0 21.5 -12.5t8.5 -29.5
v-500q0 -46 -5.5 -80.5t-19 -56.5t-27.5 -35.5t-38.5 -21t-44.5 -10.5t-53 -5h-44q-14 0 -24 13.5t-10 33.5v117q0 20 10 33.5t24 13.5h24q6 0 10 7q6 4 7 13q3 15 3 27q3 32 3 110v341q0 17 8.5 29.5t21.5 12.5z" />
    <glyph glyph-name="k" unicode="k" horiz-adv-x="487" 
d="M228 495q-1 2 -1 7v210q0 14 -8.5 28t-27.5 14h-149q-19 0 -27 -14.5t-8 -27.5v-687q0 -13 8 -27.5t27 -14.5h149q19 0 27.5 14t8.5 28v195q0 6 3 7q0 -1 1 -2l55 -212q2 -10 11 -20t23 -10h148q19 0 27.5 15t8.5 28q0 2 -0.5 6t-0.5 6q-1 2 -18 67.5t-29 113.5
q-38 154 -38 162q0 11 35 151l42 168q0 2 0.5 6t0.5 6q0 14 -8.5 28t-27.5 14h-145q-27 0 -34 -31l-52 -225q0 -2 -1 -3zM210 220v-195q0 -11 -5.5 -18t-13.5 -7h-149q-8 0 -13 7.5t-5 17.5v687q0 10 5 17.5t13 7.5h149q8 0 13.5 -7t5.5 -18v-210q0 -11 5 -18.5t13 -7.5
q13 0 18 18l52 225q4 18 17 18h145q10 0 15.5 -10t2.5 -23l-76 -316q-2 -8 0 -15l84 -339q3 -12 -2.5 -23t-15.5 -11h-148q-11 0 -18 17l-55 212q-5 16 -17 16h-2q-8 0 -13 -7.5t-5 -17.5z" />
    <glyph glyph-name="l" unicode="l" horiz-adv-x="391" 
d="M58 -17h292q26 0 38.5 21t12.5 42v116q0 48 -39 61q-15 4 -33 4q-11 0 -33 -2t-31 -2q-14 0 -23 3q-15 4 -15 28v437q0 20 -13 41.5t-38 21.5h-118q-26 0 -38.5 -21t-12.5 -42v-645q0 -21 12.5 -42t38.5 -21zM350 0h-292q-14 0 -24 13.5t-10 32.5v645q0 19 10 32.5
t24 13.5h118q14 0 24 -13.5t10 -32.5v-437q0 -19 10 -32.5t23 -13.5h107q14 0 24 -13.5t10 -32.5v-116q0 -19 -10 -32.5t-24 -13.5z" />
    <glyph glyph-name="m" unicode="m" horiz-adv-x="684" 
d="M227 167l15 -123q2 -18 15 -35.5t35 -17.5h99q22 0 35 17.5t15 35.5l16 128v-126q0 -20 13 -41.5t38 -21.5h118q26 0 38.5 21t12.5 42v645q0 21 -12.5 42t-38.5 21h-222q-34 0 -46 -39q-8 -21 -10 -63t-5 -58q-1 -5 -3 -11l-4 12q-1 5 -6 57q-4 46 -11 64q-13 38 -46 38
h-215q-26 0 -38.5 -21t-12.5 -42v-645q0 -21 12.5 -42t38.5 -21h118q25 0 38 21.5t13 41.5v121zM24 46v645q0 19 10 32.5t24 13.5h215q26 0 33 -36l16 -118q4 -19 18 -19q15 0 18 20l13 115q2 16 11.5 27t21.5 11h222q14 0 24 -13.5t10 -32.5v-645q0 -19 -10 -32.5
t-24 -13.5h-118q-14 0 -24 13.5t-10 32.5v334h-8l-42 -334q-2 -16 -11.5 -27t-21.5 -11h-99q-12 0 -21.5 11t-11.5 27l-41 334h-8v-334q0 -19 -10 -32.5t-24 -13.5h-118q-14 0 -24 13.5t-10 32.5z" />
    <glyph glyph-name="n" unicode="n" horiz-adv-x="550" 
d="M227 220l92 -203q15 -34 44 -34h130q25 0 37.5 21.5t12.5 41.5v645q0 20 -12.5 41.5t-37.5 21.5h-119q-39 0 -48 -49q-6 -28 -2 -82q2 -68 2 -76q0 -3 -0.5 -8.5t-1.5 -7.5l-93 191q-14 32 -44 32h-129q-26 0 -38.5 -21t-12.5 -42v-645q0 -21 12.5 -42t38.5 -21h118
q39 0 50 52q6 29 2 87q0 11 -1 28.5t-1.5 30.5t-0.5 23q0 8 2 16zM24 46v645q0 19 10 32.5t24 13.5h129q19 0 29 -22l94 -195q7 -10 14 -10t12 6t5 16v159q0 19 10 32.5t23 13.5h119q13 0 23 -13.5t10 -32.5v-645q0 -19 -10 -32.5t-23 -13.5h-130q-21 0 -29 24l-94 208
q-4 11 -14 11q-6 0 -11 -6.5t-5 -16.5v-174q0 -19 -10 -32.5t-24 -13.5h-118q-14 0 -24 13.5t-10 32.5z" />
    <glyph glyph-name="o" unicode="o" horiz-adv-x="536" 
d="M269 -31q70 0 121.5 25.5t79.5 63t44.5 94.5t21 106t4.5 111q0 51 -3.5 92.5t-12.5 90.5t-28.5 85t-48 67t-74.5 47.5t-105 16.5q-70 0 -121.5 -25t-80 -62.5t-45 -94t-21 -105.5t-4.5 -111q0 -43 2 -79t9.5 -78.5t19 -76t32.5 -66t49 -54t69 -34.5t92 -13zM523 369
q0 -193 -58.5 -288t-195.5 -95t-196.5 95t-59.5 289q0 193 58.5 287t196.5 94t196.5 -94t58.5 -288zM200 369q0 -91 14 -135q12 -41 55 -41q41 0 54 40t13 137q0 95 -13 135q-12 40 -54 40q-43 0 -55 -41q-14 -44 -14 -135zM217 320v49v49q2 37 6 55q12 55 46 55
q35 0 45 -55q5 -30 5 -55v-48v-13.5v-18.5v-17q0 -25 -5 -55q-11 -56 -45 -56t-46 55q-4 18 -6 55z" />
    <glyph glyph-name="p" unicode="p" horiz-adv-x="490" 
d="M49 -17h136q31 0 40 38q0 1 3 28q0 4 -0.5 14.5t-0.5 15.5q-2 33 1 49q1 8 4 11h2q77 0 129.5 21.5t80.5 65t39.5 96.5t11.5 128q0 154 -55.5 229t-205.5 75h-185q-22 0 -32 -17.5t-10 -33.5v-669q0 -16 10 -33.5t32 -17.5zM234 156q-10 0 -17 -10t-7 -24v-88
q0 -14 -7.5 -24t-17.5 -10h-136q-10 0 -17.5 10t-7.5 24v669q0 14 7.5 24t17.5 10h185q62 0 104.5 -12.5t75.5 -43.5t48.5 -88t15.5 -143q0 -166 -59 -230t-185 -64zM226 536h-16v-178h16q35 0 49.5 21.5t14.5 70.5q0 50 -14 68t-50 18zM227 375v144q29 0 37.5 -14t8.5 -55
q0 -40 -9 -57.5t-37 -17.5z" />
    <glyph glyph-name="q" unicode="q" horiz-adv-x="534" 
d="M266 768q-51 0 -92 -13t-69 -34t-48.5 -53.5t-32 -65t-18 -75.5t-8.5 -78.5t-2 -79.5q0 -52 3 -93t12 -90t28 -85t47.5 -67.5t74.5 -48t105 -16.5q12 0 21 -18l44 -89q17 -35 51 -35q19 0 30 8l28 18q27 19 30 22q35 29 35 71q0 13 -6 31q-5 15 -12 26q-13 32 -13 44
q0 14 7 28q57 113 57 281q0 46 -1.5 81t-8 80t-17.5 78.5t-31.5 67.5t-48.5 56t-70 35.5t-95 13.5zM266 -14q-138 0 -195.5 94t-57.5 289q0 196 57 289t196 93q143 0 199 -96t56 -299q0 -180 -55 -273q-20 -33 -2 -71l16 -33q11 -23 6 -49t-23 -39l-61 -42q-12 -5 -20 -5
q-24 0 -36 26l-44 89q-13 27 -36 27zM195 369q0 -29 0.5 -47t4.5 -45.5t11 -43.5t21 -28t34 -12q42 0 54 41q14 39 14 136q0 95 -14 134q-12 41 -54 41q-20 0 -34 -12t-21 -28t-11 -43.5t-4.5 -45.5t-0.5 -47zM212 321v48v48q2 33 7 55q12 56 47 56t45 -55q4 -18 6 -55v-48
v-48q-2 -38 -6 -56q-11 -56 -45 -56q-35 0 -47 56q-5 22 -7 55z" />
    <glyph glyph-name="r" unicode="r" horiz-adv-x="494" 
d="M232 172q1 1 4 1q0 -1 1 -2q4 -4 7 -15q4 -11 10 -63q2 -24 4 -35q0 -5 6 -33q12 -42 42 -42h135q22 0 32 17t10 34q0 20 -7 52q-5 23 -14 55q-20 69 -20 99q0 7 4 14q52 78 52 216q0 146 -53 215t-195 69h-200q-23 0 -33 -17t-10 -35v-667q0 -18 10 -35t33 -17h134
q35 0 42 44q2 10 2 33q0 24 -1 36q-2 46 0 62q3 12 5 14zM235 190q-11 0 -18 -10t-7 -25v-120q0 -15 -7.5 -25t-18.5 -10h-134q-11 0 -18.5 10t-7.5 25v667q0 15 7.5 25t18.5 10h200q59 0 99 -11t71 -39.5t46 -82t15 -134.5q0 -140 -49 -207q-11 -14 -6 -33l39 -186
q4 -16 -3.5 -30t-20.5 -14h-135q-21 0 -24 28l-23 135q-1 12 -8.5 19.5t-15.5 7.5zM234 392h20q40 0 40 71q0 73 -44 73h-16q-10 0 -17.5 -10.5t-7.5 -24.5v-74q0 -15 7 -25t18 -10zM254 409h-20q-8 0 -8 18v74q0 18 8 18h16q15 0 21 -15q6 -13 6 -41q0 -25 -5 -40
q-6 -14 -18 -14z" />
    <glyph glyph-name="s" unicode="s" horiz-adv-x="462" 
d="M451 581q2 64 2 96q0 22 -10.5 42t-33.5 27q-70 22 -184 22q-69 0 -115 -19.5t-70.5 -58t-34 -85.5t-9.5 -112q0 -121 45 -178q43 -55 161 -82q2 0 6 -1t10.5 -2t10.5 -2q2 -1 15 -4q2 -1 5 -1q1 -1 1 -3q0 -3 -4 -5q-8 -3 -20 -3q-46 0 -114 9q-8 1 -24 5q-24 3 -27 3
q-26 0 -40.5 -21.5t-15.5 -43.5q-4 -64 -4 -96q0 -54 41 -70q77 -30 200 -30q126 0 177.5 71t51.5 199q0 124 -39 174t-157 85q-2 1 -16.5 4.5t-23.5 7.5q-11 5 -15 9q-1 1 -2 3l-1 1q4 2 12 3t22.5 0t16.5 -1q40 0 81 -6q3 0 10 -1.5t9 -1.5q16 -2 23 -2q29 0 44 21t16 47z
M436 677l-2 -96q-1 -24 -13 -37.5t-30 -13.5q-74 11 -123 11q-51 0 -60 -3q-8 -4 -8 -17q0 -12 10 -18q8 -7 60 -22q28 -8 40.5 -12.5t40 -17t42.5 -25t31 -34.5t22 -49q8 -42 8 -105q0 -139 -53.5 -196t-158.5 -57q-108 0 -194 29q-13 4 -21.5 19.5t-8.5 34.5l4 95
q2 20 13 34.5t26 14.5q96 -17 165 -17q41 0 41 25q0 11 -9 17q-9 4 -52 13q-112 24 -152 76q-41 50 -41 167q0 145 51 201.5t161 56.5q83 0 178 -21h1q14 -3 23 -18.5t9 -34.5z" />
    <glyph glyph-name="t" unicode="t" horiz-adv-x="415" 
d="M-10 684v-103q0 -23 6.5 -37.5t19.5 -21t21.5 -8t24.5 -2.5q12 0 18 -1q5 -1 11 -4q10 -7 10 -31v-424q0 -23 13 -46t41 -23h111q28 0 41 23.5t13 45.5v424q0 24 9 30q2 2 10 4q12 2 17 2q14 1 23 3t21 8.5t18 21t6 36.5v103q0 23 -13 46.5t-41 23.5h-324
q-29 0 -42.5 -23t-13.5 -47zM7 581v103q0 22 11 37.5t28 15.5h324q15 0 26 -15.5t11 -37.5v-103q0 -22 -11 -37t-26 -15h-29q-16 0 -27 -15.5t-11 -37.5v-424q0 -22 -11 -37t-26 -15h-111q-16 0 -26.5 15t-10.5 37v424q0 22 -11 37.5t-27 15.5h-34q-16 0 -27.5 15t-11.5 37z
" />
    <glyph glyph-name="u" unicode="u" horiz-adv-x="513" 
d="M169 754h-110q-28 0 -41.5 -23t-13.5 -46v-421q0 -146 55.5 -220.5t197.5 -74.5t197 76.5t55 222.5v417q0 23 -13.5 46t-41.5 23h-110q-28 0 -41.5 -23t-13.5 -46v-431q0 -25 -6.5 -33t-25.5 -8q-20 0 -27 8.5t-7 32.5v431q0 23 -13 46t-41 23zM59 737h110q16 0 26.5 -15
t10.5 -37v-431q0 -33 13 -45.5t38 -12.5t37 12.5t12 45.5v431q0 22 11 37t27 15h110q16 0 27 -15t11 -37v-417q0 -157 -58 -219.5t-177 -62.5q-120 0 -178 60.5t-58 217.5v421q0 22 11 37t27 15z" />
    <glyph glyph-name="v" unicode="v" horiz-adv-x="478" 
d="M239 378l-27 314q-2 22 -15.5 42t-38.5 20h-117q-28 0 -42 -23t-14 -46q0 -3 0.5 -7t0.5 -7l94 -632q3 -19 17 -37.5t37 -18.5h212q24 0 37 18.5t16 38.5l91 632q0 1 0.5 5t0.5 6q0 24 -13.5 47.5t-42.5 23.5h-117q-25 0 -38.5 -20t-15.5 -42zM473 674l-91 -632
q-2 -18 -12.5 -30t-23.5 -12h-212q-13 0 -23.5 12t-13.5 30l-94 632q-4 25 8 44t30 19h117q14 0 24.5 -13t12.5 -33l38 -434h14l34 434q2 20 12.5 33t24.5 13h117q18 0 29.5 -19t8.5 -44z" />
    <glyph glyph-name="w" unicode="w" horiz-adv-x="732" 
d="M363 233l11 -186q1 -22 15.5 -43t40.5 -21h201q25 0 39 20t16 42l51 633v6q0 23 -13.5 46.5t-41.5 23.5h-108q-26 0 -39.5 -21.5t-14.5 -43.5l-9 -265l-22 257q-2 22 -16 42t-39 20h-134q-25 0 -39 -20t-16 -42l-21 -276l-15 285q-1 22 -15 43t-40 21h-107
q-27 0 -40.5 -23t-13.5 -46v-7l54 -633q2 -22 16 -42t39 -20h196q27 0 40 21t14 43zM64 46l-54 633q-2 23 9 40.5t28 17.5h107q15 0 25.5 -14t12.5 -34l23 -432h15l32 423q2 20 12.5 33t25.5 13h134q15 0 25.5 -13t12.5 -33l36 -423h14l15 431q1 20 11.5 34.5t25.5 14.5h108
q17 0 28.5 -17.5t9.5 -40.5l-51 -633q-1 -19 -12.5 -32.5t-25.5 -13.5h-201q-15 0 -26 14t-13 34l-23 405l-8 1l-25 -406q-1 -20 -11.5 -34t-25.5 -14h-196q-15 0 -25.5 13t-12.5 33z" />
    <glyph glyph-name="x" unicode="x" horiz-adv-x="466" 
d="M245 633q-5 -11 -10 -11q-2 0 -3 1q-4 4 -6 9q-5 12 -10 42q-1 9 -5 25t-7 24q-14 31 -41 31h-127q-23 0 -34 -18t-11 -37q0 -11 3 -20l73 -246q11 -39 11 -77q0 -42 -12 -81l-70 -216q-3 -9 -3 -20q0 -18 11 -37t34 -19h125q27 0 39 27q5 12 8 22q0 3 1.5 10.5t2.5 11.5
q1 5 3 13t3.5 13t3.5 9q4 8 8 8t8 -8q3 -7 9 -35q1 -8 5 -22q1 -10 7 -21q12 -28 38 -28h130q23 0 34 19t11 37q0 8 -3 19l-75 265q-7 25 -7 58q0 36 10 67l76 230q3 10 3 21q0 18 -10.5 36.5t-33.5 18.5h-121q-26 0 -41 -30q-6 -13 -8 -24l-6 -25q-7 -30 -13 -42zM190 711
l19 -80q6 -26 26 -26q18 0 26 23l26 86q8 23 26 23h121q15 0 23 -17.5t2 -36.5l-76 -230q-22 -67 -3 -135l75 -265q5 -19 -3 -36t-23 -17h-130q-19 0 -26 26l-15 62q-6 26 -26 26t-26 -26l-16 -62q-7 -26 -27 -26h-125q-15 0 -23.5 17.5t-2.5 36.5l70 216q27 85 1 168
l-73 246q-6 19 2.5 36t23.5 17h127q20 0 27 -26z" />
    <glyph glyph-name="y" unicode="y" horiz-adv-x="472" 
d="M166 -17h139q22 0 31 17t9 33q0 18 -2 106q0 82 3 94q33 99 77 243q67 213 67 229t-10 32.5t-31 16.5h-143q-24 0 -39 -33q-3 -8 -7 -26t-5 -27q-5 -33 -11 -47q-1 -3 -4 -7l-2 -4q-2 0 -3 1q-4 8 -5 11q-7 15 -10 46q-1 5 -2.5 14t-2.5 13q-4 18 -7 25q-10 34 -38 34
h-144q-21 0 -31.5 -17t-10.5 -33q0 -17 65 -228q44 -144 76 -244q2 -10 2 -93l-2 -106q0 -17 9.5 -33.5t31.5 -16.5zM305 0h-139q-10 0 -17 9.5t-7 23.5v191q0 9 -1 13l-138 455q-5 17 2.5 31t20.5 14h144q17 0 22 -23l22 -98q6 -23 24 -23q16 0 22 23l24 99q5 22 22 22h143
q13 0 20 -14.5t2 -30.5l-141 -454q-2 -10 -2 -14v-191q0 -14 -6.5 -23.5t-16.5 -9.5z" />
    <glyph glyph-name="z" unicode="z" horiz-adv-x="455" 
d="M175 512l-168 -295q-9 -16 -9 -33v-142q0 -20 11.5 -39.5t36.5 -19.5h363q24 0 35.5 20t11.5 39v124q0 19 -11.5 39t-35.5 20h-125l164 285q8 13 8 33v152q0 19 -11.5 39t-35.5 20h-363q-25 0 -36.5 -19.5t-11.5 -39.5v-124q0 -20 11.5 -39.5t36.5 -19.5h129zM15 571v124
q0 17 9 29.5t22 12.5h363q13 0 21.5 -12.5t8.5 -29.5v-152q0 -15 -6 -25l-167 -291v-19h143q13 0 21.5 -12.5t8.5 -29.5v-124q0 -17 -8.5 -29.5t-21.5 -12.5h-363q-13 0 -22 12.5t-9 29.5v142q0 13 7 25l171 301v19h-147q-13 0 -22 12.5t-9 29.5z" />
    <glyph glyph-name="braceleft" unicode="{" horiz-adv-x="289" 
d="M238 481q0 15 -1.5 44.5t-1.5 44.5q0 31 7 40q2 5 10 8l11 3q11 5 14 8q15 12 15 41v131q0 18 -10 35t-33 17q-121 0 -175 -45.5t-54 -165.5q0 -32 4.5 -94.5t5.5 -72.5q0 -3 -1 -7v-1l-1 -1l-2 -2l-6 -4q-25 -18 -25 -49v-135q0 -18 9 -30q1 -2 8 -9l7 -6q5 -4 8 -8
q3 -6 3 -14q0 -28 -5 -83.5t-5 -83.5q0 -116 57 -161t172 -45q22 0 32.5 17.5t10.5 34.5v132q0 28 -15 40q-3 3 -14 8q-6 2 -10 4q-7 3 -11 9q-7 12 -7 43q0 18 1.5 54t1.5 54q0 47 -11 81l-6 14q-1 1 -3.5 5t-3.5 5q-4 8 -4 16t4 15l7 10l7 14q10 27 10 89zM218 570l3 -89
q0 -56 -9 -83q-4 -10 -12 -21t-8 -25t8 -24q9 -12 11 -21q10 -24 10 -75l-3 -108q0 -40 11 -56q10 -10 25 -14q9 -2 15 -12t6 -22v-132q0 -15 -7.5 -25t-18.5 -10q-38 1 -62.5 3.5t-56 13t-49.5 30t-31 55.5t-13 87q0 34 5 89t5 78q0 27 -20 37q-15 10 -15 30v135
q0 25 15 33q20 10 20 32l-10 166q0 93 30 132q35 42 83 53q34 7 99 9q11 1 18.5 -9.5t7.5 -25.5v-131q0 -30 -21 -35q-18 -3 -25 -12q-11 -14 -11 -53z" />
    <glyph glyph-name="bar" unicode="|" horiz-adv-x="229" 
d="M10 746v-961q0 -14 9 -29t28 -15h135q19 0 28 15t9 29v961q0 14 -9 29t-28 15h-135q-19 0 -28 -15t-9 -29zM27 -215v961q0 11 6 19t14 8h135q8 0 14 -8t6 -19v-961q0 -11 -6 -19t-14 -8h-135q-8 0 -14 8t-6 19z" />
    <glyph glyph-name="braceright" unicode="}" horiz-adv-x="287" 
d="M49 206q0 -15 1.5 -44.5t1.5 -44.5q0 -31 -7 -40q-2 -5 -10 -8q-6 -1 -11 -4q-8 -2 -14 -8q-15 -14 -15 -42v-128q0 -18 10.5 -36t33.5 -18q119 0 173.5 46t54.5 165q0 32 -4.5 94.5t-5.5 72.5q0 3 1 7v1l3 3q1 1 3 2.5t3 2.5q25 18 25 48v130q0 33 -24 50l-5 5l-3 3
q-3 6 -3 14q0 28 5 84t5 84q0 114 -56.5 160t-171.5 46q-22 0 -33 -18t-11 -35v-130q0 -28 15 -40q5 -5 13 -9q6 -1 11 -4q7 -3 11 -10q7 -11 7 -43q0 -18 -1.5 -54t-1.5 -54q0 -47 11 -79q3 -9 6 -15q2 -4 6 -10q5 -10 5 -16t-5 -16l-6 -10q-1 -2 -2 -4.5l-2 -5t-2 -5.5
q-11 -32 -11 -87zM69 117l-3 89q0 55 10 82q3 11 10 20q8 10 8 25.5t-8 26.5q-7 9 -10 20q-10 27 -10 74l3 108q0 42 -11 56q-6 9 -24 15q-22 5 -22 35v130q0 14 8 25t19 11q129 -3 169 -50q42 -44 42 -139q0 -30 -4 -89q-6 -66 -6 -79q0 -26 20 -37q15 -8 15 -35v-130
q0 -24 -16 -33q-19 -10 -19 -32l10 -166q0 -94 -30 -131q-32 -42 -84 -53q-47 -9 -97 -10q-11 -1 -19 10t-8 27v128q0 30 22 37q19 5 25 12q10 13 10 53z" />
    <glyph glyph-name="asciitilde" unicode="~" 
d="M211 166q52 -25 83 -25q32 0 76.5 37t44.5 69q0 18 -8 56q-2 9 -6.5 27t-5.5 26q-3 12 -12.5 23t-24.5 11q-6 0 -10 -2q-4 0 -9 -3q-1 -1 -19 -8q-3 -1 -6 -2.5t-6.5 -2.5t-5.5 -2q-6 -3 -10 -3q-6 0 -19 6l-35 14q-54 23 -86 23q-46 0 -83 -39t-37 -85q0 -16 6 -48
q3 -11 10 -43q7 -34 35 -34q6 0 10 2q6 2 9 4q8 3 18 9q10 5 19 8t11 3q10 0 26 -6q6 -2 18.5 -7.5t16.5 -7.5zM294 158q-26 0 -79 24q-55 22 -65 22q-12 0 -60 -24q-6 -2 -7 -2q-15 0 -18 20l-14 69q-10 52 22 84q11 11 17 15q33 27 62 27q30 0 79 -21q53 -22 61 -22
q9 0 60 22q2 1 6 1q15 0 20 -20l20 -101q2 -17 -7 -26q-18 -21 -30 -33t-30.5 -23.5t-36.5 -11.5z" />
    <glyph glyph-name="exclamdown" unicode="&#xa1;" horiz-adv-x="232" 
d="M224 381v132q0 20 -11.5 40t-36.5 20h-120q-25 0 -36.5 -20t-11.5 -40v-132q0 -20 11.5 -40t36.5 -20h120q25 0 36.5 20t11.5 40zM207 513v-132q0 -19 -8.5 -31t-22.5 -12h-120q-14 0 -22.5 12t-8.5 31v132q0 18 9 30.5t22 12.5h120q13 0 22 -12.5t9 -30.5zM181 -199
q24 0 36 21t12 40l-10 384q0 18 -11.5 38t-35.5 20h-112q-24 0 -35.5 -20t-11.5 -38l-10 -384q0 -19 12 -40t36 -21h130zM202 246l10 -384q0 -18 -9 -31t-22 -13h-130q-13 0 -22 13t-9 31l10 384q0 16 9 28.5t21 12.5h112q12 0 21 -12.5t9 -28.5z" />
    <glyph glyph-name="sterling" unicode="&#xa3;" 
d="M59 328v-96q0 -3 -1 -6v-3l-1 -2q-1 0 -1 -1q-1 0 -2 -1q-3 0 -7 -2q-38 -8 -38 -46v-140q0 -15 10 -31.5t30 -16.5h276q7 0 40 5q30 7 36 8q17 3 25.5 18t8.5 29q0 28 -5 82t-5 62q-1 14 -11 28.5t-28 14.5q-6 0 -22 -2q-2 0 -9 -1.5t-11 -2.5q-20 -6 -34 -6h-51l-2 3
q-3 4 -3 11v96q0 9 2 11t4 2q4 2 12 2q12 0 18 -1q4 0 11.5 -0.5t10.5 -0.5q12 0 22 3q29 11 29 45q0 38 -27 50q-8 3 -24 5q-3 0 -10.5 -0.5t-11.5 -0.5q-12 -2 -19 -2q-6 0 -12 2q-3 0 -3 2q-2 0 -2 10q0 39 10.5 52t45.5 13q10 0 31.5 -1.5t32.5 -1.5q18 0 27.5 17
t9.5 29q3 129 3 130q0 25 -29 40q-22 11 -50 14q-42 7 -90 7q-49 0 -84 -16t-54.5 -39.5t-30.5 -60.5t-14 -69t-3 -76v-10.5v-15v-13.5q-1 -3 -5 -12q-21 0 -33 -14t-12 -34q0 -41 38 -52q3 0 7 -2l3 -1q1 -1 1 -2v-3q1 -3 1 -6zM76 232v96q0 12 -6.5 21.5t-15.5 9.5h-5
q-9 0 -16 9t-7 21v5q0 12 7 21.5t16 9.5h5q9 0 15.5 9t6.5 21v15q-2 107 19 167t56.5 79.5t93.5 20.5q77 0 131 -18l2 -1q9 -1 14.5 -10t4.5 -20l-3 -125q-1 -13 -8 -21.5t-16 -7.5q-9 0 -29.5 1.5t-30.5 1.5q-40 0 -56.5 -17t-16.5 -65q0 -12 6.5 -21t15.5 -9h65
q9 0 15.5 -9.5t6.5 -21.5v-5q0 -12 -6.5 -21t-15.5 -9h-65q-9 0 -15.5 -9.5t-6.5 -21.5v-96q0 -12 6.5 -21.5t15.5 -9.5h51l72 12q11 1 17.5 -6.5t8.5 -20.5l10 -139q1 -12 -5 -22.5t-15 -11.5l-73 -13h-276q-9 0 -16 9t-7 22v140q0 12 7 21t16 9h5q9 0 15.5 9.5t6.5 21.5z
" />
    <glyph glyph-name="yen" unicode="&#xa5;" horiz-adv-x="465" 
d="M422 554q-39 -115 -39 -138v-4h9h15q25 0 32 -34v-10v-11.5v-6.5q0 -6 -2 -14t-10 -16t-20 -8h-54l-2 -3q-2 -3 -8 -22q-4 -20 -6 -42h70q25 0 32 -34v-10v-11.5v-6.5q0 -31 -29 -38q-7 -2 -21 -2q-6 0 -20 2q-6 1 -17 1h-12l-2 -1q-1 -1 -1 -4v-120q0 -6 -2 -14t-10 -16
t-20 -8h-150q-17 0 -25 13t-8 25v120q0 3 -1 4h-67q-29 0 -32 33q-1 6 -1 18v11q0 12 8.5 25t24.5 13h69q0 3 -0.5 6.5t-0.5 4.5q0 8 -5 25q-1 4 -4.5 14.5t-4.5 16.5h-54q-29 0 -32 33q-1 6 -1 18v11q0 25 19 34q5 2 15 4h12h9h3l-1 2v2q0 25 -37 138q-3 9 -12.5 39.5
t-13.5 45.5q-12 43 -12 63q0 6 2 13.5t10 16t20 8.5h154q15 0 24 -13q6 -10 8 -21q4 -19 6 -49q2 -31 5 -43v-2q0 2 1 2q4 20 5 43q2 30 6 49q4 16 9 21q9 13 24 13h153q17 0 25 -13.5t8 -25.5q0 -16 -13 -62q-4 -13 -28 -85zM382 395q-9 0 -13.5 9t-1.5 20l78 270
q3 10 -2 19.5t-13 9.5h-153q-13 0 -15 -18l-15 -99q-1 -17 -15 -17t-15 17l-13 99q-4 18 -15 18h-154q-8 0 -12.5 -9.5t-1.5 -19.5l73 -270q3 -11 -1.5 -20t-12.5 -9h-26q-6 0 -11 -6.5t-5 -14.5v-24q0 -8 5 -14.5t11 -6.5h56q10 0 14 -13l14 -52q1 -2 1 -8v-18
q0 -10 -7 -10h-78q-6 0 -11 -6.5t-5 -14.5v-24q0 -8 5 -14.5t11 -6.5h70q15 0 15 -21v-120q0 -8 4.5 -14.5t11.5 -6.5h150q15 0 15 21v120q0 8 4.5 14.5t11.5 6.5h71q15 0 15 21v24q0 21 -15 21h-80q-7 0 -7 10v18q0 4 2 8l13 52q6 13 15 13h57q15 0 15 21v24q0 21 -15 21
h-25z" />
    <glyph glyph-name="dieresis" unicode="&#xa8;" horiz-adv-x="334" 
d="M5 749v-110q0 -13 8 -27t26 -14h94q18 0 26 14t8 27v110q0 13 -8 27t-26 14h-94q-18 0 -26 -14t-8 -27zM170 749v-110q0 -13 8.5 -27t26.5 -14h93q18 0 26.5 14t8.5 27v110q0 13 -8.5 27t-26.5 14h-93q-18 0 -26.5 -14t-8.5 -27zM22 639v110q0 10 5 17t12 7h94q7 0 12 -7
t5 -17v-110q0 -10 -5 -17t-12 -7h-94q-7 0 -12 7t-5 17zM187 639v110q0 10 5.5 17t12.5 7h93q7 0 12.5 -7t5.5 -17v-110q0 -10 -5.5 -17t-12.5 -7h-93q-7 0 -12.5 7t-5.5 17z" />
    <glyph glyph-name="copyright" unicode="&#xa9;" horiz-adv-x="478" 
d="M1 479q0 -54 13.5 -108.5t40 -106t75 -84t111.5 -32.5q50 0 91.5 21.5t67.5 56t43.5 78.5t25 87t7.5 84q0 53 -12.5 107.5t-38 106.5t-73.5 85t-111 33t-111.5 -32t-75 -83t-40 -105.5t-13.5 -107.5zM241 165q-97 0 -160 89.5t-63 224.5q0 134 62.5 222.5t160.5 88.5
q97 0 157.5 -90t60.5 -225q0 -134 -61 -222t-157 -88zM68 477q0 -103 48 -174.5t123 -71.5q74 0 122.5 71.5t48.5 173.5q0 103 -49 175.5t-123 72.5t-122 -72t-48 -175zM239 248q-49 0 -85.5 37t-52.5 87.5t-16 104.5q0 53 16 104t52 88.5t85 37.5t86 -37.5t53 -88.5
t16 -105q0 -85 -41 -156.5t-113 -71.5zM322 302q16 12 16 31q0 2 0.5 9.5t0.5 16t-1 16.5q0 16 -6 28q-8 20 -29 19q-30 -1 -46 0q-10 1 -13 4t-4 16q-1 11 -1 46v24q0 12 3 18q4 11 20 11q8 0 22.5 -1t21.5 -1q20 0 26 20q5 13 5 27q1 8 1 39q1 32 -42 45q-24 5 -51 5
q-84 0 -112 -66q-10 -27 -13 -62q-2 -21 -2 -65q0 -43 2 -64q2 -34 12 -62q26 -70 109 -70h23q20 2 29 4q16 3 29 12zM320 384l1 -51q0 -16 -12 -21q-35 -9 -68 -9q-66 0 -86 42.5t-20 136.5q0 96 22 136t88 40q29 0 63 -10q13 -4 13 -22l-2 -51q0 -9 -5 -14.5t-12 -4.5
q-28 2 -40 2q-26 0 -33 -15t-7 -55q0 -43 4 -58q3 -17 11 -22t25 -5l42 2q7 1 11.5 -5.5t4.5 -15.5z" />
    <glyph glyph-name="guillemotleft" unicode="&#xab;" horiz-adv-x="499" 
d="M209 244q-9 21 -9 34t9 34q4 8 12.5 23.5t11.5 20.5q18 29 26 46q13 28 13 48q0 32 -23 46l-80 50q-2 2 -6 4q-6 3 -13 3q-26 0 -38 -25l-113 -226q-5 -10 -5 -23v-13q2 -12 5 -17l112 -221q12 -24 37 -24q2 0 14 3q4 3 12 6l28 17q29 19 46 31q24 15 24 47q0 20 -13 48
q-9 20 -26 45q-3 6 -11.5 20.5t-12.5 22.5zM425 244q-9 21 -9 34t9 34q4 8 12.5 23.5t11.5 20.5q18 29 26 46q13 28 13 48q0 32 -23 46l-80 50q-2 2 -6 4q-6 3 -13 3q-26 0 -38 -25l-113 -226q-5 -10 -5 -23v-13q2 -12 5 -17l112 -221q11 -24 36 -24q2 0 14 3q5 1 13 6
q4 2 8.5 4.5t10 6.5t9.5 6q11 7 27 18t19 13q23 14 23 47q0 22 -12 49q-5 10 -26 45q-13 21 -24 42zM250 429l-63 -130q-9 -20 0 -42l63 -128q7 -14 3.5 -30.5t-14.5 -23.5l-81 -51q-4 -3 -10 -3q-14 0 -22 15l-112 221q-3 7 -3 16v6q0 7 3 15l113 226q8 16 23 16q6 0 10 -4
l80 -50q11 -7 14 -23t-4 -30zM466 429l-63 -130q-9 -20 0 -42l63 -128q7 -14 3.5 -30.5t-14.5 -23.5l-81 -51q-4 -3 -11 -3q-13 0 -21 15l-112 221q-3 7 -3 16v6q0 7 3 15l113 226q8 16 23 16q6 0 10 -4l80 -50q11 -7 14 -23t-4 -30z" />
    <glyph glyph-name="registered" unicode="&#xae;" horiz-adv-x="478" 
d="M1 479q0 -54 13.5 -108.5t40 -106t75 -84t111.5 -32.5q50 0 91.5 21.5t67.5 56t43.5 78.5t25 87t7.5 84q0 53 -12.5 107.5t-38.5 106.5t-74.5 85t-110.5 33q-63 0 -111 -32t-75 -83t-40 -105t-13 -108zM241 165q-97 0 -160 89.5t-63 224.5q0 134 62 222.5t160 88.5
q97 0 158 -90t61 -225q0 -134 -61 -222t-157 -88zM68 477q0 -101 49.5 -173.5t122.5 -72.5t121.5 72t48.5 173q0 102 -48.5 175t-122.5 73q-73 0 -122 -72.5t-49 -174.5zM147 663q39 44 92 44q49 0 85.5 -37.5t52.5 -89t16 -104.5q0 -79 -35 -146l-1 4q0 3 -2 11
q-1 4 -3 13.5t-3 13.5q-2 11 -6 27t-4 19v2q26 38 26 104q0 69 -27 104t-96 35h-92h-3zM235 396q-5 0 -8.5 -5t-3.5 -11v-55q0 -16 -11 -16h-62q-12 0 -12 16v305q0 16 12 16h92q55 0 81 -26q25 -27 25 -96q0 -63 -23 -95q-3 -3 -3 -15l19 -85q1 -8 -2.5 -14t-8.5 -6h-62
q-9 0 -12 11v2l-10 62q0 12 -11 12zM121 330q-36 66 -36 147t36 148v-295zM234 488h10q18 0 18 33t-20 33h-8q-11 0 -11 -16v-34q0 -16 11 -16zM240 505l-1 31h4q2 -8 2 -15q0 -12 -1 -16h-4zM239 318q9 -26 29 -26h62h2q-39 -44 -92 -44t-92 44h2h62q22 0 27 26z" />
    <glyph glyph-name="macron" unicode="&#xaf;" horiz-adv-x="354" 
d="M43 752v-107q0 -13 6 -25q10 -18 29 -18h202q19 0 29 18q6 12 6 25v107q0 13 -6 25q-10 18 -29 18h-202q-19 0 -29 -18q-6 -12 -6 -25zM60 645v107q0 11 5 18.5t13 7.5h202q8 0 13 -7.5t5 -18.5v-107q0 -11 -5 -18.5t-13 -7.5h-202q-8 0 -13 7.5t-5 18.5z" />
    <glyph glyph-name="degree" unicode="&#xb0;" 
d="M220 776q-48 0 -81 -31t-44.5 -70t-11.5 -81t12 -80.5t44.5 -69.5t80.5 -31q49 0 81.5 31t44 69.5t11.5 80.5t-11.5 81t-44.5 70t-81 31zM100 594q0 74 33 119.5t87 45.5t87 -45.5t33 -119.5t-33 -119t-87 -45q-53 0 -86.5 45.5t-33.5 118.5zM221 635q-13 0 -21 -11
t-8 -29q0 -19 8 -30t20 -11q14 0 22 11t8 29t-8 29.5t-21 11.5zM209 595q0 23 12 23t12 -24q0 -23 -13 -23q-4 0 -7 5q-4 7 -4 19z" />
    <glyph glyph-name="acute" unicode="&#xb4;" horiz-adv-x="666" 
d="M326 779h-144q-27 0 -34 -29q-2 -8 -7 -28.5t-7 -26.5q-10 -42 -10 -58q0 -13 8 -27t26 -14h108q20 0 30 18q2 4 14.5 24t20.5 33q12 20 19 36q2 3 4 8.5t3 6.5q3 8 3 16q0 13 -8 27t-26 14zM182 762h144q11 0 15.5 -14t-2.5 -25l-58 -101q-6 -9 -15 -9h-108q-9 0 -14 10
t-2 22l23 101q3 16 17 16z" />
    <glyph glyph-name="periodcentered" unicode="&#xb7;" horiz-adv-x="212" 
d="M-2 359v-169q0 -13 8 -27.5t27 -14.5h146q19 0 27 14.5t8 27.5v169q0 13 -8 27.5t-27 14.5h-146q-19 0 -27 -14.5t-8 -27.5zM15 190v169q0 10 5 17.5t13 7.5h146q8 0 13 -7.5t5 -17.5v-169q0 -10 -5 -17.5t-13 -7.5h-146q-8 0 -13 7.5t-5 17.5z" />
    <glyph glyph-name="guillemotright" unicode="&#xbb;" horiz-adv-x="499" 
d="M68 306q10 -23 10 -33q0 -11 -10 -34q-9 -18 -25 -43q-21 -37 -25 -46q-13 -26 -13 -48q0 -34 23 -48l79 -50q9 -7 20 -7q26 0 38 26l112 225q6 10 6 23q0 10 -1 14q0 6 -5 16l-111 221q-14 25 -37 25q-2 0 -14 -3l-12 -6l-29 -17q-14 -9 -45 -31q-24 -15 -24 -48
q0 -24 13 -48q12 -24 26 -45q3 -6 11.5 -20.5t12.5 -22.5zM284 306q10 -23 10 -33q0 -11 -10 -34q-9 -18 -25 -43q-21 -37 -25 -46q-13 -26 -13 -48q0 -34 23 -48l79 -50q9 -7 20 -7q26 0 38 26l112 225q6 10 6 23q0 10 -1 14q0 6 -5 16l-111 221q-14 25 -37 25q-2 0 -14 -3
l-12 -6l-29 -17q-14 -9 -45 -31q-24 -15 -24 -48q0 -24 13 -48q12 -24 26 -45q3 -6 11.5 -20.5t12.5 -22.5zM26 122l64 130q10 20 0 41l-64 129q-7 14 -3.5 30.5t15.5 23.5l80 51q6 3 11 3q15 0 22 -16l111 -221q4 -7 4 -16v-6q0 -8 -4 -15l-112 -225q-9 -17 -23 -17
q-6 0 -11 4l-79 50q-11 7 -14.5 23.5t3.5 30.5zM242 122l64 130q10 20 0 41l-64 129q-7 14 -3.5 30.5t15.5 23.5l80 51q6 3 11 3q15 0 22 -16l111 -221q4 -7 4 -16v-6q0 -8 -4 -15l-112 -225q-9 -17 -23 -17q-6 0 -11 4l-79 50q-11 7 -14.5 23.5t3.5 30.5z" />
    <glyph glyph-name="questiondown" unicode="&#xbf;" horiz-adv-x="377" 
d="M325 402v110q0 21 -12.5 41t-37.5 20h-117q-25 0 -37 -20.5t-12 -40.5v-110q0 -20 12 -40.5t37 -20.5h117q25 0 37.5 20t12.5 41zM308 512v-110q0 -19 -9.5 -31.5t-23.5 -12.5h-117q-14 0 -23 12.5t-9 31.5v110q0 18 9.5 31t22.5 13h117q14 0 23.5 -13t9.5 -31zM72 219
q-49 -50 -62 -90.5t-13 -118.5q0 -53 7.5 -92.5t26.5 -76.5t58 -56.5t97 -19.5q90 0 162 33q34 15 32 60v73q-2 29 -7 46q-4 12 -9 19q-8 12 -22 12q-5 0 -20 -3q-3 -1 -8.5 -2.5t-7.5 -1.5q-28 -4 -64 -4q-18 0 -24.5 5t-6.5 19q0 17 14 36q10 12 16 18l21 21q61 61 61 141
q0 31 -7 54q-12 43 -47 43h-102q-26 0 -43 -31q-18 -36 -24 -46q-13 -23 -28 -38zM14 10q0 77 13 116t57 81q31 31 55 88q10 22 28 22h102q37 0 37 -80q0 -47 -14.5 -74.5t-47.5 -60.5q-38 -39 -42 -48q-8 -13 -8 -33q0 -22 12 -31q10 -10 36 -10q55 0 100 11q7 1 12 -9
t6 -27l3 -98q1 -15 -5.5 -27.5t-16.5 -16.5q-77 -31 -155 -31q-90 0 -131 53t-41 175z" />
    <glyph glyph-name="multiply" unicode="&#xd7;" 
d="M146 531q4 9 0 17q-11 15 -28 15q-9 0 -17 -6l-9 -9l-73 -98q-8 -12 -8 -28q0 -18 16 -44q5 -7 15 -19l16 -19q6 -7 28 -34q10 -17 10 -25t-10 -25q-22 -27 -28 -34l-16 -19q-7 -7 -15 -19q-16 -26 -16 -44q0 -16 8 -28l72 -97q10 -15 27 -15q12 0 23 9q9 7 15 16
q3 4 8 11t6 9t6 9.5t7 12.5q16 27 25 38l10 12q1 0 2 -1q3 -2 10 -11q8 -10 26 -38q21 -33 28 -42q10 -12 16 -16q9 -9 22 -9q14 0 26 14l73 99q8 12 8 29q0 19 -16 43l-15 20q-3 3 -8.5 9t-7.5 9q-21 23 -29 34q-10 16 -10 24t10 24q4 5 29 35l16 18q5 7 15 19q16 26 16 44
q0 16 -8 28l-72 96q0 1 -0.5 2.5t-1.5 2.5q-11 13 -26 13q-11 0 -22 -9q-5 -4 -15 -16q-14 -19 -28 -42q-15 -24 -26 -40q-3 -3 -6 -6.5t-4 -4.5q-63 86 -74 86zM131 538l75 -103q5 -8 13 -8q9 0 13 8l76 103q5 8 13 8q7 0 13 -7v-2l73 -98q13 -18 0 -36l-76 -104
q-13 -18 0 -36l76 -103q13 -18 0 -37l-73 -99q-4 -7 -12 -7q-9 0 -12 6l-2 2l-76 102q-4 7 -13 7q-7 0 -13 -7l-75 -103q-4 -7 -13 -7q-8 0 -12 6q0 1 -1 2l-72 97q-13 19 0 36l75 105q13 18 0 36l-75 105q-13 18 0 36l73 98q5 8 12 8q9 0 13 -7v-1z" />
    <glyph glyph-name="divide" unicode="&#xf7;" 
d="M123 138v-99q0 -14 8.5 -29.5t28.5 -15.5h120q20 0 28.5 15.5t8.5 29.5v99q0 18 -11 32h80q20 0 28.5 15.5t8.5 29.5v132q0 14 -9 29t-28 15h-80q11 13 11 33v99q0 14 -9 29t-28 15h-120q-19 0 -28 -15t-9 -29v-99q0 -20 11 -33h-80q-19 0 -28 -15t-9 -29v-132
q0 -14 8.5 -29.5t28.5 -15.5h80q-11 -14 -11 -32zM140 424v99q0 11 6 19t14 8h120q8 0 14 -8t6 -19v-99q0 -12 -6 -20t-14 -8h-120q-8 0 -14 8t-6 20zM54 374h332q8 0 14 -8t6 -19v-132q0 -12 -6 -20t-14 -8h-332q-8 0 -14 8t-6 20v132q0 11 6 19t14 8zM140 39v99q0 11 6 19
t14 8h120q8 0 14 -8t6 -19v-99q0 -12 -6 -20t-14 -8h-120q-8 0 -14 8t-6 20z" />
    <glyph glyph-name="endash" unicode="&#x2013;" horiz-adv-x="448" 
d="M7 362v-166q0 -13 8 -27.5t27 -14.5h364q19 0 27 14.5t8 27.5v166q0 13 -8 27.5t-27 14.5h-364q-19 0 -27 -14.5t-8 -27.5zM24 196v166q0 10 5 17.5t13 7.5h364q8 0 13 -7.5t5 -17.5v-166q0 -10 -5 -17.5t-13 -7.5h-364q-8 0 -13 7.5t-5 17.5z" />
    <glyph glyph-name="quoteleft" unicode="&#x2018;" horiz-adv-x="222" 
d="M26 411h148q29 0 33 37q14 241 14 267q0 13 -7.5 26t-25.5 13h-111q-25 0 -32 -30q-1 -8 -5.5 -29.5t-11.5 -54t-12 -56.5q-24 -116 -24 -133q0 -13 8 -26.5t26 -13.5zM204 713l-14 -264q-2 -21 -16 -21h-148q-8 0 -13 9t-3 20l52 264q2 16 15 16h111q7 0 12 -7t4 -17z
" />
    <glyph glyph-name="quoteright" unicode="&#x2019;" horiz-adv-x="220" 
d="M191 754h-144q-19 0 -27 -16q-7 -11 -7 -23q-1 -22 -5.5 -80.5t-7 -103t-2.5 -79.5q0 -14 8.5 -27.5t26.5 -13.5h108q15 0 23.5 10.5t10.5 21.5q0 1 28 138q24 114 24 131q0 13 -9 27.5t-27 14.5zM15 454l15 260q0 10 5 16.5t12 6.5h144q9 0 14.5 -9.5t3.5 -21.5
l-51 -260q-4 -18 -17 -18h-108q-8 0 -13.5 7.5t-4.5 18.5z" />
    <glyph glyph-name="quotesinglbase" unicode="&#x201a;" horiz-adv-x="219" 
d="M195 207h-153q-31 0 -35 -39q-1 -24 -5.5 -86t-7 -108.5t-2.5 -84.5q0 -14 8.5 -27.5t26.5 -13.5h115q15 0 23.5 10.5t10.5 21.5q1 3 30 146q25 129 25 140q0 13 -9 27t-27 14zM9 -109l15 276q2 23 18 23h153q9 0 14.5 -9.5t3.5 -20.5l-54 -277q-3 -18 -17 -18h-115
q-8 0 -13.5 7.5t-4.5 18.5z" />
    <glyph glyph-name="quotedblleft" unicode="&#x201c;" horiz-adv-x="435" 
d="M242 411h147q17 0 25 13t9 25q14 241 14 265q0 13 -8 26.5t-26 13.5h-109q-15 0 -23.5 -10.5t-10.5 -21.5q-1 -5 -6 -29.5t-11 -53.5t-11 -55q-16 -74 -20 -104q12 185 12 234q0 13 -8 26.5t-26 13.5h-109q-28 0 -34 -32l-50 -261q0 -2 -0.5 -5.5t-0.5 -5.5
q0 -13 8.5 -26t25.5 -13h146q15 0 23 10t10 22q7 -32 33 -32zM207 712l-14 -262q-2 -22 -17 -22h-146q-9 0 -14 9t-2 21l50 261q3 18 17 18h109q7 0 12.5 -7.5t4.5 -17.5zM420 712l-14 -262q-2 -22 -17 -22h-147q-8 0 -13 9t-3 21l51 261q3 18 17 18h109q7 0 12.5 -7.5
t4.5 -17.5z" />
    <glyph glyph-name="quotedblright" unicode="&#x201d;" horiz-adv-x="433" 
d="M403 754h-142q-30 0 -36 -38q-1 14 -9.5 26t-25.5 12h-142q-18 0 -28 -16q-7 -11 -7 -24q-1 -23 -5.5 -80.5t-7 -101.5t-2.5 -79q0 -14 9 -28t27 -14h106q15 0 24 11t11 22l28 136q12 59 21 113q-13 -205 -13 -240q0 -13 8.5 -27.5t26.5 -14.5h107q15 0 24 11t11 22
l28 136q23 119 23 131q0 13 -8.5 28t-27.5 15zM15 455l15 258q0 10 5 17t13 7h142q9 0 14.5 -10t3.5 -22l-50 -258q-3 -19 -18 -19h-106q-8 0 -14 8t-5 19zM228 455l14 258q0 10 5.5 17t13.5 7h142q9 0 14.5 -10t3.5 -22l-50 -258q-3 -19 -18 -19h-107q-8 0 -13.5 8.5
t-4.5 18.5z" />
    <glyph glyph-name="quotedblbase" unicode="&#x201e;" horiz-adv-x="432" 
d="M397 207h-143q-29 0 -35 -38q-1 14 -9.5 26t-25.5 12h-142q-13 0 -21.5 -8t-11 -16t-3.5 -16q-1 -24 -5.5 -81t-6.5 -99.5t-2 -80.5q0 -12 8.5 -27t26.5 -15h107q15 0 24 11t11 22l28 136q12 59 21 113q-13 -203 -13 -239q0 -13 8 -28t27 -15h106q28 0 36 33l49 258
q0 1 0.5 5t0.5 6q0 13 -8.5 27t-26.5 14zM9 -91l14 257q0 10 5.5 17t13.5 7h142q9 0 14.5 -10t3.5 -22l-50 -258q-3 -19 -18 -19h-107q-8 0 -13.5 8.5t-4.5 19.5zM222 -91l14 257q0 10 5.5 17t12.5 7h143q9 0 14.5 -10t2.5 -22l-49 -258q-5 -19 -19 -19h-106q-8 0 -13.5 8.5
t-4.5 19.5z" />
    <glyph glyph-name="bullet" unicode="&#x2022;" horiz-adv-x="302" 
d="M24 426v-247q0 -13 8 -27.5t27 -14.5h183q19 0 27.5 14t8.5 28v247q0 14 -8.5 28t-27.5 14h-183q-19 0 -27 -14.5t-8 -27.5zM41 179v247q0 10 5 17.5t13 7.5h183q8 0 13.5 -7t5.5 -18v-247q0 -11 -5.5 -18t-13.5 -7h-183q-8 0 -13 7.5t-5 17.5z" />
    <glyph glyph-name="ellipsis" unicode="&#x2026;" horiz-adv-x="701" 
d="M5 194v-169q0 -13 8 -27.5t27 -14.5h146q19 0 27 14.5t8 27.5v169q0 13 -8 27.5t-27 14.5h-146q-19 0 -27 -14.5t-8 -27.5zM242 194v-169q0 -14 8.5 -28t27.5 -14h145q19 0 27.5 14t8.5 28v169q0 14 -8.5 28t-27.5 14h-145q-19 0 -27.5 -14t-8.5 -28zM480 194v-169
q0 -13 8 -27.5t27 -14.5h146q19 0 27 14.5t8 27.5v169q0 13 -8 27.5t-27 14.5h-146q-19 0 -27 -14.5t-8 -27.5zM22 25v169q0 10 5 17.5t13 7.5h146q8 0 13 -7.5t5 -17.5v-169q0 -10 -5 -17.5t-13 -7.5h-146q-8 0 -13 7.5t-5 17.5zM259 25v169q0 11 5.5 18t13.5 7h145
q8 0 13.5 -7t5.5 -18v-169q0 -11 -5.5 -18t-13.5 -7h-145q-8 0 -13.5 7t-5.5 18zM497 25v169q0 10 5 17.5t13 7.5h146q8 0 13 -7.5t5 -17.5v-169q0 -10 -5 -17.5t-13 -7.5h-146q-8 0 -13 7.5t-5 17.5z" />
    <glyph glyph-name="guilsinglleft" unicode="&#x2039;" horiz-adv-x="283" 
d="M209 249q-9 21 -9 34t9 34q4 8 24 43q18 29 26 46q13 28 13 48q0 32 -23 46l-45 31q-20 12 -28 17q-8 3 -12 6q-12 3 -14 3q-25 0 -38 -24l-113 -227q-5 -10 -5 -22v-13q2 -12 5 -17l112 -221q11 -25 37 -25q7 0 13 3q4 2 6 4l81 50q24 15 24 47q0 20 -13 48
q-8 17 -26 46q-20 35 -24 43zM250 433l-63 -129q-9 -22 0 -42l63 -129q7 -14 3.5 -30.5t-14.5 -23.5l-81 -50q-4 -4 -10 -4q-14 0 -22 16l-112 221q-3 6 -3 15v7q0 8 3 14l113 227q7 15 23 15q6 0 10 -3l80 -51q11 -7 14 -23t-4 -30z" />
    <glyph glyph-name="guilsinglright" unicode="&#x203a;" horiz-adv-x="283" 
d="M74 308q10 -23 10 -34t-10 -34q-4 -8 -12.5 -23.5t-11.5 -20.5q-18 -29 -26 -46q-13 -28 -13 -47q0 -33 23 -47l80 -50q9 -6 20 -6q25 0 37 24l113 227q5 10 5 22v13q-2 12 -5 17l-111 221q-11 24 -38 24q-2 0 -14 -3q-5 -3 -12 -6l-28 -17q-29 -19 -46 -31
q-24 -15 -24 -47q0 -19 13 -47q8 -17 26 -46q20 -35 24 -43zM33 123l63 130q10 21 0 42l-63 129q-7 14 -3.5 30.5t14.5 22.5l81 51q4 3 10 3q14 0 23 -15l111 -221q3 -7 3 -16v-6q0 -8 -3 -14l-113 -227q-8 -15 -22 -15q-6 0 -11 3l-80 50q-11 7 -14 23t4 30z" />
    <glyph glyph-name="fraction" unicode="&#x2044;" horiz-adv-x="172" 
d="M176 838q-8 4 -13 4q-25 0 -32 -26l-229 -782q-3 -6 -3 -15q0 -23 18 -35q6 -3 48 -29q19 -12 30 -17q6 -4 11 -6q8 -4 13 -4q25 0 32 26q4 16 21.5 74t49.5 164.5t53 175.5q109 369 109 382q0 24 -19 36q-2 1 -9.5 5.5t-18.5 11.5t-20 12q-18 12 -29 17zM-82 29l229 782
q5 14 16 14q1 0 7 -2l86 -52q7 -3 9.5 -12.5t-0.5 -17.5l-230 -782q-3 -14 -16 -14q-4 0 -6 2l-87 52q-15 8 -8 30z" />
    <glyph glyph-name="Euro" unicode="&#x20ac;" 
d="M-1 407q5 -12 16 -17v-40q-11 -5 -16 -17q-1 -2 -4 -16v-14q0 -16 7 -29q6 -12 16 -17q4 -68 13.5 -113t33.5 -88.5t71.5 -65t119.5 -21.5q94 0 161 25q25 9 25 40l-2 145q0 11 -6 22q-7 18 -25 18q-21 0 -59 -2t-51 -2q-24 -2 -40 7q-16 7 -16 23q0 6 1 8h134
q18 0 26.5 14t8.5 27v12q0 6 -2 18q-2 11 -10 20t-23 9h-144q-2 4 -2 7v12q0 8 1 12v3h145q18 0 26.5 14t8.5 27v12q0 6 -2 18q-2 11 -10 20t-23 9h-123q-2 2 -2 7q0 9 16 12q4 1 11.5 2t8.5 1h21q16 0 47.5 -4t43.5 -4q18 0 27.5 12.5t9.5 27.5l3 147q0 33 -26 40
q-85 26 -151 26q-69 0 -114.5 -17t-71.5 -53.5t-38.5 -79.5t-20.5 -110q0 -7 -2 -7h-2q-13 0 -17 -14q-3 -18 -3 -36v-14q3 -14 4 -16zM32 404h-10q-10 0 -10 33t3 33h3q16 0 18 22q7 74 23.5 122t46 75t66.5 37.5t92 10.5q48 0 134 -22l12 -3q16 -4 14 -24l-3 -147
q0 -23 -20 -23q-47 8 -91 8q-48 0 -64 -11q-12 -8 -9 -26.5t17 -18.5h124q7 0 12.5 -7t5.5 -17v-18q0 -10 -5.5 -17t-12.5 -7h-145q-7 0 -12.5 -7t-5.5 -17v-20q0 -10 5.5 -17t12.5 -7h145q8 0 13 -7.5t5 -17.5v-17q0 -10 -5.5 -17t-12.5 -7h-134q-10 0 -15.5 -12t-0.5 -25
q14 -35 72 -35l105 4q7 1 12 -5.5t6 -17.5l2 -145q0 -20 -14 -24q-72 -24 -155 -24q-117 0 -165 61.5t-57 222.5q-9 0 -15.5 9.5t-6.5 23.5q0 33 10 33h10v68z" />
    <glyph glyph-name="trademark" unicode="&#x2122;" horiz-adv-x="474" 
d="M295 386q10 -16 27 -16h12q10 0 15 2q10 3 14 9q6 -34 33 -34h33q18 0 26 13.5t8 26.5v298q0 13 -8 26.5t-26 13.5h-53q-24 0 -32 -29q-4 -11 -5 -20l-3 -21q-3 -23 -6 -34l-1 -2v1q-4 13 -6 35l-3 21q-1 9 -5 20q-7 29 -33 29h-53q-17 0 -26 -15q-9 15 -27 15h-126
q-18 0 -26 -13.5t-8 -26.5v-41q0 -25 18 -35q6 -2 16 -4h12h8h2v-3q1 -2 1 -4v-210q0 -7 2 -15t10 -16.5t21 -8.5h37q18 0 26 13.5t8 26.5v210q0 6 1 7q2 0 3 1q7 2 15 6v-225q0 -7 2 -15t10 -16.5t21 -8.5h33q18 0 25.5 13.5t7.5 25.5zM73 622h-23q-17 0 -17 22v41
q0 23 17 23h126q17 0 17 -23v-41q0 -22 -17 -22q-16 0 -16 -24v-210q0 -23 -17 -23h-37q-16 0 -16 23v210q0 10 -5 17t-12 7zM262 364h-33q-16 0 -16 23v298q0 23 16 23h53q14 0 16 -16l15 -77q3 -17 16 -17q12 0 16 16l16 78q2 16 15 16h53q17 0 17 -23v-298
q0 -10 -5 -16.5t-12 -6.5h-33q-16 0 -16 23v169l-24 -151q-4 -18 -16 -18h-18q-14 0 -16 18l-28 151v-169q0 -23 -16 -23z" />
    <glyph glyph-name="minus" unicode="&#x2212;" 
d="M33 353v-147q0 -13 6 -25q10 -18 29 -18h304q19 0 29 18q6 12 6 25v147q0 13 -8 27.5t-27 14.5h-304q-19 0 -27 -14.5t-8 -27.5zM50 206v147q0 10 5 17.5t13 7.5h304q8 0 13 -7.5t5 -17.5v-147q0 -11 -5 -18.5t-13 -7.5h-304q-8 0 -13 7.5t-5 18.5z" />
    <glyph glyph-name="_FSHallmark" horiz-adv-x="980" 
d="M85 624v96h819v-96h-819zM897 441h-99q0 10 -7 22q-9 10 -18 17q-16 8 -23 10q-3 0 -11.5 1.5t-12.5 1.5q-24 0 -47 -12q-20 -13 -20 -29q0 -31 18 -40q25 -13 44 -17l65 -15q17 -6 29 -7q5 -1 24 -6q3 -2 10.5 -5.5t10.5 -5.5q21 -13 31 -27q11 -18 12 -43
q1 -26 -10 -49q-26 -43 -72 -58q-48 -15 -93 -15q-34 0 -67 9q-31 8 -57 27q-25 18 -42 47q-15 27 -15 64l95 -2q0 -5 4 -14q2 -15 14 -26q11 -11 25 -17q17 -9 46 -9q33 0 52 12q20 9 20 25q0 30 -78 46q-74 18 -120 43q-49 26 -49 82q0 48 32 74q32 25 72 39q34 8 68 8
q48 0 93 -18q44 -18 65 -65q11 -27 11 -48zM193 296v-132h-108v407h345v-93h-237v-91h197v-91h-197zM421 213q0 21 14 35q13 13 35 13q20 0 39 -14q16 -13 16 -34q0 -19 -16 -34q-17 -13 -39 -13q-19 0 -34 15q-15 13 -15 32zM83 16v97h820v-97h-820z" />
    <glyph glyph-name="_Fontastica" horiz-adv-x="980" 
d="M286 285v-176h-104q-1 2 -1 5v611h458v-94h-353v-251h354v-95h-354zM353 456v94h354v175h104v-614h-458v93h354v252h-354zM707 49q-7 -3 -7 -9q0 -8 5 -13t11 -5q7 0 17 5l5 -5q-8 -11 -22 -11q-10 0 -20 6q-7 17 -7 20q-1 10 7 20q8 9 20 9q14 0 22 -9l-5 -8q0 1 -2.5 2
t-3.5 3t-8 2h-3q-8 -4 -9 -7zM182 12v53h38v-9h-24v-15h24v-8h-24v-21h-14zM269 65q17 0 27 -14q6 -10 2 -24q-6 -15 -24 -16l-6 -2q-6 0 -11 3q-17 8 -17 24q0 13 8 21q6 8 21 8zM370 65v-53h-3q-2 -1 -4 -1q-3 0 -8 6l-5 8q0 1 -2 3t-3 4l-11 13v-33h-12v53h10q5 -1 6 -7
l12 -13q5 -9 10 -16v36h10zM393 56v9h44v-9h-16v-44h-12v44h-16zM557 40q11 0 11 -12q2 -11 -9 -16q-2 -1 -10 -1q-19 0 -25 9q1 1 1 2l1 2q0 1 2 3l16 -5h7l4 3q0 8 -12 11q-2 0 -3 1h-4q-8 2 -8 12q-2 9 7 15q1 0 5 0.5t7 0.5q13 0 21 -4l-4 -10q-2 1 -4 1q-1 0 -3 1
q-1 1 -4 1q-1 0 -2 2h-7q-4 0 -4 -4q-2 -2 4 -7q3 -1 7.5 -3t5.5 -2zM586 56v9h46v-9h-17v-44h-12v44h-17zM653 12v53h14v-53h-14zM777 65h15l10 -25l6 -15q6 -11 7 -13h-13l-3 12h-26l-5 -12h-12q16 31 21 53zM471 64h13q3 -11 4 -13q5 -7 7 -12l2 -5l3 -9q0 -2 2 -6.5
t3 -6.5h-13q-1 1 -1 5l-1 2q-1 1 -1.5 2t-0.5 3h-23q-1 -2 -1 -7q-1 -1 -1 -2l-3 -3h-11zM284 37v2q0 7 -4 12q-5 5 -12 5q-2 -2 -4 -2q-6 -1 -10 -8q-6 -7 -1 -13q5 -12 16 -12q4 0 5 1q10 3 10 15zM467 33h18q0 4 -1 4q-1 1 -2 3l-1 2q-1 2 -1 5q-1 1 -2 3l-1 2zM776 33
h17l-1 4l-3 5q0 1 -0.5 2.5t-1.5 2.5l-1 2q-1 2 -2 3z" />
  </font>
</defs>
</svg>
