<?xml version="1.0" standalone="no"?>
<!DOCTYPE svg PUBLIC "-//W3C//DTD SVG 1.1//EN" "http://www.w3.org/Graphics/SVG/1.1/DTD/svg11.dtd" >
<svg xmlns="http://www.w3.org/2000/svg" xmlns:xlink="http://www.w3.org/1999/xlink" version="1.1">
<metadata>
Created by FontForge 20170731 at Thu Jul 25 20:06:58 2019
 By Aleksey,,,
Copyright (c) 2019 by Fontastica. All rights reserved.
</metadata>
<defs>
<font id="Spot-OutlineItalic" horiz-adv-x="440" >
  <font-face 
    font-family="Spot Outline Italic"
    font-weight="400"
    font-style="italic"
    font-stretch="normal"
    units-per-em="1000"
    panose-1="0 0 5 0 0 0 0 0 0 0"
    ascent="800"
    descent="-200"
    x-height="754"
    cap-height="754"
    bbox="-98.2353 -259 904 853"
    underline-thickness="50"
    underline-position="-200"
    unicode-range="U+000D-2212"
  />
<missing-glyph horiz-adv-x="188" 
 />
    <glyph glyph-name=".notdef" horiz-adv-x="188" 
 />
    <glyph glyph-name=".null" horiz-adv-x="0" 
 />
    <glyph glyph-name="nonmarkingreturn" horiz-adv-x="333" 
 />
    <glyph glyph-name="CR" unicode="&#xd;" horiz-adv-x="0" 
 />
    <glyph glyph-name="space" unicode=" " horiz-adv-x="172" 
 />
    <glyph glyph-name="exclam" unicode="!" horiz-adv-x="232" 
d="M170 754q-24 0 -39.5 -21t-17.5 -40l-51 -384q-1 -12 0.5 -23.5t11 -23t26.5 -11.5h112q24 0 38.5 19.5t17.5 38.5l71 384q3 19 -5.5 40t-33.5 21h-130zM79 309l51 384q3 18 14 31t24 13h130q13 0 20 -13t4 -31l-71 -384q-3 -17 -13.5 -29t-23.5 -12h-112q-13 0 -19.5 12
t-3.5 29zM36 176l-21 -134q-2 -11 -0.5 -23.5t11 -24t26.5 -11.5h122q24 0 39 20t18 39l21 134q3 19 -5.5 39t-32.5 20h-122q-24 0 -38.5 -19.5t-17.5 -39.5zM32 42l21 134q3 17 13.5 29.5t23.5 12.5h122q13 0 19.5 -12.5t3.5 -29.5l-21 -134q-3 -17 -13.5 -29.5
t-23.5 -12.5h-122q-13 0 -19.5 12.5t-3.5 29.5z" />
    <glyph glyph-name="quotedbl" unicode="&#x22;" horiz-adv-x="435" 
d="M149 754q-17 0 -27.5 -13t-12.5 -26l-1 -5l-15 -229q0 -36 28 -36h111q16 0 29 15q8 9 10 21l57 229l1 5q3 13 -4 26t-24 13h-152zM371 754q-18 0 -28 -14t-12 -27l-1 -3l-14 -229q0 -36 28 -36h110q17 0 27.5 12.5t12.5 23.5l57 229l1 3q1 7 0 15.5t-8 17t-20 8.5h-153z
M110 483l16 228q0 10 6.5 18t14.5 8h152q8 0 12 -7.5t1 -18.5l-58 -228q-1 -9 -7 -15t-12 -6h-111q-14 0 -14 21zM333 483l15 228q1 10 7 18t14 8h153q8 0 11.5 -7.5t1.5 -18.5l-58 -228q-1 -9 -7 -15t-13 -6h-110q-14 0 -14 21z" />
    <glyph glyph-name="numbersign" unicode="#" 
d="M46 104v-6q0 -2 -2.5 -11t-5.5 -21t-4 -22q-2 -26 1 -37q6 -24 29 -24h99q30 0 41 33q3 7 7 23l3 23q6 34 8 39l5 6q7 0 8.5 -2.5t0.5 -9.5l-11 -65q-3 -15 3 -31t27 -16h99q34 0 46 46l11 67q0 2 1 3.5t2 2.5v2l3 2q1 0 3 0.5t4 0.5q37 11 43 46q23 131 24 139
q3 23 -7 33q-6 6 -11 7q-1 0 -2.5 0.5t-3.5 1.5t-3 1q0 1 -2.5 2t-3.5 1l-1 2v9q4 27 12 40l2 2q6 0 9 1q6 0 15 6q16 10 21 37l25 135q8 38 -26 48q-1 0 -3 1t-3 1l-3 2v6q4 26 14 78q2 16 -2 28q-8 20 -29 20h-99q-28 0 -42 -35l-6 -24q-2 -8 -4 -26q-6 -35 -9 -42
q-1 -4 -5 -8q-7 0 -8.5 2.5t-0.5 9.5q10 52 14 78q3 14 -4 29.5t-27 15.5h-98q-19 0 -31 -15.5t-15 -30.5l-13 -78q0 -2 -1 -3.5t-2 -2.5v-2q-1 -1 -3 -1l-6 -3q-35 -10 -41 -44l-26 -135q-6 -37 25 -47l6 -3l2 -1l1 -1v-1v-9q-5 -28 -12 -40l-2 -2q-2 0 -4.5 -0.5
t-3.5 -0.5q-11 -3 -16 -6q-15 -10 -20 -37l-25 -135q-7 -36 24 -48q1 0 3 -1t3 -1zM51 30l11 65q3 12 -2 20.5t-14 8.5t-13.5 9.5t-2.5 21.5l25 135q7 29 26 29h1q19 0 26 29l5 29q2 13 -3 21.5t-14 8.5t-14 9t-3 22l26 135q2 13 9.5 21t16.5 8q20 0 27 28l13 78q7 29 27 29
h98q9 0 14 -9t2 -22l-14 -75q-2 -12 2.5 -20.5t13.5 -8.5h7q20 0 27 28l14 78q2 13 9.5 21t16.5 8h99q9 0 14 -9t2 -22l-13 -75q-3 -12 1.5 -20.5t13.5 -8.5h3q9 0 13.5 -9.5t2.5 -21.5l-25 -135q-2 -13 -9.5 -21t-16.5 -8h-3q-9 0 -16 -8.5t-9 -20.5l-5 -29q-2 -13 3 -21.5
t14 -8.5h1q9 0 13.5 -8.5t2.5 -21.5l-24 -136q-2 -11 -9.5 -20t-15.5 -9h-4q-20 0 -27 -28l-11 -67q-2 -12 -10 -20.5t-16 -8.5h-99q-9 0 -14 8.5t-2 21.5l11 65q2 12 -2.5 20.5t-13.5 8.5h-7q-20 0 -27 -28l-11 -67q-7 -29 -26 -29h-99q-9 0 -13.5 8.5t-2.5 21.5zM254 378
l-5 -29q-2 -13 2.5 -21.5t13.5 -8.5h8q18 0 25 29l5 29q2 13 -3 21.5t-14 8.5h-7q-8 0 -16 -8.5t-9 -20.5zM266 346l5 32q0 4 4 10l2 2l8 -2q2 -4 1 -8l-5 -32q0 -4 -4 -10l-2 -2l-8 1q-2 5 -1 9z" />
    <glyph glyph-name="dollar" unicode="$" 
d="M521 551l24 129q7 41 -25 50q-22 7 -66 13q-42 4 -62 8q-5 0 -6 6v11q0 5 2 15q0 3 0.5 9t0.5 9q1 6 -1 18q-5 24 -32 24q-26 0 -40 -24q-2 -4 -4.5 -10.5t-2.5 -7.5l-3 -17q-2 -10 -4 -15q-1 -7 -4 -11q-3 -6 -7 -6q-23 -3 -39 -7q-19 -3 -40 -12q-38 -16 -65.5 -45
t-43 -67t-23.5 -68t-14 -69q-19 -118 16 -174.5t145 -81.5q21 -3 33 -6q10 -3 11 -6q0 -4 -4 -5q-6 -3 -20 -3q-40 0 -112 10l-27 6q-20 4 -32 4q-21 0 -34 -16.5t-16 -32.5l-24 -124q-8 -39 23 -52q32 -12 71 -19q3 -1 71 -12q5 0 5 -5q1 -3 1 -10v-14q-1 -5 -1 -15
q0 -11 2 -17q5 -22 30 -22t39 22q6 10 7 17q2 5 4 15q1 3 4 14q1 2 2.5 5.5t1.5 4.5q2 5 7 5l31 6q16 3 33 9q128 50 159 247q7 44 9 72t-8 66.5t-37 61.5q-24 20 -98 47q-19 7 -46 15q-19 7 -23 11q-3 3 -2 5q4 2 12 2h37q24 0 94 -7l19 -4q16 -2 22 -2q22 0 34.5 16.5
t15.5 33.5zM528 680l-24 -129q-2 -14 -10.5 -23.5t-19.5 -9.5q-88 13 -135 13q-51 0 -58 -3q-9 -4 -11 -15q-2 -13 6 -19q16 -9 50 -20q86 -27 118 -54q32 -26 38 -77t-7 -109q-19 -118 -69.5 -177t-137.5 -68q-10 -1 -18 -11t-10 -23l-2 -14q-2 -14 -11.5 -24.5
t-19.5 -10.5t-15 10.5t-3 24.5l2 14q2 13 -3.5 23t-15.5 11q-82 8 -135 29l-4 1q-19 7 -14 35l24 124q3 14 11.5 23.5t18.5 9.5q106 -20 171 -20q22 0 33 7q9 5 11 18q2 11 -6 16q-12 6 -49 13q-27 6 -45.5 12t-38 16t-31.5 21.5t-22.5 29t-15 40t-4 52.5t6.5 68
q19 126 67.5 184t139.5 67q11 1 19.5 10.5t10.5 23.5l3 23q2 14 11 24t19 10t15.5 -10t3.5 -24l-3 -24q-2 -13 3 -23t14 -11q65 -7 122 -19l4 -1q9 -1 13.5 -11.5t2.5 -22.5z" />
    <glyph glyph-name="percent" unicode="%" horiz-adv-x="533" 
d="M350 340l124 398l1 7v15.5t-7 18t-20 8.5q-27 0 -41 -34l-56 -181q4 26 5 38q3 41 -3 68q-15 77 -103 77t-129 -76q-22 -41 -38 -137q-15 -94 -6 -137q17 -77 104 -77q70 0 111 51l-128 -414l-2 -6q-4 -36 23 -42h6q29 3 38 33l72 231q-15 -87 -5 -131q18 -77 104 -77
t128 77q22 42 38 137q9 62 9 68q2 43 -3 68q-16 77 -103 77q-77 0 -119 -60zM192 -66q-3 0 -4 1q-15 6 -8 28l244 787q7 18 21 20q4 0 6 -1q13 -9 6 -29l-244 -787q-6 -17 -21 -19zM100 542q16 101 47 148.5t100 47.5t85.5 -52.5t-2.5 -143.5q-16 -101 -46.5 -149t-99.5 -48
t-86 53t2 144zM238 611q-2 11 -10 11q-10 0 -15 -13q-4 -10 -12 -58q-5 -33 -8 -64q-1 -17 1 -19q1 -5 9 -5t13 12q6 22 13 68q9 55 9 68zM319 187q16 101 47 148.5t101 47.5q68 0 84.5 -52.5t-2.5 -143.5q-17 -101 -47.5 -149t-99.5 -48q-47 0 -69.5 24t-22.5 68t9 105z
M456 255q0 11 -10 11t-14 -12q-3 -8 -11 -58q-8 -49 -9 -64t1 -20q1 -4 10 -4q7 0 12 12q3 9 13 68q9 62 8 67z" />
    <glyph glyph-name="ampersand" unicode="&#x26;" horiz-adv-x="562" 
d="M448 355l-4 4q-3 6 -3 7q-1 1 -1 3l19 9q8 3 24 11q43 26 61.5 63t26.5 89q18 115 -24 171t-155 56q-217 0 -252 -218q-4 -25 -6 -64q0 -26 3 -61l-1 -4q-56 -40 -80 -90t-35 -122q-20 -130 26.5 -185t175.5 -55q106 0 189 49q9 5 14 5l1 -1h2q5 -2 10 -5q8 -4 26 -16
l27 -17l12 -6q9 -3 13 -3q13 0 22 10q3 3 7 11q5 13 27 61q3 7 8.5 19.5t6.5 16.5q2 3 3.5 7.5t2.5 6.5q3 7 3 11q2 11 -5 23q-1 1 -4.5 7t-5.5 10q-12 21 -7 48q3 17 24 64q2 6 8 18t8 18q9 28 11 39q1 9 -5 19t-18 11l-120 6q-14 1 -24 -11q-2 -1 -3.5 -3.5t-2.5 -3.5
l-3 -6zM389 751q96 0 140 -45t25 -165q-11 -71 -38 -103t-82 -54q-7 -2 -10 -11.5t0 -16.5l11 -14q6 -6 11 -6q10 0 20 16q3 12 12 12h2l120 -6q13 -4 8 -20q-11 -30 -40 -100q-27 -56 1 -94l9 -13q5 -6 1 -18l-49 -112q0 -3 -5 -8q-5 -3 -12 1l-68 40q-10 6 -17 6
q-9 0 -23 -8q-74 -46 -179 -46q-121 0 -164 49.5t-24 173.5q23 147 107 199q11 5 9 21q-9 44 3 121q31 201 232 201zM330 548q-8 -45 17 -45q23 0 32 45q7 49 -16 49q-26 0 -33 -49zM346 525q-1 8 1 23q2 16 7 26q1 3 4 6h3q2 -2 2 -6q1 -9 -1 -26q-2 -11 -7 -22l-4 -6h-3
l-1 2q-1 1 -1 3zM275 185q9 0 13.5 10.5t-0.5 16.5l-40 58q-4 4 -7 4q-12 0 -14 -15q-11 -74 48 -74zM241 248q2 -2 6 -8t7 -9q13 -21 14 -23q3 -3 3 -6q-34 3 -30 46z" />
    <glyph glyph-name="quotesingle" unicode="'" horiz-adv-x="213" 
d="M149 754q-17 0 -27.5 -13t-12.5 -26l-1 -5l-15 -229q0 -36 28 -36h111q16 0 29 15q8 9 10 21l57 229l1 5q3 13 -4 26t-24 13h-152zM110 483l16 228q0 10 6.5 18t14.5 8h152q8 0 12 -7.5t1 -18.5l-58 -228q-1 -9 -7 -15t-12 -6h-111q-14 0 -14 21z" />
    <glyph glyph-name="parenleft" unicode="(" horiz-adv-x="261" 
d="M245 -69q-18 172 19 401q16 107 54 235q36 123 55 178q2 6 8 20q6 13 7 25q3 17 -4.5 34.5t-30.5 17.5h-112q-14 0 -28 -12q-9 -9 -17 -22q-6 -9 -18 -37q-39 -79 -75 -200.5t-51 -215.5q-49 -316 -2 -481q6 -29 32 -29h112q23 0 36.5 18t15.5 35q2 11 0 19q0 3 -0.5 7.5
t-0.5 6.5zM356 748q-15 -41 -55 -179q-37 -131 -54 -237q-35 -212 -20 -405l3 -18q1 -17 -9.5 -32t-23.5 -15h-112q-16 0 -19 19q-41 188 3 474q14 91 50 210.5t74 200.5l19 38q11 21 27 21h112q13 0 18.5 -14t-0.5 -31q-7 -14 -13 -32z" />
    <glyph glyph-name="parenright" unicode=")" horiz-adv-x="261" 
d="M126 762q18 -169 -20 -400q-18 -116 -53 -236q-38 -133 -55 -177q-2 -7 -8 -21q-6 -16 -7 -25q-3 -17 4.5 -34.5t29.5 -17.5h112q15 0 29 12q8 8 16 22q9 15 19 37q39 79 75 201t51 216q48 315 2 480q-6 29 -33 29h-112q-22 0 -35.5 -18t-15.5 -35q-1 -7 -1 -19
q2 -10 2 -14zM2 -87l12 32q12 33 56 179q37 135 53 238q36 219 20 404l-2 18q-1 17 9.5 32t23.5 15h112q16 0 19 -19q41 -187 -3 -473q-15 -91 -51 -211t-74 -201l-19 -38q-11 -21 -26 -21h-112q-13 0 -18.5 14t0.5 31z" />
    <glyph glyph-name="asterisk" unicode="*" horiz-adv-x="332" 
d="M342 504l2 2h4q1 0 3 -1t3 -1l7 -1q3 -1 10 -1q20 0 33 19q10 13 12 28l13 85q3 16 -5 30.5t-27 14.5q-4 0 -10 -0.5t-9 -0.5q-9 0 -10 1q-1 3 0 11q0 3 3 9q1 3 5 11q4 7 7 14q4 9 5 18q5 32 -18 43l-30 15l-19 9q-6 2 -9 2q-4 2 -9 2q-22 0 -36 -22q-6 -10 -8 -16
l-5 -15l-4 -13q-4 -8 -5 -9v-2q-1 0 -2 1l-3 4q-2 2 -4 6q-1 1 -2.5 3.5t-2.5 3.5t-2.5 3.5t-3.5 3.5q-10 10 -21 10q-20 0 -37 -22q-3 -6 -14 -20.5t-15 -20.5q-24 -35 -26 -52q-3 -18 4 -31q7 -9 8 -10l7 -7q12 -9 11 -19q-2 -10 -17 -20q-6 -4 -9 -7q-4 -2 -11 -9
q-11 -13 -14 -31q-3 -21 10 -52q3 -8 9.5 -22.5t7.5 -18.5q7 -21 29 -21q12 0 26 10q5 3 8 8l7 7q1 1 2.5 3t2.5 3l4 4q2 1 3 1q0 -1 1 -2q0 -1 0.5 -4t0.5 -5v-13q1 -6 1 -15q0 -8 3 -16q6 -22 28 -22q6 0 10 2q4 0 9 3q3 1 22 8q21 9 35 16q26 11 31 43q1 6 1 18l-3 14
q0 4 -2 12v10q1 3 5 11zM372 519l-24 4q-11 1 -20.5 -12.5t-7.5 -28.5l4 -32q2 -11 -3.5 -23t-15.5 -16l-61 -26q-2 -1 -7 -1q-7 0 -12 6t-5 16v33q-3 22 -18 22q-8 0 -15 -7l-23 -22q-6 -7 -15 -7t-15 12l-24 68q-4 10 -0.5 22t12.5 20l22 17q12 8 14.5 24.5t-6.5 25.5
l-18 17q-6 8 -5.5 20t7.5 22l45 68q10 13 20 13q7 0 12 -7l15 -21q7 -7 13 -7q17 0 23 22l13 33q6 22 23 22q4 0 7 -1l54 -26q19 -11 7 -39l-14 -30q-6 -14 -1.5 -27t15.5 -13h2l24 2q9 0 14.5 -8t3.5 -20l-13 -85q-2 -13 -10 -22t-17 -8z" />
    <glyph glyph-name="plus" unicode="+" 
d="M74 351l-23 -143q-6 -34 23 -44q10 -3 23 -3q4 1 11 1.5t11 0.5q7 1 20 1q7 1 13 -1q3 0 3 -2q1 -2 0 -8l-16 -100q-4 -45 30 -45h104q20 0 31.5 15.5t12.5 29.5l16 100l3 8q0 2 4 2q7 2 13 1q13 0 20 -1q3 -1 10.5 -1t11.5 -1q11 0 23 3q31 9 37 44l23 143q5 35 -24 43
q-12 3 -22 2q-15 0 -23 -1q-3 -1 -9.5 -1t-9.5 -1q-7 0 -13 2q-3 1 -3 2q-2 2 -1 9l16 98q2 14 -4.5 29t-25.5 15h-104q-19 0 -30.5 -15t-13.5 -29l-16 -98q-1 -7 -3 -9q0 -1 -4 -2q-6 -2 -13 -2q-3 1 -9.5 1t-9.5 1q-8 1 -22 1q-10 1 -24 -2q-31 -8 -36 -43zM68 208l23 143
q1 11 8.5 19t15.5 8h73q8 0 15 8.5t9 19.5l16 98q1 11 8.5 19t15.5 8h104q8 0 13 -8t3 -19l-16 -98q-2 -11 3 -19.5t13 -8.5h73q8 0 13 -8t3 -19l-23 -143q-2 -11 -9 -19.5t-15 -8.5h-73q-8 0 -15.5 -8t-9.5 -19l-16 -100q-1 -12 -8.5 -20t-15.5 -8h-104q-8 0 -12.5 8
t-3.5 20l16 100q2 11 -2.5 19t-12.5 8h-73q-8 0 -13 8.5t-3 19.5z" />
    <glyph glyph-name="comma" unicode="," horiz-adv-x="231" 
d="M39 190l-60 -276q-3 -14 4 -29t25 -15h114q14 0 25 10.5t15 21.5l97 277l3 10q2 14 -5 27t-24 13h-154q-18 0 -30 -16q-6 -10 -10 -23zM-4 -87l60 276q1 10 7.5 16.5t13.5 6.5h154q9 0 13 -9.5t-1 -20.5l-97 -277q-8 -18 -21 -18h-114q-8 0 -12.5 7.5t-2.5 18.5z" />
    <glyph glyph-name="hyphen" unicode="-" horiz-adv-x="285" 
d="M62 351l-24 -149q-1 -8 0.5 -17t8.5 -17t20 -8h201q19 0 30 14t13 28l24 149q2 14 -4.5 28t-25.5 14h-201q-18 0 -29 -14t-13 -28zM55 202l24 149q2 11 8.5 18t14.5 7h201q8 0 12.5 -7t2.5 -18l-24 -149q-2 -11 -8.5 -18t-14.5 -7h-201q-8 0 -12.5 7t-2.5 18z" />
    <glyph glyph-name="period" unicode="." horiz-adv-x="226" 
d="M36 194l-27 -169q-1 -7 0 -16t8 -17.5t20 -8.5h146q19 0 29.5 14t12.5 28l27 169q1 8 0 16t-8.5 17t-20.5 9h-146q-18 0 -29 -15t-12 -27zM26 25l27 169q1 10 7.5 17.5t14.5 7.5h146q7 0 11.5 -7t2.5 -18l-27 -169q-1 -10 -7.5 -17.5t-14.5 -7.5h-146q-7 0 -11.5 7
t-2.5 18z" />
    <glyph glyph-name="slash" unicode="/" 
d="M534 765q-114 36 -137 41h-6q-23 -4 -34 -27l-188 -413q-168 -369 -170 -382q-3 -33 20 -39q20 -7 71 -21q7 -2 21.5 -6.5t21.5 -6.5l15 -4q6 -2 11 -2q26 0 37 26q9 19 188 413q168 369 170 382q5 32 -20 39zM19 -8l354 782q5 13 18 15l4 -1l132 -39q7 -2 9.5 -11
t-1.5 -20l-354 -782q-6 -14 -19 -14l-4 1l-132 38q-7 3 -9.5 12t2.5 19z" />
    <glyph glyph-name="zero" unicode="0" 
d="M341 756q-46 0 -85.5 -15t-66 -36.5t-49.5 -58.5t-36 -67t-25 -76t-17 -72t-12 -68q-5 -33 -7.5 -52t-6 -55.5t-3.5 -59.5t2.5 -56t10.5 -54.5t21.5 -46t33 -38t48.5 -23t65 -9.5q146 0 221 143q41 81 68 252q33 208 -2 296q-36 96 -160 96zM67 363q33 200 94 288
q60 88 177 88q118 0 147 -87q33 -87 1 -288q-11 -71 -23.5 -122.5t-33.5 -102.5t-48.5 -82.5t-69 -51t-94.5 -19.5q-44 0 -75.5 12.5t-50 38t-29 57.5t-11.5 77t3 89.5t13 102.5zM303 532q-14 0 -23 -25q-1 -3 -2 -4q-10 -29 -29 -140q-16 -103 -16 -139q0 -31 17 -31
q16 0 27 31q9 26 23 114l18 114q3 31 3 51q0 29 -18 29zM254 213q-1 1 -1.5 4t-0.5 4q-2 16 1 51q2 23 7.5 56t5.5 35q2 12 5.5 36t5.5 34q7 41 17 67l3 9q1 5 3 6l1 -2q3 -5 3 -17q1 -11 -3 -44l-18 -114q0 -1 -4.5 -30t-8.5 -49q-6 -25 -14 -41q-2 -4 -2 -5z" />
    <glyph glyph-name="one" unicode="1" 
d="M401 65l95 595q4 27 -8.5 54.5t-43.5 27.5h-92q-21 0 -37 -13l-160 -113q-35 -24 -41 -70q-4 -21 0 -48q1 -8 3.5 -22.5t3.5 -20.5q3 -22 15.5 -38.5t36.5 -16.5q7 0 15 2q5 2 11 4q6 3 7 3q2 1 4 1q11 0 18 -15t4 -34l-47 -296q-4 -27 8 -54.5t43 -27.5h87q32 0 53 27.5
t25 54.5zM479 660l-95 -595q-4 -26 -21 -45.5t-37 -19.5h-87q-19 0 -30 19.5t-7 45.5l47 296q4 27 -6.5 46.5t-29.5 19.5q-9 0 -19 -5q-12 -5 -18 -5q-33 0 -38 43l-8 64q-2 22 7.5 44.5t26.5 34.5l159 113q12 9 26 9h92q19 0 30.5 -19.5t7.5 -45.5z" />
    <glyph glyph-name="two" unicode="2" 
d="M52 -17h325q20 0 32 16t14 30l22 140q6 35 -24 45q-13 3 -24 2q-15 0 -23 -1q-14 -2 -21 -2q-8 0 -14 2l-4 2q-2 2 -1 10q2 8 6 11q42 38 50 45q54 53 78 109.5t37 135.5q16 103 -28.5 166.5t-146.5 63.5q-93 0 -172 -36q-27 -11 -31 -44l-14 -123q-3 -21 7 -37.5
t34 -16.5q10 0 43.5 5.5t49.5 5.5q26 0 31.5 -4t2.5 -23q-8 -50 -116 -163q-65 -68 -77 -81q-21 -23 -28 -33q-13 -18 -15 -31l-23 -148q-2 -14 4 -30t26 -16zM380 0h-325q-8 0 -13 8.5t-3 20.5l23 148q1 10 10 21l77 84q25 25 52 57l41 46q38 43 50 77q0 1 2.5 9.5
t3.5 13.5q4 29 -6 36q-11 8 -42 8q-40 0 -93 -11q-31 0 -27 38l15 123q4 23 18 28q81 34 164 34t130.5 -52t30.5 -161q-17 -102 -50.5 -160t-107.5 -118q-14 -12 -13 -32t16 -20h78q8 0 13 -8.5t4 -20.5l-22 -140q-2 -12 -10 -20.5t-16 -8.5z" />
    <glyph glyph-name="three" unicode="3" 
d="M505 530q20 124 -30.5 175t-174.5 51q-62 0 -132 -24q-39 -14 -46 -61l-18 -126q-1 -8 0.5 -16.5t9 -17t20.5 -8.5q18 0 56.5 4.5t57.5 4.5q20 0 29 -4q8 -5 6 -13q-1 -12 -12 -14q-5 -2 -20 -2q-4 0 -12.5 0.5t-13.5 0.5q-39 2 -59 -5q-36 -14 -43 -57l-17 -107
q-7 -43 26 -58q10 -3 30 -5q20 0 30 1q9 1 28 1q9 0 19 -2q11 -3 9 -20q-1 -11 -12 -13q-5 -2 -17 -2h-21q-17 0 -50 4t-49 4q-25 0 -40 -20t-18 -40l-21 -109q-3 -18 3 -36.5t24 -24.5q66 -22 146 -22q127 0 188.5 64.5t82.5 194.5q9 57 1 94q-1 3 -12 34q-5 13 -4 26
q2 12 7 17q35 47 49 131zM297 739q118 0 164 -46q45 -46 27 -163q-14 -88 -45 -122q-22 -29 -7 -59q9 -17 12 -33q8 -29 -1 -88q-22 -139 -83 -190.5t-168 -51.5q-71 0 -141 21q-23 7 -18 45l20 109q3 18 14.5 30.5t24.5 12.5q60 -8 99 -8q36 0 53 5q14 7 17 27q3 21 -4 28
q-8 8 -33 11h-80q-13 0 -20.5 13t-4.5 31l17 107q3 18 14.5 31t24.5 13h73q44 0 48 33q3 17 -9 25.5t-40 8.5q-41 0 -115 -9q-17 0 -15 25l18 126q5 36 32 45q75 23 126 23z" />
    <glyph glyph-name="four" unicode="4" 
d="M224 71v-1q0 -6 -1 -11q0 -5 -2 -15l-3 -17v-18q4 -26 28 -26h146q18 0 29 14t13 27l8 50q13 5 20 18q3 4 5 16q2 8 2 14l22 139q4 14 -1 28q-5 13 -11 18l15 95q1 7 0 15.5t-8 17t-20 8.5q-1 0 -136 -6q-12 0 -21 -9l26 66q54 138 79 195l3 12q2 13 -4 27t-24 14h-170
q-15 0 -26 -10.5t-15 -22.5l-138 -440q-6 -20 -14 -78q-6 -39 -11 -79q-2 -13 4 -27t24 -14h181zM235 24l6 40q1 10 -2.5 17t-10.5 7h-182q-7 0 -11.5 7t-2.5 17l23 150q1 1 1 4l139 440q7 19 21 19h170q10 0 13.5 -10.5t-1.5 -21.5l-145 -366q-5 -12 -1.5 -22t12.5 -10
q15 0 20 20l25 84q5 19 20 21l132 6q9 1 13.5 -6t2.5 -18l-17 -107q8 0 12 -10t2 -24l-22 -139q-5 -34 -15 -34h-10l-10 -64q-2 -10 -8.5 -17t-13.5 -7h-146q-7 0 -11.5 7t-2.5 17z" />
    <glyph glyph-name="five" unicode="5" 
d="M359 488h90q25 0 41 21t19 41l21 130q3 21 -6 41.5t-34 20.5h-302q-25 0 -40.5 -20t-18.5 -40l-75 -410q-6 -28 19 -37q4 -1 12 -1q4 -1 18 -1q7 -1 25.5 -1.5t27.5 -0.5l90 -2q13 0 17 -3t2 -9q-2 -14 -26 -14q-48 0 -99 8q-7 1 -23 5q-24 3 -26 3q-23 0 -38.5 -18.5
t-19.5 -37.5q-21 -86 -23 -100q-8 -45 27 -59q86 -35 183 -35q118 0 179.5 75t80.5 195q8 64 7 116t-33 88.5t-95 44.5zM513 680l-21 -130q-3 -19 -14.5 -32t-25.5 -13h-180q-13 0 -18 -18q-5 -23 10 -23q28 9 57 9q94 0 128 -53t14 -181q-40 -253 -240 -253q-88 0 -172 32
l-6 2q-11 4 -16 17.5t-1 30.5l22 94q4 17 15 28.5t23 11.5q87 -16 148 -16q42 0 46 31q3 15 -5.5 22t-27.5 7l-168 5q-15 2 -10 21l75 410q3 18 14.5 30.5t24.5 12.5h302q14 0 21.5 -13t4.5 -32zM271 482l1 2v4h31l-15 -3q-10 -2 -14 -3h-3z" />
    <glyph glyph-name="six" unicode="6" 
d="M283 492q13 29 45 29q43 0 91 -8q2 0 4.5 -0.5t5.5 -1.5t5 -1q12 -2 19 -2q23 0 38.5 18.5t19.5 37.5l23 97q11 51 -34 67l5 -1q-97 29 -159 29q-230 0 -294 -401q-7 -43 -10 -78.5t-3.5 -83.5t10 -84.5t29.5 -70t56 -51.5t88 -18q115 0 178.5 75.5t82.5 192.5
q10 47 7.5 94t-14.5 84.5t-49.5 61t-97.5 23.5q-20 0 -46 -8zM330 538q-30 0 -47 -17.5t-26 -57.5l9 5q33 15 60 15q92 0 126 -60t14 -186q-20 -127 -83.5 -189t-157.5 -62q-61 0 -100 28t-54 80.5t-15 115.5t13 145q14 87 33 152t60.5 127.5t99.5 87.5q40 17 81 17
q66 0 155 -28h1q25 -10 18 -49l-23 -97q-4 -17 -15 -28.5t-23 -11.5q-71 13 -126 13zM275 288q-11 0 -18 -1q-14 -3 -24 -17.5t-10 -32.5q-2 -29 5 -42t28 -13q39 0 46 53q9 53 -27 53zM240 244q4 27 32 27q10 0 13 -8q3 -9 0 -28q-5 -36 -26 -36q-13 0 -18 11q-4 13 -1 34z
" />
    <glyph glyph-name="seven" unicode="7" 
d="M272 477q-2 -8 -4 -13l-174 -373q-6 -13 -7 -22q-6 -50 28 -60q2 -1 12 -4t23.5 -7t24.5 -7l37 -11q1 0 6.5 -1.5t7.5 -1.5q5 -2 10 -2q18 0 32 12.5t21 27.5l200 454l3 9q2 4 4 12l30 191q3 20 -5.5 40.5t-33.5 20.5h-298q-25 0 -40.5 -20.5t-18.5 -40.5l-23 -143
q-3 -20 6 -40.5t34 -20.5h125zM124 538l23 143q3 18 14.5 31t24.5 13h298q13 0 20.5 -13t4.5 -31l-30 -191q-1 -7 -6 -16l-200 -454q-13 -28 -34 -28q-4 0 -6 1l-111 32q-14 5 -17.5 23.5t5.5 37.5l174 373q3 6 5 16l3 19h-143q-13 0 -20.5 13t-4.5 31z" />
    <glyph glyph-name="eight" unicode="8" 
d="M523 537q18 113 -26 166t-158 53q-217 0 -251 -213q-9 -42 -7 -83t23 -78q2 -6 1 -11q-1 -7 -6 -12q-38 -40 -52.5 -74t-22.5 -90q-36 -226 190 -226q111 0 178 56.5t85 167.5q10 41 7.5 85.5t-27.5 80.5q-4 5 -3 12q0 3 3 7q3 5 11 15l13 18q8 10 12 18q18 36 30 108z
M336 739q152 0 171 -99q9 -40 -1 -103q-11 -66 -28 -102q-12 -23 -30 -42q-10 -9 -11.5 -23t5.5 -22q23 -27 25.5 -68.5t-7.5 -86.5q-33 -207 -243 -207q-209 0 -176 209q8 55 22.5 89t46.5 64q9 8 12 22t-3 22q-31 43 -14 151q31 196 231 196zM285 543q-6 -9 -11 -39
q-3 -21 2 -39q2 -14 15 -14t20 13q12 21 15 42q8 50 -20 50q-14 0 -21 -13zM291 477q-2 11 0 27q0 3 2 15q1 3 2.5 7t1.5 6q2 4 5 7h1q6 0 7 -7q2 -13 -1 -26q-2 -15 -8 -28q-3 -5 -7 -9q-1 1 -3 8zM286 224q4 20 -1 40.5t-19 20.5h-3q-11 0 -19 -11q-17 -21 -23 -57
q-6 -45 25 -45q19 0 27.5 12t12.5 40zM269 256q3 -19 0 -32q0 -8 -3 -17q-2 -9 -4 -12q-4 -6 -13 -6q-15 0 -11 28q7 27 11 36q4 8 9 13l2 2q6 0 9 -12z" />
    <glyph glyph-name="nine" unicode="9" 
d="M271 234q-12 -30 -45 -30q-32 0 -74 5q-3 0 -9.5 1.5t-10.5 2.5q-21 3 -24 3q-27 0 -44 -18t-22 -42q-17 -67 -22 -96q-6 -47 27 -63q62 -28 161 -28q230 0 294 401q7 43 10 78.5t3.5 83.5t-10 84.5t-29.5 70t-56 51.5t-88 18q-116 0 -179 -75.5t-82 -192.5
q-6 -37 -7 -69.5t5 -69.5t21 -63t46.5 -43.5t76.5 -17.5q10 0 46 6zM224 187q30 0 47 17.5t25 57.5l-1 -1q-41 -19 -80 -19q-86 5 -116 65t-11 181q20 127 83.5 189t157.5 62q61 0 100 -28t54 -80.5t15 -115.5t-13 -145q-10 -64 -23.5 -115t-35.5 -103.5t-56 -90.5t-79 -58
q-37 -17 -80 -17q-74 0 -155 27q-12 5 -17 19.5t-1 32.5l21 90q4 21 17.5 32.5t29.5 11.5q63 -12 118 -12zM279 437q10 0 15 1q14 2 25.5 18.5t12.5 35.5t-2 29q-4 22 -32 22q-39 0 -46 -53q-9 -53 27 -53zM314 485q-4 -31 -32 -31q-10 0 -13 8q-3 9 0 28q5 36 26 36
q26 0 19 -41z" />
    <glyph glyph-name="colon" unicode=":" horiz-adv-x="230" 
d="M84 485l-27 -168q-1 -7 0 -16t8.5 -17.5t20.5 -8.5h146q18 0 28.5 14.5t12.5 27.5l27 168q1 7 0 16t-8.5 17.5t-20.5 8.5h-146q-18 0 -28.5 -14.5t-12.5 -27.5zM74 317l27 168q1 10 7.5 17.5t14.5 7.5h146q7 0 11.5 -7t2.5 -18l-27 -168q-1 -10 -7.5 -17.5t-14.5 -7.5
h-146q-7 0 -11.5 7t-2.5 18zM38 194l-27 -169q-1 -7 0 -16t8 -17.5t20 -8.5h146q19 0 29.5 14t12.5 28l27 169q1 8 0 16t-8.5 17t-20.5 9h-146q-18 0 -29 -15t-12 -27zM28 25l27 169q1 10 7.5 17.5t14.5 7.5h146q7 0 11.5 -7t2.5 -18l-27 -169q-1 -10 -7.5 -17.5t-14.5 -7.5
h-146q-7 0 -11.5 7t-2.5 18z" />
    <glyph glyph-name="semicolon" unicode=";" horiz-adv-x="235" 
d="M93 485l-27 -168q-2 -14 3 -24q7 -18 25 -18h147q18 0 29 15t12 27l27 168q1 8 -0.5 16.5t-8.5 17t-20 8.5h-147q-19 0 -30 -18q-8 -11 -10 -24zM83 317l27 168q1 10 7.5 17.5t13.5 7.5h147q7 0 11 -7.5t3 -17.5l-27 -168q-1 -10 -8 -17.5t-14 -7.5h-147q-7 0 -10.5 7.5
t-2.5 17.5zM236 229h-154q-12 0 -21.5 -8.5t-13.5 -16.5t-5 -14q-1 -5 -26 -117t-33 -162q-2 -13 4.5 -27t23.5 -14h114q15 0 25.5 10.5t14.5 21.5q20 51 53 146q44 118 47 140q2 13 -4.5 27t-24.5 14zM0 -87l59 276q2 10 8.5 16.5t12.5 6.5h154q9 0 13 -9.5t0 -20.5
l-98 -277q-7 -18 -21 -18h-114q-8 0 -12 8t-2 18z" />
    <glyph glyph-name="less" unicode="&#x3c;" 
d="M386 267q-2 2 -1 14q3 13 6 15q2 2 4 3q1 1 7 4q36 17 41 51l26 161q1 11 -0.5 22t-10.5 21t-25 10q-10 0 -18 -4l-278 -138q-29 -14 -33 -49l-31 -193q-6 -33 18 -49q5 -3 23.5 -15t48.5 -30.5t53 -33.5q5 -3 34.5 -21.5t42.5 -25.5q9 -6 27 -16q4 -2 10 -4q8 -3 11 -3
q22 0 36 18.5t16 35.5l27 169q6 36 -25 51l-6 4zM396 318q-23 -5 -28 -36t17 -37h2q21 -6 16 -36l-27 -169q-2 -15 -12 -26t-21 -11q-3 0 -8 3q-2 0 -3 1l-230 143q-15 8 -12 34l31 193q3 26 22 34l278 138q6 2 9 2q11 0 17.5 -10.5t4.5 -25.5l-26 -161q-2 -14 -10.5 -24.5
t-19.5 -11.5z" />
    <glyph glyph-name="equal" unicode="=" 
d="M105 471l-22 -134q-1 -8 0 -16.5t8.5 -18t20.5 -9.5h308q20 0 31 15.5t12 28.5l22 134q1 8 -0.5 16.5t-9 17.5t-20.5 9h-308q-18 0 -29.5 -15t-12.5 -28zM100 337l22 134q1 10 8 18t15 8h308q8 0 12 -8t3 -18l-22 -134q-1 -11 -8 -19t-15 -8h-308q-8 0 -12 8t-3 19z
M65 223l-21 -134q-1 -8 0.5 -17t8.5 -17.5t20 -8.5h308q19 0 30 14.5t13 28.5l21 134v16.5t-7.5 18.5t-21.5 9h-308q-19 0 -30 -15t-13 -29zM61 89l21 134q2 11 9 19t15 8h308q8 0 12 -8t2 -19l-21 -134q-1 -10 -8 -18t-15 -8h-308q-8 0 -12 8t-3 18z" />
    <glyph glyph-name="greater" unicode="&#x3e;" 
d="M135 515l-26 -161q-5 -36 24 -51l6 -4q3 -1 3 -3q3 -3 1 -15q-1 -11 -5 -15l-4 -2q-1 -1 -7 -4q-35 -14 -41 -51l-27 -169q-1 -10 0 -21t10 -22t25 -11q6 0 19 5l279 144q27 14 32 49l31 193q5 36 -17 49l-235 138q-5 4 -17 4q-22 0 -35.5 -18t-15.5 -35zM143 318
q-10 1 -14.5 11.5t-2.5 24.5l26 161q2 15 11 25.5t20 10.5q2 0 10 -2l234 -138q14 -8 11 -34l-31 -193q-3 -26 -21 -34l-279 -144q-5 -3 -11 -3q-11 0 -16.5 10.5t-3.5 26.5l27 169q5 28 25 35q1 1 4 1h1q23 6 27 37.5t-17 35.5z" />
    <glyph glyph-name="question" unicode="?" horiz-adv-x="378" 
d="M359 337q55 47 75.5 91t32.5 118q10 48 7.5 92t-15.5 77.5t-49 54t-94 20.5q-91 0 -166 -31q-38 -16 -42 -61q0 -2 -2.5 -14t-5 -28.5t-4.5 -30.5q-2 -33 0 -47q0 -9 5 -19q8 -12 21 -12q3 0 21 3l16 4q28 4 64 4q20 0 25 -4t3 -18q-3 -21 -20 -38q-12 -12 -20 -19
l-23 -20q-71 -61 -83 -140q-5 -32 -3 -54q7 -43 41 -43h102q27 0 48 31q4 5 14.5 21t16.5 25q22 26 35 38zM450 546q-12 -74 -32.5 -115t-68.5 -82q-37 -31 -70 -88q-14 -22 -31 -22h-102q-21 0 -26 27.5t2 52.5q5 33 17 57.5t25.5 38.5t40.5 38q33 28 51 49q9 10 12 34
q3 21 -6 31q-11 8 -36 8q-52 0 -102 -11q-7 -1 -10.5 9.5t-1.5 27.5l13 98q4 34 30 44q83 30 158 30q90 0 123.5 -53t13.5 -174zM77 154l-17 -110q-3 -20 5.5 -40.5t33.5 -20.5h117q25 0 41 20t19 41l17 110q4 20 -5.5 40.5t-34.5 20.5h-117q-25 0 -40.5 -20.5t-18.5 -40.5z
M77 44l17 110q3 18 14.5 31t24.5 13h117q14 0 21.5 -13t4.5 -31l-17 -110q-3 -18 -14.5 -31t-25.5 -13h-117q-13 0 -20.5 13t-4.5 31z" />
    <glyph glyph-name="at" unicode="@" horiz-adv-x="822" 
d="M791 60q52 70 84 268q15 92 16 162.5t-15.5 134.5t-54 105t-105 65t-164.5 24q-85 0 -154.5 -18.5t-120.5 -54t-90 -82t-66 -108.5t-45 -126.5t-30 -142.5q-11 -73 -16.5 -127.5t-4.5 -114.5t12.5 -102.5t36 -82.5t63.5 -64.5t98.5 -39t137.5 -14.5q68 0 96 8
q20 5 32.5 21t14.5 34q1 4 3.5 17.5t5.5 29.5t4 30q2 29 -4 45q-10 27 -36 24q-75 -8 -85 -8q-101 0 -149 24q-61 32 -66 136q-2 32 4 95q1 8 13 89q15 91 33.5 147.5t53.5 101t91.5 63.5t142.5 19q139 0 174 -58.5t10 -211.5q0 -3 -2.5 -19t-5 -35t-6.5 -35q-6 -30 -15 -46
l-6 -11q-4 7 -4 9q-3 17 -2 40q1 20 6 49t5 30l28 172q2 19 -6 37.5t-32 18.5h-125q-21 0 -34 -16q-36 31 -79 31q-103 0 -163 -116q-34 -69 -53 -187q-5 -29 -7.5 -52t-3 -54t3 -55t13.5 -48.5t26.5 -40.5t43.5 -26.5t62 -10.5q45 0 93 27q5 3 14.5 8.5t13.5 7.5l8 5h2
l4 -3q49 -45 133 -45q110 0 168 77zM861 347l-3 -19q-30 -190 -80 -259t-152 -69q-85 0 -124 41q-6 7 -15 7q-10 0 -15 -5q-56 -43 -114 -43q-92 0 -118.5 68.5t-5.5 201.5q46 286 196 286q17 0 40 -9.5t35 -22.5l9 -10q2 11 11 19t19 8h125q12 0 18.5 -11t4.5 -28l-28 -172
q-14 -89 -11 -115q3 -30 20 -30q19 0 27 26q10 26 25 117l3 20q10 63 10.5 109.5t-9.5 78t-26 51.5t-44 30.5t-57 14t-72 3.5q-79 0 -132 -14.5t-95.5 -52.5t-69.5 -106t-44 -175q-7 -43 -10 -68.5t-6 -65.5t0 -66t9.5 -55t22.5 -48.5t40 -31.5q50 -26 156 -26l87 8
q12 1 19.5 -10.5t5.5 -26.5l-14 -92q-2 -15 -11.5 -26t-20.5 -13q-56 -7 -91 -7q-153 0 -230 51t-96.5 168t13.5 309q23 145 65.5 246t105.5 159.5t139 84t176 25.5q62 0 110 -9t89.5 -30t67 -55.5t42.5 -85t16 -118.5t-13 -157zM416 277q-8 -50 -4 -64q3 -17 18 -17
q4 0 14 2t18 14t10 27l10 68l1 11q3 16 -4 27t-19 11q-15 0 -24.5 -14.5t-12.5 -28t-7 -36.5zM428 232q-1 18 5 45l3 22q5 18 7 23q6 17 15 17q3 0 5 -6q3 -10 2 -29q0 -11 -2.5 -25t-5 -27t-3.5 -17q-3 -22 -22 -22l-2 2q-2 6 -2 17z" />
    <glyph glyph-name="A" unicode="A" horiz-adv-x="511" 
d="M487 754h-226q-21 0 -36 -16t-21 -34l-205 -645q-2 -5 -4 -13q-3 -21 6 -42t34 -21h113q26 0 42 21q5 6 11 18q6 15 7 17l6 14q4 8 6 10q3 5 10 5h68q6 0 8 -5l3 -10q1 -5 1 -15q0 -2 1 -8t1 -8q1 -6 5 -18q11 -21 35 -21h119q26 0 41.5 21.5t18.5 41.5q1 5 1 14l-2 644
q0 18 -10.5 34t-32.5 16zM15 56l205 645q4 16 15.5 26t23.5 10h226q26 0 28 -36l2 -644q0 -22 -12.5 -39.5t-28.5 -17.5h-119q-11 0 -19 10t-8 25v15q-1 15 -9 25t-19 10h-68q-27 0 -39 -38l-3 -10q-12 -37 -39 -37h-113q-16 0 -23 17.5t0 38.5zM342 333l9 204h-20l-56 -204
q-7 -21 0.5 -37.5t23.5 -16.5t28.5 16.5t14.5 37.5zM332 479q-2 -115 -8 -153q-2 -13 -9 -21.5t-13 -8.5t-10 8t-2 20q0 2 0.5 4t0.5 3z" />
    <glyph glyph-name="B" unicode="B" horiz-adv-x="486" 
d="M116 690l-102 -643q-3 -21 6 -42.5t35 -21.5h212q111 0 176.5 57.5t82.5 168.5q8 52 8 78q-2 43 -23 75q-6 9 -5 24q1 7 8 17q36 54 53 151q31 200 -182 200h-208q-26 0 -42 -21.5t-19 -42.5zM31 47l102 643q3 19 15.5 33t26.5 14h208q195 0 167 -183q-16 -98 -50 -143
q-10 -13 -11 -31.5t8 -28.5q18 -22 19 -64t-7 -78q-33 -209 -239 -209h-212q-14 0 -22 13.5t-5 33.5zM340 569h-24q-15 0 -20 -23l-11 -72q-4 -23 12 -23h25q23 0 35.5 14.5t17.5 46.5q10 57 -35 57zM302 468v6l11 72l3 6h21q16 0 20.5 -8.5t0.5 -31.5q-4 -25 -11 -34.5
t-22 -9.5h-23zM299 292h-27q-15 0 -20 -24l-11 -74q-2 -9 1.5 -16t10.5 -7h27q29 0 39 13q12 10 18 47q5 34 -4 47.5t-34 13.5zM258 188v6l11 74l3 7h25q18 0 22.5 -9t0.5 -35q-5 -27 -11.5 -35t-25.5 -8h-25z" />
    <glyph glyph-name="C" unicode="C" horiz-adv-x="426" 
d="M439 52l17 109q4 21 -6.5 42t-37.5 20q-72 -5 -89 -5q-32 0 -42.5 8.5t-13.5 37.5q-2 27 3 59q2 12 5.5 33.5t4.5 29.5q1 6 2.5 17t3 20t3.5 17q5 24 14 43q17 36 68 36q15 0 43 -3t42 -3q27 0 42.5 18.5t20.5 41.5q4 19 10.5 56t9.5 53q4 19 -2.5 37.5t-25.5 25.5
q-64 23 -138 23q-147 0 -216 -88q-66 -85 -101 -309q-24 -157 -16 -239q10 -88 58 -125.5t139 -37.5q93 0 156 22q39 13 46 61zM439 161l-17 -109q-1 -16 -10.5 -29t-21.5 -16q-70 -21 -150 -21q-37 0 -65 5.5t-54.5 21t-42.5 46.5t-20 77q-10 86 15 235q34 217 97 300
q62 80 200 80q60 0 132 -22q12 -3 17.5 -16.5t2.5 -30.5l-20 -108q-4 -20 -16 -32t-27 -12q-44 6 -85 6q-56 0 -76 -29q-20 -28 -35 -121q-14 -96 -13 -126q3 -38 19.5 -48.5t50.5 -10.5l91 5q15 1 23 -12t5 -33z" />
    <glyph glyph-name="D" unicode="D" horiz-adv-x="523" 
d="M54 -17h201q69 0 123.5 25t88.5 62t59.5 93t38 104.5t22.5 109.5q10 63 12.5 112t-7 101t-33.5 86t-72 56t-118 22h-193q-26 0 -41 -20.5t-18 -41.5l-103 -647q-3 -21 5.5 -41.5t34.5 -20.5zM258 0h-201q-14 0 -21.5 13t-4.5 32l103 647q3 19 14.5 32t25.5 13h193
q137 0 184.5 -85.5t18.5 -274.5q-30 -189 -103.5 -283t-208.5 -94zM381 364q15 99 6 132q-11 33 -61 33q-13 0 -24.5 -13t-14.5 -32l-37 -231q-3 -19 4.5 -32t20.5 -13q52 0 72.5 38t33.5 118zM372 430q0 -6 -8 -66q-1 -6 -4 -23t-5 -27q-4 -25 -14 -46q-20 -43 -63 -43
q-5 0 -9 8t-2 20l37 231q2 13 8 20.5t11 7.5q39 0 47 -23q5 -16 2 -59z" />
    <glyph glyph-name="E" unicode="E" horiz-adv-x="439" 
d="M119 706l-107 -674q-1 -9 0 -19t9 -20t23 -10h356q21 0 33.5 17t14.5 32l22 141q3 14 -4.5 31t-27.5 17h-171q-1 1 -1 3q-2 3 -2 11q2 10 6 15l3 3h102q20 0 32.5 16t15.5 32l22 139q6 40 -29 48q-9 2 -28 2q-9 0 -29 -2l-26 -3q-9 0 -19 2q-9 2 -7 16q0 6 5 11q2 3 3 3
h170q20 0 32.5 16.5t14.5 31.5l23 141q2 15 -5.5 31.5t-27.5 16.5h-356q-21 0 -33 -16t-14 -32zM29 32l107 674q2 13 10 22t18 9h356q9 0 14.5 -9t3.5 -22l-23 -141q-1 -13 -9.5 -22t-17.5 -9h-170q-10 0 -18 -9.5t-10 -21.5q-2 -13 3 -22.5t15 -9.5h102q9 0 14.5 -9
t3.5 -22l-22 -139q-2 -13 -10.5 -22t-17.5 -9h-102q-10 0 -18 -9.5t-10 -21.5l-1 -4q-2 -13 3 -22t15 -9h170q9 0 14.5 -9.5t3.5 -21.5l-22 -141q-2 -13 -10.5 -22.5t-17.5 -9.5h-356q-10 0 -15 9.5t-3 22.5z" />
    <glyph glyph-name="F" unicode="F" horiz-adv-x="417" 
d="M497 754h-321q-25 0 -40.5 -21t-18.5 -41l-103 -646q-3 -20 6 -41.5t34 -21.5h120q25 0 41 21.5t19 41.5l33 207h108q20 0 32.5 16t15.5 32l22 139q6 40 -29 48q-9 2 -28 2q-9 0 -29 -2l-26 -3q-9 0 -19 2q-9 3 -7 16q0 3 3 9h149q24 0 40 21.5t19 40.5l19 118
q2 20 -6.5 41t-33.5 21zM174 737h321q13 0 20 -13.5t5 -31.5l-19 -118q-3 -18 -14.5 -31.5t-24.5 -13.5h-156q-14 -9 -16 -26q-2 -13 3 -22.5t15 -9.5h102q9 0 14.5 -9t3.5 -22l-22 -139q-2 -13 -10.5 -22t-17.5 -9h-125l-36 -224q-3 -19 -15 -32.5t-25 -13.5h-120
q-14 0 -21.5 13.5t-4.5 32.5l103 646q2 18 14 31.5t26 13.5z" />
    <glyph glyph-name="G" unicode="G" horiz-adv-x="495" 
d="M501 63l52 328q3 21 -6 40t-34 19h-135q-25 0 -39.5 -19.5t-17.5 -39.5l-15 -103q-6 -33 16 -46q-1 -8 -5 -17q-3 -6 -5 -8l-2 -1h-2q-37 0 -42 49q-1 22 2 50q1 9 7 48q2 10 5 30t5 30q6 35 14 57q9 27 30 34q11 4 26 4q11 1 33 1t64 -5t63 -5q27 0 43 20t20 43l16 106
q8 45 -27 61q-28 12 -85 20.5t-94 8.5q-53 0 -96.5 -13t-74.5 -33t-56.5 -52.5t-41.5 -64t-29 -75.5t-20 -78.5t-14 -81.5q-8 -48 -12 -80t-5.5 -77.5t4 -75.5t19.5 -64t38 -54t63 -33t92 -13q38 0 97.5 8t96.5 18q21 6 35 25t17 39zM536 391l-52 -328q-7 -39 -38 -48
q-131 -25 -189 -25q-99 0 -147.5 44.5t-52 129t15.5 206.5q31 201 100 291t212 90q70 0 169 -27l5 -1q25 -11 18 -45l-16 -106q-4 -21 -16.5 -33.5t-27.5 -12.5q-97 10 -126 10q-47 0 -64 -6q-13 -5 -19.5 -9t-13.5 -13.5t-12 -24.5q-7 -23 -24 -120q-6 -38 -8 -59.5
t0.5 -49.5t16 -41.5t39.5 -13.5q11 1 20.5 12t12.5 27l2 17q-10 0 -15 9.5t-3 23.5l15 103q3 18 14 30t24 12h135q14 0 21 -12t4 -30z" />
    <glyph glyph-name="H" unicode="H" horiz-adv-x="524" 
d="M261 214q8 26 19 26h27q11 0 17 -2q10 -5 7 -25l-27 -169q-3 -20 5.5 -40.5t33.5 -20.5h122q25 0 40.5 20.5t18.5 40.5l103 649q3 20 -6 40.5t-34 20.5h-122q-41 0 -57 -57q-5 -17 -10 -46l-6 -51q-5 -61 -14 -90q-9 -28 -20 -28h-26q-10 0 -18 2q-10 5 -6 25l29 184
q3 20 -6 40.5t-34 20.5h-122q-25 0 -40 -20.5t-18 -40.5l-103 -649q-3 -20 5.5 -40.5t33.5 -20.5h122q42 0 57 55q5 17 10 44q4 29 5 47q8 66 14 85zM321 44l27 169q3 19 -4 31.5t-21 12.5h-40q-14 0 -25 -12.5t-14 -31.5l-27 -169q-3 -18 -14.5 -31t-24.5 -13h-122
q-13 0 -20.5 13t-4.5 31l103 649q3 18 14.5 31t24.5 13h122q13 0 20.5 -13t4.5 -31l-29 -184q-3 -18 4.5 -31t20.5 -13h40q13 0 24.5 13t14.5 31l29 184q3 18 14.5 31t24.5 13h122q13 0 20.5 -13t4.5 -31l-103 -649q-3 -18 -14.5 -31t-24.5 -13h-122q-13 0 -20.5 13t-4.5 31
z" />
    <glyph glyph-name="I" unicode="I" horiz-adv-x="234" 
d="M117 694l-103 -650q-2 -11 0 -24t11.5 -25t26.5 -12h123q25 0 40.5 20.5t18.5 40.5l103 650q3 19 -6 39.5t-34 20.5h-123q-24 0 -39 -20.5t-18 -39.5zM31 44l103 650q3 17 14 30t24 13h123q13 0 20.5 -13t4.5 -30l-103 -650q-3 -18 -14.5 -31t-24.5 -13h-123
q-13 0 -20 13t-4 31z" />
    <glyph glyph-name="J" unicode="J" horiz-adv-x="296" 
d="M99 216l-2 -1q-1 -1 -4 -1q-16 0 -24 -2q-46 -7 -54 -62l-19 -117q-3 -21 6 -42.5t35 -21.5h44q115 0 168.5 54.5t72.5 171.5l79 500q3 19 -5 39t-33 20h-125q-24 0 -38.5 -19.5t-17.5 -39.5l-54 -341q0 -1 -4.5 -29.5t-8.5 -48.5q-5 -25 -11 -44q-1 -6 -5 -14l-1 -2h1z
M236 737h125q13 0 19.5 -12.5t3.5 -29.5l-79 -500q-7 -46 -18.5 -80.5t-28 -56.5t-32.5 -35.5t-42 -21t-46.5 -10.5t-53.5 -5h-44q-14 0 -22 13.5t-5 33.5l19 117q3 20 15 33.5t26 13.5h24q7 0 11 7q6 4 9 13q6 16 8 27q9 39 20 110l54 341q3 17 13.5 29.5t23.5 12.5z" />
    <glyph glyph-name="K" unicode="K" horiz-adv-x="487" 
d="M307 495q-2 3 0 7l33 210q2 14 -4.5 28t-25.5 14h-149q-18 0 -29 -15t-12 -27l-109 -687q-1 -7 0 -16t8 -17.5t20 -8.5h149q19 0 30 14t13 28l31 195q0 5 4 7v-2l22 -212q1 -10 8.5 -20t20.5 -10h148q19 0 30 15t13 28q1 4 1 12l-18 181q-15 151 -12 162q2 14 58 151
q59 144 68 168q2 4 4 12q2 14 -4.5 28t-25.5 14h-145q-14 0 -24.5 -10.5t-13.5 -20.5l-88 -225v-1q-1 -1 -1 -2zM245 220l-31 -195q-2 -11 -8.5 -18t-14.5 -7h-149q-7 0 -11.5 7t-2.5 18l109 687q1 10 7.5 17.5t14.5 7.5h149q8 0 12.5 -7t2.5 -18l-33 -210q-2 -11 1.5 -18.5
t11.5 -7.5q14 0 21 18l88 225q5 18 20 18h145q10 0 14 -10t-1 -23l-127 -316q-2 -8 -2 -15l30 -339q2 -12 -5.5 -23t-17.5 -11h-148q-12 0 -15 17l-22 212q-2 16 -14 16h-2q-8 0 -14.5 -7.5t-7.5 -17.5z" />
    <glyph glyph-name="L" unicode="L" horiz-adv-x="391" 
d="M55 -17h292q26 0 42 21t19 42l19 116q7 48 -30 61q-13 4 -32 4q-10 0 -34 -2q-20 -2 -31 -2q-13 0 -22 3q-15 4 -11 28l69 437q4 20 -6 41.5t-35 21.5h-118q-25 0 -41 -21t-20 -42l-102 -645q-3 -21 6.5 -42t34.5 -21zM350 0h-292q-14 0 -22 13.5t-5 32.5l102 645
q3 19 15.5 32.5t26.5 13.5h118q14 0 21.5 -13.5t4.5 -32.5l-69 -437q-3 -19 4.5 -32.5t21.5 -13.5h107q14 0 22 -13.5t5 -32.5l-19 -116q-3 -19 -15 -32.5t-26 -13.5z" />
    <glyph glyph-name="M" unicode="M" horiz-adv-x="684" 
d="M253 167l-4 -123q-1 -19 9 -36t33 -17h99q22 0 37.5 17.5t20.5 35.5l36 128l-20 -126q-3 -21 6.5 -42t34.5 -21h118q26 0 42 21t19 42l102 645q4 21 -5.5 42t-35.5 21h-222q-34 0 -52 -39q-10 -19 -20 -63q-8 -42 -14 -58q-3 -9 -5 -11q0 1 -0.5 5t-0.5 7q0 6 2 57
q4 40 0 64q-8 38 -41 38h-215q-25 0 -41 -21t-20 -42l-102 -645q-3 -21 6.5 -42t34.5 -21h118q25 0 41.5 21.5t19.5 41.5zM31 46l102 645q3 19 15.5 32.5t26.5 13.5h215q25 0 27 -36l-3 -118q1 -19 15 -19q15 0 21 20l32 115q4 16 15.5 27t23.5 11h222q14 0 21.5 -13.5
t4.5 -32.5l-102 -645q-3 -19 -15 -32.5t-26 -13.5h-118q-14 0 -22 13.5t-5 32.5l53 334h-8l-95 -334q-4 -16 -15.5 -27t-23.5 -11h-99q-12 0 -19.5 10.5t-7.5 27.5l12 334h-8l-53 -334q-3 -19 -15 -32.5t-26 -13.5h-118q-14 0 -22 13.5t-5 32.5z" />
    <glyph glyph-name="N" unicode="N" horiz-adv-x="550" 
d="M262 220l59 -203q10 -34 39 -34h130q26 0 41.5 21.5t18.5 41.5l102 645q3 20 -5.5 41.5t-34.5 21.5h-119q-37 0 -56 -49q-9 -27 -15 -82q-7 -63 -10 -76q0 -3 -1 -6l-2 -6t-1 -4l-62 191q-11 32 -40 32h-129q-25 0 -41 -21t-20 -42l-102 -645q-3 -21 6.5 -42t34.5 -21
h118q41 0 58 52q10 28 16 87q11 81 11 82q2 12 4 16zM31 46l102 645q3 19 15.5 32.5t26.5 13.5h129q18 0 25 -22l63 -195q5 -10 13 -10q7 0 13 6t7 16l25 159q3 19 15 32.5t26 13.5h119q13 0 20.5 -13.5t4.5 -32.5l-102 -645q-3 -19 -15 -32.5t-25 -13.5h-130q-22 0 -25 24
l-61 208q-3 11 -13 11q-6 0 -12 -6.5t-7 -16.5l-28 -174q-3 -19 -15 -32.5t-26 -13.5h-118q-14 0 -22 13.5t-5 32.5z" />
    <glyph glyph-name="O" unicode="O" horiz-adv-x="536" 
d="M264 -31q70 0 125.5 25.5t89.5 63t59.5 94.5t37.5 106t22 111q8 51 11.5 92.5t2 90t-15 85t-37.5 67.5t-67 47.5t-102 16.5q-71 0 -126.5 -25t-89.5 -62.5t-59.5 -94t-37.5 -105.5t-22 -111q-7 -43 -10.5 -79t-3 -78.5t7 -76t22 -66t40 -54t63.5 -34.5t90 -13zM581 369
q-30 -193 -103.5 -288t-210.5 -95q-138 0 -182 95.5t-13 288.5q30 193 103.5 287t211.5 94t181.5 -94t12.5 -288zM258 369q-15 -92 -7 -135q6 -41 49 -41q41 0 60 40q18 39 35 137q14 99 8 135q-6 40 -48 40q-43 0 -61 -41q-21 -42 -36 -135zM268 320q1 11 7 49l8 49
q9 38 15 55q20 55 55 55q33 0 36 -55q1 -23 -4 -55q-1 -9 -7 -48l-8 -49q-4 -26 -14 -55q-20 -56 -54 -56t-37 55q-1 19 3 55z" />
    <glyph glyph-name="P" unicode="P" horiz-adv-x="490" 
d="M46 -17h136q33 0 46 38q6 15 7 28q2 8 4 30q6 39 10 49q3 9 5 11h2q77 0 133 21.5t91 65t54.5 97t31.5 127.5q14 96 5 163.5t-62 104t-156 36.5h-185q-22 0 -34.5 -17t-15.5 -34l-106 -669q-2 -17 5 -34t29 -17zM259 156q-10 0 -19 -10t-11 -24l-14 -88q-2 -14 -11 -24
t-19 -10h-136q-11 0 -16.5 10t-3.5 24l106 669q2 14 11 24t20 10h185q50 0 84.5 -7.5t63.5 -26.5t41.5 -51.5t17 -82.5t-8.5 -119q-26 -166 -95 -230t-195 -64zM311 536h-16l-28 -178h16q35 0 52.5 21.5t25.5 70.5q8 50 -3 68t-47 18zM286 375l23 144q29 0 35.5 -15.5
t-0.5 -53.5q-7 -40 -18.5 -57.5t-39.5 -17.5z" />
    <glyph glyph-name="Q" unicode="Q" horiz-adv-x="534" 
d="M388 768q-71 0 -126.5 -25t-89.5 -62t-59 -94.5t-37 -105.5t-22 -112q-7 -44 -10.5 -79.5t-3.5 -78.5t6.5 -75.5t21.5 -65t39.5 -54t63.5 -34.5t90 -13q12 0 18 -18l30 -89q13 -35 46 -35q19 0 31 8q20 12 31 18l33 22q40 29 46 71q3 15 -1 31q-1 10 -7 26q-9 30 -7 44
q3 15 12 28q76 115 101 281q9 54 12.5 95t3.5 92.5t-13 88t-36.5 69.5t-67.5 50t-105 17zM264 -14q-138 0 -181 94t-12 289q31 196 103 289t211 93q143 0 183.5 -95.5t8.5 -299.5q-28 -180 -98 -273q-25 -33 -13 -71l11 -33q7 -22 -2 -48.5t-29 -39.5l-68 -42q-12 -5 -21 -5
q-23 0 -32 26l-29 89q-10 27 -32 27zM253 369q-4 -25 -5.5 -39t-3.5 -38t0.5 -39t7.5 -30t16.5 -22.5t28.5 -7.5q42 0 60 41q21 42 36 136q14 95 7 134q-6 41 -48 41q-17 0 -30.5 -7.5t-23.5 -23t-17 -29.5t-12.5 -38.5t-8.5 -38.5t-7 -39zM263 321q1 9 7 48q4 24 9 48
q5 31 15 55q20 56 56 56q33 0 36 -55q1 -19 -3 -55q-2 -18 -7 -48l-8 -48q-8 -38 -15 -56q-20 -56 -54 -56q-35 0 -38 56q-1 24 2 55z" />
    <glyph glyph-name="R" unicode="R" horiz-adv-x="494" 
d="M259 172q1 1 4 1q1 -1 1 -2q4 -4 5 -15q3 -20 -1 -63q0 -6 -0.5 -18t-0.5 -17q0 -23 1 -33q5 -42 35 -42h135q22 0 35 17t15 34q4 20 2 52q-2 29 -6 55q-8 74 -4 99q1 6 6 14q66 79 86 216q14 91 5 154.5t-60 96.5t-148 33h-200q-22 0 -35 -17t-16 -35l-105 -667
q-3 -18 4 -35t30 -17h134q35 0 49 44q4 11 8 33q2 12 4 36q6 50 10 62q4 11 7 14zM265 190q-11 0 -19.5 -10t-10.5 -25l-19 -120q-3 -15 -12 -25t-20 -10h-134q-11 0 -17 10t-3 25l105 667q2 15 11.5 25t20.5 10h200q47 0 79.5 -6.5t60.5 -24t39.5 -47.5t16.5 -76.5
t-8 -112.5q-21 -140 -81 -207q-14 -14 -12 -33l10 -186q1 -17 -8.5 -30.5t-22.5 -13.5h-135q-20 0 -20 28l-1 135q0 12 -6 19.5t-14 7.5zM296 392h20q40 0 51 71q12 73 -32 73h-16q-10 0 -19.5 -10.5t-11.5 -24.5l-11 -74q-3 -15 2.5 -25t16.5 -10zM319 409h-20
q-1 0 -2.5 1.5t-3 5.5t0.5 11l11 74q4 18 11 18h16q14 0 19 -15q4 -16 -1 -41q-4 -26 -11 -40q-8 -14 -20 -14z" />
    <glyph glyph-name="S" unicode="S" horiz-adv-x="462" 
d="M543 581q12 64 17 96q4 22 -4 42t-29 27q-66 22 -180 22q-69 0 -118 -19.5t-79.5 -58t-48 -85.5t-27.5 -112q-20 -120 17 -178q36 -56 148 -82q2 0 6 -1t10 -2t10 -2q5 -2 15 -4q1 -1 4 -1q1 -1 1 -3q-2 -3 -5 -5q-8 -3 -20 -3q-46 0 -113 9q-7 1 -23 5q-24 3 -27 3
q-25 0 -43 -21.5t-23 -43.5q-14 -64 -19 -96q-9 -54 30 -70q72 -30 195 -30q126 0 188.5 71t83.5 199q8 52 8 87t-8 62.5t-29 47t-50 34t-76 28.5q-2 1 -16.5 5t-22.5 7q-11 5 -13 9q-2 1 -2 4q4 2 12 3t22.5 0t16.5 -1q39 0 80 -6q3 0 10 -1.5t9 -1.5q14 -2 22 -2
q29 0 47.5 20.5t23.5 47.5zM543 677l-17 -96q-4 -24 -18.5 -37.5t-32.5 -13.5q-73 11 -121 11q-50 0 -61 -3q-8 -4 -10 -17q-3 -12 7 -18q7 -7 56 -22q27 -8 38.5 -12.5t37.5 -17t39 -25t25 -34.5t14 -49q2 -44 -8 -105q-22 -139 -84.5 -196t-167.5 -57q-109 0 -190 29
q-28 10 -21 54l19 95q5 20 18.5 34.5t28.5 14.5q94 -17 162 -17q40 0 45 25q1 11 -6 17q-9 4 -50 13q-109 24 -140 76q-33 49 -15 167q23 145 83 201.5t170 56.5q83 0 175 -21h1q13 -3 19.5 -18.5t3.5 -34.5z" />
    <glyph glyph-name="T" unicode="T" horiz-adv-x="415" 
d="M98 684l-16 -103q-4 -23 0.5 -37.5t16.5 -21t20 -8t24 -2.5q12 0 18 -1q3 -1 7 -3l4 -1q8 -8 4 -31l-67 -424q-3 -23 6 -46t37 -23h111q28 0 45 23.5t20 45.5l67 424q5 25 14 30q4 3 11 4q12 2 17 2q14 1 23.5 3t22.5 8.5t21 21t12 36.5l16 103q1 12 0.5 27.5t-12 29
t-31.5 13.5h-324q-28 0 -45.5 -23t-21.5 -47zM99 581l16 103q4 22 17.5 37.5t30.5 15.5h324q15 0 23.5 -15.5t4.5 -37.5l-16 -103q-4 -22 -17 -37t-28 -15h-29q-16 0 -29.5 -15.5t-17.5 -37.5l-67 -424q-3 -21 -16.5 -36.5t-28.5 -15.5h-111q-16 0 -24 15t-5 37l67 424
q4 22 -4.5 37.5t-24.5 15.5h-34q-17 0 -26 15t-5 37z" />
    <glyph glyph-name="U" unicode="U" horiz-adv-x="513" 
d="M288 754h-110q-27 0 -44.5 -23t-21.5 -46l-66 -421q-24 -146 20 -220.5t186 -74.5t209 76.5t90 222.5l66 417q4 23 -6 46t-38 23h-110q-27 0 -44.5 -23t-21.5 -46l-68 -431q-4 -25 -11.5 -33t-26.5 -8q-20 0 -26 8.5t-2 32.5l68 431q4 23 -5.5 46t-37.5 23zM176 737h110
q16 0 24 -15t4 -37l-68 -431q-5 -33 6 -45.5t36 -12.5t39 12.5t19 45.5l68 431q4 22 17.5 37t29.5 15h110q16 0 24.5 -15t4.5 -37l-66 -417q-24 -157 -92 -219.5t-187 -62.5q-47 0 -80.5 7.5t-61.5 26.5t-40.5 50.5t-17 79.5t7.5 114l66 421q4 22 17.5 37t29.5 15z" />
    <glyph glyph-name="V" unicode="V" horiz-adv-x="478" 
d="M299 378l23 314q1 22 -9 42t-36 20h-117q-27 0 -45 -23.5t-21 -45.5q-1 -5 -1 -14l-7 -632q0 -19 11 -37.5t34 -18.5h212q24 0 40 18.5t22 38.5l191 632l3 11q3 24 -7 47.5t-38 23.5h-117q-25 0 -41.5 -20.5t-21.5 -41.5zM580 674l-191 -632q-5 -18 -17.5 -30t-25.5 -12
h-212q-13 0 -21.5 12t-8.5 30l6 632q0 24 15 43.5t33 19.5h117q14 0 22.5 -13.5t6.5 -32.5l-30 -434h14l102 434q5 20 18 33t27 13h117q18 0 26.5 -19t1.5 -44z" />
    <glyph glyph-name="W" unicode="W" horiz-adv-x="732" 
d="M400 233l-19 -186q-2 -22 9 -43t37 -21h201q25 0 42.5 20.5t22.5 41.5l151 633l1 6q4 23 -5.5 46.5t-38.5 23.5h-108q-26 0 -43 -22t-21 -43l-51 -265l19 257q1 23 -9.5 42.5t-35.5 19.5h-134q-26 0 -43 -20t-22 -42l-65 -276l30 285q3 21 -8 42.5t-37 21.5h-107
q-27 0 -44 -23t-21 -46l-1 -7l-46 -633q-1 -23 9.5 -42.5t35.5 -19.5h196q27 0 43.5 21t20.5 43zM71 46l47 633q1 23 15 40.5t31 17.5h107q15 0 23.5 -13.5t6.5 -34.5l-45 -432h15l99 423q5 20 17.5 33t27.5 13h134q15 0 24 -13t7 -33l-31 -423h14l83 431q4 20 17 34.5
t28 14.5h108q17 0 25.5 -17t3.5 -41l-152 -633q-4 -19 -17.5 -32.5t-27.5 -13.5h-201q-15 0 -24 14t-7 34l41 405l-8 1l-89 -406q-5 -20 -17.5 -34t-27.5 -14h-196q-15 0 -24 13t-7 33z" />
    <glyph glyph-name="X" unicode="X" horiz-adv-x="466" 
d="M345 633q-6 -11 -11 -11q-3 0 -4 1l-4 9q-3 15 -3 42q0 17 -1 25q-2 16 -4 24q-8 31 -36 31h-127q-23 0 -37 -18.5t-17 -36.5q-2 -11 0 -20l34 -246q6 -38 0 -77q-9 -46 -26 -81l-104 -216q-4 -9 -6 -20q-3 -18 5 -37t31 -19h125q25 0 44 27q6 11 11 22q2 4 4.5 11.5
l3.5 10.5q9 26 15 35q5 8 9 8t7 -8q3 -12 3 -35q0 -4 0.5 -11t1.5 -11q0 -12 3 -21q8 -28 34 -28h130q24 0 37.5 18.5t16.5 37.5q1 9 0 19l-33 265q-3 26 2 58q6 35 21 67l112 230q5 9 7 21q3 17 -4.5 36t-31.5 19h-121q-26 0 -45 -30q-6 -10 -12 -24q-2 -4 -5.5 -12.5
t-5.5 -12.5q-11 -30 -19 -42zM303 711l6 -80q2 -26 22 -26q18 0 29 23l40 86q12 23 30 23h121q15 0 20 -17.5t-4 -36.5l-112 -230q-33 -67 -25 -135l33 -265q2 -19 -8.5 -36t-25.5 -17h-130q-19 0 -22 26l-5 62q-1 13 -7.5 19.5t-14.5 6.5q-20 0 -30 -26l-26 -62
q-10 -26 -31 -26h-125q-15 0 -20.5 17.5t3.5 36.5l104 216q41 86 27 168l-34 246q-3 19 8.5 36t26.5 17h127q20 0 23 -26z" />
    <glyph glyph-name="Y" unicode="Y" horiz-adv-x="472" 
d="M163 -17h139q22 0 34 17t14 33q2 14 15 106q13 83 18 94q23 45 116 243q99 207 103 229q2 16 -5.5 32.5t-28.5 16.5h-143q-24 0 -44 -33q-2 -5 -5.5 -14t-5.5 -12l-9 -27q-15 -42 -18 -47q-2 -3 -5 -6.5t-3 -4.5q-2 0 -3 1q-3 7 -4 11q-3 11 -3 46v27q0 11 -2 25
q-7 34 -34 34h-144q-21 0 -34 -17t-15 -33q-3 -17 29 -228q6 -46 14.5 -102.5t14.5 -94t7 -47.5q2 -10 -12 -93q-18 -102 -19 -106q-2 -17 5 -33.5t28 -16.5zM305 0h-139q-10 0 -15.5 9.5t-3.5 23.5l30 191q2 10 2 13l-66 455q-2 17 7.5 31t22.5 14h144q16 0 18 -23l7 -98
q2 -23 20 -23q15 0 26 23l39 99q8 22 26 22h143q13 0 17.5 -14.5t-2.5 -30.5l-213 -454q-4 -11 -5 -14l-30 -191q-2 -14 -10 -23.5t-18 -9.5z" />
    <glyph glyph-name="Z" unicode="Z" horiz-adv-x="455" 
d="M256 512l-214 -295q-12 -16 -15 -33l-22 -142q-3 -19 5.5 -39t32.5 -20h363q24 0 39 20t18 39l19 124q2 11 0.5 23.5t-11 24t-26.5 11.5h-125l208 285q10 12 14 33l24 152q3 19 -5.5 39t-32.5 20h-363q-24 0 -39 -20t-18 -39l-20 -124q-3 -19 6 -39t33 -20h129zM105 571
l20 124q3 17 14 29.5t24 12.5h363q13 0 19.5 -12.5t3.5 -29.5l-24 -152q-2 -13 -10 -25l-213 -291l-3 -19h143q13 0 19.5 -12.5t3.5 -29.5l-19 -124q-3 -17 -13.5 -29.5t-23.5 -12.5h-363q-13 0 -20 12.5t-4 29.5l22 142q3 14 11 25l219 301l3 19h-147q-13 0 -20 12.5
t-5 29.5z" />
    <glyph glyph-name="bracketleft" unicode="[" horiz-adv-x="273" 
d="M380 660l20 129q3 16 -5 34t-30 18h-180q-22 0 -35 -17.5t-16 -34.5l-141 -889q-2 -17 5.5 -34.5t29.5 -17.5h180q22 0 35.5 18t15.5 34l21 129q6 39 -30 51l-7 3l-3 2q-3 3 -1 14l77 491q2 10 6 14l4 2l8 3q40 12 46 51zM383 789l-20 -129q-3 -15 -12 -25t-20 -10
t-20.5 -10.5t-11.5 -24.5l-77 -491q-2 -15 3.5 -25t16.5 -10t17 -10.5t4 -24.5l-21 -129q-2 -15 -11 -25t-20 -10h-180q-11 0 -17 10t-4 25l141 889q2 15 11.5 25t20.5 10h180q11 0 16.5 -10t3.5 -25z" />
    <glyph glyph-name="backslash" unicode="\" 
d="M225 -69q4 -26 29 -26q5 0 11 2l16 4q7 2 23.5 6.5t24.5 6.5q45 12 78 21q26 6 32 38q2 13 -48 382q-54 388 -57 414q-3 24 -27 27l-9 -1q-20 -8 -45 -14.5t-55 -14l-46 -11.5q-28 -6 -33 -39q-2 -12 48 -382q51 -367 58 -413zM405 -39l-144 -38l-4 -1q-12 0 -15 14
l-106 782q-1 10 4.5 19.5t13.5 11.5l145 39q2 1 3 1q13 -2 15 -15l105 -782q1 -10 -4 -19t-13 -12z" />
    <glyph glyph-name="bracketright" unicode="]" horiz-adv-x="271" 
d="M122 789l-20 -129q-4 -25 4.5 -35.5t24.5 -15.5l7 -3l1 -1q1 -1 2 -1v-14l-77 -491q-3 -14 -6 -14q0 -1 -3 -2l-8 -3q-39 -12 -45 -51l-21 -129q-1 -10 0 -20.5t9.5 -21t24.5 -10.5h180q23 0 36 17.5t15 34.5l141 889q3 17 -4.5 34.5t-30.5 17.5h-180q-22 0 -35 -17.5
t-15 -34.5zM119 660l20 129q2 15 11 25t20 10h180q11 0 16.5 -10t3.5 -25l-141 -889q-2 -15 -11 -25t-20 -10h-180q-11 0 -16.5 10t-3.5 25l21 129q2 14 11 24.5t19 10.5q11 0 20.5 10t11.5 25l77 491q2 15 -3.5 25t-16.5 10t-16.5 10t-2.5 25z" />
    <glyph glyph-name="underscore" unicode="_" horiz-adv-x="480" 
d="M1 -89l-14 -89q-2 -15 2 -25q8 -18 26 -18h380q19 0 31 18q9 13 11 25l14 89q1 7 0 16t-8 17.5t-20 8.5h-380q-19 0 -29.5 -14t-12.5 -28zM4 -178l14 89q1 10 7.5 17.5t14.5 7.5h380q7 0 11.5 -7t2.5 -18l-14 -89q-5 -26 -22 -26h-380q-8 0 -12 7.5t-2 18.5z" />
    <glyph glyph-name="grave" unicode="`" horiz-adv-x="338" 
d="M373 779h-141q-13 0 -23 -9t-14 -17.5t-5 -16.5q-2 -11 4 -31q3 -10 13 -34q11 -28 25 -56q5 -19 25 -19h105q19 0 30 14.5t13 27.5q3 23 1 56q0 5 -1.5 24t-1.5 28q0 11 -7 22t-23 11zM230 762h141q15 0 15 -19l2 -98q0 -13 -7 -22.5t-16 -9.5h-105q-9 0 -12 10l-40 98
q-4 13 3.5 27t18.5 14z" />
    <glyph glyph-name="a" unicode="a" horiz-adv-x="511" 
d="M487 754h-226q-21 0 -36 -16t-21 -34l-205 -645q-2 -5 -4 -13q-3 -21 6 -42t34 -21h113q26 0 42 21q5 6 11 18q6 15 7 17l6 14q4 8 6 10q3 5 10 5h68q6 0 8 -5l3 -10q1 -5 1 -15q0 -2 1 -8t1 -8q1 -6 5 -18q11 -21 35 -21h119q26 0 41.5 21.5t18.5 41.5q1 5 1 14l-2 644
q0 18 -10.5 34t-32.5 16zM15 56l205 645q4 16 15.5 26t23.5 10h226q26 0 28 -36l2 -644q0 -22 -12.5 -39.5t-28.5 -17.5h-119q-11 0 -19 10t-8 25v15q-1 15 -9 25t-19 10h-68q-27 0 -39 -38l-3 -10q-12 -37 -39 -37h-113q-16 0 -23 17.5t0 38.5zM342 333l9 204h-20l-56 -204
q-7 -21 0.5 -37.5t23.5 -16.5t28.5 16.5t14.5 37.5zM332 479q-2 -115 -8 -153q-2 -13 -9 -21.5t-13 -8.5t-10 8t-2 20q0 2 0.5 4t0.5 3z" />
    <glyph glyph-name="b" unicode="b" horiz-adv-x="486" 
d="M116 690l-102 -643q-3 -21 6 -42.5t35 -21.5h212q111 0 176.5 57.5t82.5 168.5q8 52 8 78q-2 43 -23 75q-6 9 -5 24q1 7 8 17q36 54 53 151q31 200 -182 200h-208q-26 0 -42 -21.5t-19 -42.5zM31 47l102 643q3 19 15.5 33t26.5 14h208q195 0 167 -183q-16 -98 -50 -143
q-10 -13 -11 -31.5t8 -28.5q18 -22 19 -64t-7 -78q-33 -209 -239 -209h-212q-14 0 -22 13.5t-5 33.5zM340 569h-24q-15 0 -20 -23l-11 -72q-4 -23 12 -23h25q23 0 35.5 14.5t17.5 46.5q10 57 -35 57zM302 468v6l11 72l3 6h21q16 0 20.5 -8.5t0.5 -31.5q-4 -25 -11 -34.5
t-22 -9.5h-23zM299 292h-27q-15 0 -20 -24l-11 -74q-2 -9 1.5 -16t10.5 -7h27q29 0 39 13q12 10 18 47q5 34 -4 47.5t-34 13.5zM258 188v6l11 74l3 7h25q18 0 22.5 -9t0.5 -35q-5 -27 -11.5 -35t-25.5 -8h-25z" />
    <glyph glyph-name="c" unicode="c" horiz-adv-x="426" 
d="M439 52l17 109q4 21 -6.5 42t-37.5 20q-72 -5 -89 -5q-32 0 -42.5 8.5t-13.5 37.5q-2 27 3 59q2 12 5.5 33.5t4.5 29.5q1 6 2.5 17t3 20t3.5 17q5 24 14 43q17 36 68 36q15 0 43 -3t42 -3q27 0 42.5 18.5t20.5 41.5q4 19 10.5 56t9.5 53q4 19 -2.5 37.5t-25.5 25.5
q-64 23 -138 23q-147 0 -216 -88q-66 -85 -101 -309q-24 -157 -16 -239q10 -88 58 -125.5t139 -37.5q93 0 156 22q39 13 46 61zM439 161l-17 -109q-1 -16 -10.5 -29t-21.5 -16q-70 -21 -150 -21q-37 0 -65 5.5t-54.5 21t-42.5 46.5t-20 77q-10 86 15 235q34 217 97 300
q62 80 200 80q60 0 132 -22q12 -3 17.5 -16.5t2.5 -30.5l-20 -108q-4 -20 -16 -32t-27 -12q-44 6 -85 6q-56 0 -76 -29q-20 -28 -35 -121q-14 -96 -13 -126q3 -38 19.5 -48.5t50.5 -10.5l91 5q15 1 23 -12t5 -33z" />
    <glyph glyph-name="d" unicode="d" horiz-adv-x="523" 
d="M54 -17h201q69 0 123.5 25t88.5 62t59.5 93t38 104.5t22.5 109.5q10 63 12.5 112t-7 101t-33.5 86t-72 56t-118 22h-193q-26 0 -41 -20.5t-18 -41.5l-103 -647q-3 -21 5.5 -41.5t34.5 -20.5zM258 0h-201q-14 0 -21.5 13t-4.5 32l103 647q3 19 14.5 32t25.5 13h193
q137 0 184.5 -85.5t18.5 -274.5q-30 -189 -103.5 -283t-208.5 -94zM381 364q15 99 6 132q-11 33 -61 33q-13 0 -24.5 -13t-14.5 -32l-37 -231q-3 -19 4.5 -32t20.5 -13q52 0 72.5 38t33.5 118zM372 430q0 -6 -8 -66q-1 -6 -4 -23t-5 -27q-4 -25 -14 -46q-20 -43 -63 -43
q-5 0 -9 8t-2 20l37 231q2 13 8 20.5t11 7.5q39 0 47 -23q5 -16 2 -59z" />
    <glyph glyph-name="e" unicode="e" horiz-adv-x="439" 
d="M119 706l-107 -674q-1 -9 0 -19t9 -20t23 -10h356q21 0 33.5 17t14.5 32l22 141q3 14 -4.5 31t-27.5 17h-171q-1 1 -1 3q-2 3 -2 11q2 10 6 15l3 3h102q20 0 32.5 16t15.5 32l22 139q6 40 -29 48q-9 2 -28 2q-9 0 -29 -2l-26 -3q-9 0 -19 2q-9 2 -7 16q0 6 5 11q2 3 3 3
h170q20 0 32.5 16.5t14.5 31.5l23 141q2 15 -5.5 31.5t-27.5 16.5h-356q-21 0 -33 -16t-14 -32zM29 32l107 674q2 13 10 22t18 9h356q9 0 14.5 -9t3.5 -22l-23 -141q-1 -13 -9.5 -22t-17.5 -9h-170q-10 0 -18 -9.5t-10 -21.5q-2 -13 3 -22.5t15 -9.5h102q9 0 14.5 -9
t3.5 -22l-22 -139q-2 -13 -10.5 -22t-17.5 -9h-102q-10 0 -18 -9.5t-10 -21.5l-1 -4q-2 -13 3 -22t15 -9h170q9 0 14.5 -9.5t3.5 -21.5l-22 -141q-2 -13 -10.5 -22.5t-17.5 -9.5h-356q-10 0 -15 9.5t-3 22.5z" />
    <glyph glyph-name="f" unicode="f" horiz-adv-x="417" 
d="M497 754h-321q-25 0 -40.5 -21t-18.5 -41l-103 -646q-3 -20 6 -41.5t34 -21.5h120q25 0 41 21.5t19 41.5l33 207h108q20 0 32.5 16t15.5 32l22 139q6 40 -29 48q-9 2 -28 2q-9 0 -29 -2l-26 -3q-9 0 -19 2q-9 3 -7 16q0 3 3 9h149q24 0 40 21.5t19 40.5l19 118
q2 20 -6.5 41t-33.5 21zM174 737h321q13 0 20 -13.5t5 -31.5l-19 -118q-3 -18 -14.5 -31.5t-24.5 -13.5h-156q-14 -9 -16 -26q-2 -13 3 -22.5t15 -9.5h102q9 0 14.5 -9t3.5 -22l-22 -139q-2 -13 -10.5 -22t-17.5 -9h-125l-36 -224q-3 -19 -15 -32.5t-25 -13.5h-120
q-14 0 -21.5 13.5t-4.5 32.5l103 646q2 18 14 31.5t26 13.5z" />
    <glyph glyph-name="g" unicode="g" horiz-adv-x="495" 
d="M501 63l52 328q3 21 -6 40t-34 19h-135q-25 0 -39.5 -19.5t-17.5 -39.5l-15 -103q-6 -33 16 -46q-1 -8 -5 -17q-3 -6 -5 -8l-2 -1h-2q-37 0 -42 49q-1 22 2 50q1 9 7 48q2 10 5 30t5 30q6 35 14 57q9 27 30 34q11 4 26 4q11 1 33 1t64 -5t63 -5q27 0 43 20t20 43l16 106
q8 45 -27 61q-28 12 -85 20.5t-94 8.5q-53 0 -96.5 -13t-74.5 -33t-56.5 -52.5t-41.5 -64t-29 -75.5t-20 -78.5t-14 -81.5q-8 -48 -12 -80t-5.5 -77.5t4 -75.5t19.5 -64t38 -54t63 -33t92 -13q38 0 97.5 8t96.5 18q21 6 35 25t17 39zM536 391l-52 -328q-7 -39 -38 -48
q-131 -25 -189 -25q-99 0 -147.5 44.5t-52 129t15.5 206.5q31 201 100 291t212 90q70 0 169 -27l5 -1q25 -11 18 -45l-16 -106q-4 -21 -16.5 -33.5t-27.5 -12.5q-97 10 -126 10q-47 0 -64 -6q-13 -5 -19.5 -9t-13.5 -13.5t-12 -24.5q-7 -23 -24 -120q-6 -38 -8 -59.5
t0.5 -49.5t16 -41.5t39.5 -13.5q11 1 20.5 12t12.5 27l2 17q-10 0 -15 9.5t-3 23.5l15 103q3 18 14 30t24 12h135q14 0 21 -12t4 -30z" />
    <glyph glyph-name="h" unicode="h" horiz-adv-x="524" 
d="M261 214q8 26 19 26h27q11 0 17 -2q10 -5 7 -25l-27 -169q-3 -20 5.5 -40.5t33.5 -20.5h122q25 0 40.5 20.5t18.5 40.5l103 649q3 20 -6 40.5t-34 20.5h-122q-41 0 -57 -57q-5 -17 -10 -46l-6 -51q-5 -61 -14 -90q-9 -28 -20 -28h-26q-10 0 -18 2q-10 5 -6 25l29 184
q3 20 -6 40.5t-34 20.5h-122q-25 0 -40 -20.5t-18 -40.5l-103 -649q-3 -20 5.5 -40.5t33.5 -20.5h122q42 0 57 55q5 17 10 44q4 29 5 47q8 66 14 85zM321 44l27 169q3 19 -4 31.5t-21 12.5h-40q-14 0 -25 -12.5t-14 -31.5l-27 -169q-3 -18 -14.5 -31t-24.5 -13h-122
q-13 0 -20.5 13t-4.5 31l103 649q3 18 14.5 31t24.5 13h122q13 0 20.5 -13t4.5 -31l-29 -184q-3 -18 4.5 -31t20.5 -13h40q13 0 24.5 13t14.5 31l29 184q3 18 14.5 31t24.5 13h122q13 0 20.5 -13t4.5 -31l-103 -649q-3 -18 -14.5 -31t-24.5 -13h-122q-13 0 -20.5 13t-4.5 31
z" />
    <glyph glyph-name="i" unicode="i" horiz-adv-x="234" 
d="M117 694l-103 -650q-2 -11 0 -24t11.5 -25t26.5 -12h123q25 0 40.5 20.5t18.5 40.5l103 650q3 19 -6 39.5t-34 20.5h-123q-24 0 -39 -20.5t-18 -39.5zM31 44l103 650q3 17 14 30t24 13h123q13 0 20.5 -13t4.5 -30l-103 -650q-3 -18 -14.5 -31t-24.5 -13h-123
q-13 0 -20 13t-4 31z" />
    <glyph glyph-name="j" unicode="j" horiz-adv-x="296" 
d="M99 216l-2 -1q-1 -1 -4 -1q-16 0 -24 -2q-46 -7 -54 -62l-19 -117q-3 -21 6 -42.5t35 -21.5h44q115 0 168.5 54.5t72.5 171.5l79 500q3 19 -5 39t-33 20h-125q-24 0 -38.5 -19.5t-17.5 -39.5l-54 -341q0 -1 -4.5 -29.5t-8.5 -48.5q-5 -25 -11 -44q-1 -6 -5 -14l-1 -2h1z
M236 737h125q13 0 19.5 -12.5t3.5 -29.5l-79 -500q-7 -46 -18.5 -80.5t-28 -56.5t-32.5 -35.5t-42 -21t-46.5 -10.5t-53.5 -5h-44q-14 0 -22 13.5t-5 33.5l19 117q3 20 15 33.5t26 13.5h24q7 0 11 7q6 4 9 13q6 16 8 27q9 39 20 110l54 341q3 17 13.5 29.5t23.5 12.5z" />
    <glyph glyph-name="k" unicode="k" horiz-adv-x="487" 
d="M307 495q-2 3 0 7l33 210q2 14 -4.5 28t-25.5 14h-149q-18 0 -29 -15t-12 -27l-109 -687q-1 -7 0 -16t8 -17.5t20 -8.5h149q19 0 30 14t13 28l31 195q0 5 4 7v-2l22 -212q1 -10 8.5 -20t20.5 -10h148q19 0 30 15t13 28q1 4 1 12l-18 181q-15 151 -12 162q2 14 58 151
q59 144 68 168q2 4 4 12q2 14 -4.5 28t-25.5 14h-145q-14 0 -24.5 -10.5t-13.5 -20.5l-88 -225v-1q-1 -1 -1 -2zM245 220l-31 -195q-2 -11 -8.5 -18t-14.5 -7h-149q-7 0 -11.5 7t-2.5 18l109 687q1 10 7.5 17.5t14.5 7.5h149q8 0 12.5 -7t2.5 -18l-33 -210q-2 -11 1.5 -18.5
t11.5 -7.5q14 0 21 18l88 225q5 18 20 18h145q10 0 14 -10t-1 -23l-127 -316q-2 -8 -2 -15l30 -339q2 -12 -5.5 -23t-17.5 -11h-148q-12 0 -15 17l-22 212q-2 16 -14 16h-2q-8 0 -14.5 -7.5t-7.5 -17.5z" />
    <glyph glyph-name="l" unicode="l" horiz-adv-x="391" 
d="M55 -17h292q26 0 42 21t19 42l19 116q7 48 -30 61q-13 4 -32 4q-10 0 -34 -2q-20 -2 -31 -2q-13 0 -22 3q-15 4 -11 28l69 437q4 20 -6 41.5t-35 21.5h-118q-25 0 -41 -21t-20 -42l-102 -645q-3 -21 6.5 -42t34.5 -21zM350 0h-292q-14 0 -22 13.5t-5 32.5l102 645
q3 19 15.5 32.5t26.5 13.5h118q14 0 21.5 -13.5t4.5 -32.5l-69 -437q-3 -19 4.5 -32.5t21.5 -13.5h107q14 0 22 -13.5t5 -32.5l-19 -116q-3 -19 -15 -32.5t-26 -13.5z" />
    <glyph glyph-name="m" unicode="m" horiz-adv-x="684" 
d="M253 167l-4 -123q-1 -19 9 -36t33 -17h99q22 0 37.5 17.5t20.5 35.5l36 128l-20 -126q-3 -21 6.5 -42t34.5 -21h118q26 0 42 21t19 42l102 645q4 21 -5.5 42t-35.5 21h-222q-34 0 -52 -39q-10 -19 -20 -63q-8 -42 -14 -58q-3 -9 -5 -11q0 1 -0.5 5t-0.5 7q0 6 2 57
q4 40 0 64q-8 38 -41 38h-215q-25 0 -41 -21t-20 -42l-102 -645q-3 -21 6.5 -42t34.5 -21h118q25 0 41.5 21.5t19.5 41.5zM31 46l102 645q3 19 15.5 32.5t26.5 13.5h215q25 0 27 -36l-3 -118q1 -19 15 -19q15 0 21 20l32 115q4 16 15.5 27t23.5 11h222q14 0 21.5 -13.5
t4.5 -32.5l-102 -645q-3 -19 -15 -32.5t-26 -13.5h-118q-14 0 -22 13.5t-5 32.5l53 334h-8l-95 -334q-4 -16 -15.5 -27t-23.5 -11h-99q-12 0 -19.5 10.5t-7.5 27.5l12 334h-8l-53 -334q-3 -19 -15 -32.5t-26 -13.5h-118q-14 0 -22 13.5t-5 32.5z" />
    <glyph glyph-name="n" unicode="n" horiz-adv-x="550" 
d="M262 220l59 -203q10 -34 39 -34h130q26 0 41.5 21.5t18.5 41.5l102 645q3 20 -5.5 41.5t-34.5 21.5h-119q-37 0 -56 -49q-9 -27 -15 -82q-7 -63 -10 -76q0 -3 -1 -6l-2 -6t-1 -4l-62 191q-11 32 -40 32h-129q-25 0 -41 -21t-20 -42l-102 -645q-3 -21 6.5 -42t34.5 -21
h118q41 0 58 52q10 28 16 87q11 81 11 82q2 12 4 16zM31 46l102 645q3 19 15.5 32.5t26.5 13.5h129q18 0 25 -22l63 -195q5 -10 13 -10q7 0 13 6t7 16l25 159q3 19 15 32.5t26 13.5h119q13 0 20.5 -13.5t4.5 -32.5l-102 -645q-3 -19 -15 -32.5t-25 -13.5h-130q-22 0 -25 24
l-61 208q-3 11 -13 11q-6 0 -12 -6.5t-7 -16.5l-28 -174q-3 -19 -15 -32.5t-26 -13.5h-118q-14 0 -22 13.5t-5 32.5z" />
    <glyph glyph-name="o" unicode="o" horiz-adv-x="536" 
d="M264 -31q70 0 125.5 25.5t89.5 63t59.5 94.5t37.5 106t22 111q8 51 11.5 92.5t2 90t-15 85t-37.5 67.5t-67 47.5t-102 16.5q-71 0 -126.5 -25t-89.5 -62.5t-59.5 -94t-37.5 -105.5t-22 -111q-7 -43 -10.5 -79t-3 -78.5t7 -76t22 -66t40 -54t63.5 -34.5t90 -13zM581 369
q-30 -193 -103.5 -288t-210.5 -95q-138 0 -182 95.5t-13 288.5q30 193 103.5 287t211.5 94t181.5 -94t12.5 -288zM258 369q-15 -92 -7 -135q6 -41 49 -41q41 0 60 40q18 39 35 137q14 99 8 135q-6 40 -48 40q-43 0 -61 -41q-21 -42 -36 -135zM268 320q1 11 7 49l8 49
q9 38 15 55q20 55 55 55q33 0 36 -55q1 -23 -4 -55q-1 -9 -7 -48l-8 -49q-4 -26 -14 -55q-20 -56 -54 -56t-37 55q-1 19 3 55z" />
    <glyph glyph-name="p" unicode="p" horiz-adv-x="490" 
d="M46 -17h136q33 0 46 38q6 15 7 28q2 8 4 30q6 39 10 49q3 9 5 11h2q77 0 133 21.5t91 65t54.5 97t31.5 127.5q14 96 5 163.5t-62 104t-156 36.5h-185q-22 0 -34.5 -17t-15.5 -34l-106 -669q-2 -17 5 -34t29 -17zM259 156q-10 0 -19 -10t-11 -24l-14 -88q-2 -14 -11 -24
t-19 -10h-136q-11 0 -16.5 10t-3.5 24l106 669q2 14 11 24t20 10h185q50 0 84.5 -7.5t63.5 -26.5t41.5 -51.5t17 -82.5t-8.5 -119q-26 -166 -95 -230t-195 -64zM311 536h-16l-28 -178h16q35 0 52.5 21.5t25.5 70.5q8 50 -3 68t-47 18zM286 375l23 144q29 0 35.5 -15.5
t-0.5 -53.5q-7 -40 -18.5 -57.5t-39.5 -17.5z" />
    <glyph glyph-name="q" unicode="q" horiz-adv-x="534" 
d="M388 768q-71 0 -126.5 -25t-89.5 -62t-59 -94.5t-37 -105.5t-22 -112q-7 -44 -10.5 -79.5t-3.5 -78.5t6.5 -75.5t21.5 -65t39.5 -54t63.5 -34.5t90 -13q12 0 18 -18l30 -89q13 -35 46 -35q19 0 31 8q20 12 31 18l33 22q40 29 46 71q3 15 -1 31q-1 10 -7 26q-9 30 -7 44
q3 15 12 28q76 115 101 281q9 54 12.5 95t3.5 92.5t-13 88t-36.5 69.5t-67.5 50t-105 17zM264 -14q-138 0 -181 94t-12 289q31 196 103 289t211 93q143 0 183.5 -95.5t8.5 -299.5q-28 -180 -98 -273q-25 -33 -13 -71l11 -33q7 -22 -2 -48.5t-29 -39.5l-68 -42q-12 -5 -21 -5
q-23 0 -32 26l-29 89q-10 27 -32 27zM253 369q-4 -25 -5.5 -39t-3.5 -38t0.5 -39t7.5 -30t16.5 -22.5t28.5 -7.5q42 0 60 41q21 42 36 136q14 95 7 134q-6 41 -48 41q-17 0 -30.5 -7.5t-23.5 -23t-17 -29.5t-12.5 -38.5t-8.5 -38.5t-7 -39zM263 321q1 9 7 48q4 24 9 48
q5 31 15 55q20 56 56 56q33 0 36 -55q1 -19 -3 -55q-2 -18 -7 -48l-8 -48q-8 -38 -15 -56q-20 -56 -54 -56q-35 0 -38 56q-1 24 2 55z" />
    <glyph glyph-name="r" unicode="r" horiz-adv-x="494" 
d="M259 172q1 1 4 1q1 -1 1 -2q4 -4 5 -15q3 -20 -1 -63q0 -6 -0.5 -18t-0.5 -17q0 -23 1 -33q5 -42 35 -42h135q22 0 35 17t15 34q4 20 2 52q-2 29 -6 55q-8 74 -4 99q1 6 6 14q66 79 86 216q14 91 5 154.5t-60 96.5t-148 33h-200q-22 0 -35 -17t-16 -35l-105 -667
q-3 -18 4 -35t30 -17h134q35 0 49 44q4 11 8 33q2 12 4 36q6 50 10 62q4 11 7 14zM265 190q-11 0 -19.5 -10t-10.5 -25l-19 -120q-3 -15 -12 -25t-20 -10h-134q-11 0 -17 10t-3 25l105 667q2 15 11.5 25t20.5 10h200q47 0 79.5 -6.5t60.5 -24t39.5 -47.5t16.5 -76.5
t-8 -112.5q-21 -140 -81 -207q-14 -14 -12 -33l10 -186q1 -17 -8.5 -30.5t-22.5 -13.5h-135q-20 0 -20 28l-1 135q0 12 -6 19.5t-14 7.5zM296 392h20q40 0 51 71q12 73 -32 73h-16q-10 0 -19.5 -10.5t-11.5 -24.5l-11 -74q-3 -15 2.5 -25t16.5 -10zM319 409h-20
q-1 0 -2.5 1.5t-3 5.5t0.5 11l11 74q4 18 11 18h16q14 0 19 -15q4 -16 -1 -41q-4 -26 -11 -40q-8 -14 -20 -14z" />
    <glyph glyph-name="s" unicode="s" horiz-adv-x="462" 
d="M543 581q12 64 17 96q4 22 -4 42t-29 27q-66 22 -180 22q-69 0 -118 -19.5t-79.5 -58t-48 -85.5t-27.5 -112q-20 -120 17 -178q36 -56 148 -82q2 0 6 -1t10 -2t10 -2q5 -2 15 -4q1 -1 4 -1q1 -1 1 -3q-2 -3 -5 -5q-8 -3 -20 -3q-46 0 -113 9q-7 1 -23 5q-24 3 -27 3
q-25 0 -43 -21.5t-23 -43.5q-14 -64 -19 -96q-9 -54 30 -70q72 -30 195 -30q126 0 188.5 71t83.5 199q8 52 8 87t-8 62.5t-29 47t-50 34t-76 28.5q-2 1 -16.5 5t-22.5 7q-11 5 -13 9q-2 1 -2 4q4 2 12 3t22.5 0t16.5 -1q39 0 80 -6q3 0 10 -1.5t9 -1.5q14 -2 22 -2
q29 0 47.5 20.5t23.5 47.5zM543 677l-17 -96q-4 -24 -18.5 -37.5t-32.5 -13.5q-73 11 -121 11q-50 0 -61 -3q-8 -4 -10 -17q-3 -12 7 -18q7 -7 56 -22q27 -8 38.5 -12.5t37.5 -17t39 -25t25 -34.5t14 -49q2 -44 -8 -105q-22 -139 -84.5 -196t-167.5 -57q-109 0 -190 29
q-28 10 -21 54l19 95q5 20 18.5 34.5t28.5 14.5q94 -17 162 -17q40 0 45 25q1 11 -6 17q-9 4 -50 13q-109 24 -140 76q-33 49 -15 167q23 145 83 201.5t170 56.5q83 0 175 -21h1q13 -3 19.5 -18.5t3.5 -34.5z" />
    <glyph glyph-name="t" unicode="t" horiz-adv-x="415" 
d="M98 684l-16 -103q-4 -23 0.5 -37.5t16.5 -21t20 -8t24 -2.5q12 0 18 -1q3 -1 7 -3l4 -1q8 -8 4 -31l-67 -424q-3 -23 6 -46t37 -23h111q28 0 45 23.5t20 45.5l67 424q5 25 14 30q4 3 11 4q12 2 17 2q14 1 23.5 3t22.5 8.5t21 21t12 36.5l16 103q1 12 0.5 27.5t-12 29
t-31.5 13.5h-324q-28 0 -45.5 -23t-21.5 -47zM99 581l16 103q4 22 17.5 37.5t30.5 15.5h324q15 0 23.5 -15.5t4.5 -37.5l-16 -103q-4 -22 -17 -37t-28 -15h-29q-16 0 -29.5 -15.5t-17.5 -37.5l-67 -424q-3 -21 -16.5 -36.5t-28.5 -15.5h-111q-16 0 -24 15t-5 37l67 424
q4 22 -4.5 37.5t-24.5 15.5h-34q-17 0 -26 15t-5 37z" />
    <glyph glyph-name="u" unicode="u" horiz-adv-x="513" 
d="M288 754h-110q-27 0 -44.5 -23t-21.5 -46l-66 -421q-24 -146 20 -220.5t186 -74.5t209 76.5t90 222.5l66 417q4 23 -6 46t-38 23h-110q-27 0 -44.5 -23t-21.5 -46l-68 -431q-4 -25 -11.5 -33t-26.5 -8q-20 0 -26 8.5t-2 32.5l68 431q4 23 -5.5 46t-37.5 23zM176 737h110
q16 0 24 -15t4 -37l-68 -431q-5 -33 6 -45.5t36 -12.5t39 12.5t19 45.5l68 431q4 22 17.5 37t29.5 15h110q16 0 24.5 -15t4.5 -37l-66 -417q-24 -157 -92 -219.5t-187 -62.5q-47 0 -80.5 7.5t-61.5 26.5t-40.5 50.5t-17 79.5t7.5 114l66 421q4 22 17.5 37t29.5 15z" />
    <glyph glyph-name="v" unicode="v" horiz-adv-x="478" 
d="M299 378l23 314q1 22 -9 42t-36 20h-117q-27 0 -45 -23.5t-21 -45.5q-1 -5 -1 -14l-7 -632q0 -19 11 -37.5t34 -18.5h212q24 0 40 18.5t22 38.5l191 632l3 11q3 24 -7 47.5t-38 23.5h-117q-25 0 -41.5 -20.5t-21.5 -41.5zM580 674l-191 -632q-5 -18 -17.5 -30t-25.5 -12
h-212q-13 0 -21.5 12t-8.5 30l6 632q0 24 15 43.5t33 19.5h117q14 0 22.5 -13.5t6.5 -32.5l-30 -434h14l102 434q5 20 18 33t27 13h117q18 0 26.5 -19t1.5 -44z" />
    <glyph glyph-name="w" unicode="w" horiz-adv-x="732" 
d="M400 233l-19 -186q-2 -22 9 -43t37 -21h201q25 0 42.5 20.5t22.5 41.5l151 633l1 6q4 23 -5.5 46.5t-38.5 23.5h-108q-26 0 -43 -22t-21 -43l-51 -265l19 257q1 23 -9.5 42.5t-35.5 19.5h-134q-26 0 -43 -20t-22 -42l-65 -276l30 285q3 21 -8 42.5t-37 21.5h-107
q-27 0 -44 -23t-21 -46l-1 -7l-46 -633q-1 -23 9.5 -42.5t35.5 -19.5h196q27 0 43.5 21t20.5 43zM71 46l47 633q1 23 15 40.5t31 17.5h107q15 0 23.5 -13.5t6.5 -34.5l-45 -432h15l99 423q5 20 17.5 33t27.5 13h134q15 0 24 -13t7 -33l-31 -423h14l83 431q4 20 17 34.5
t28 14.5h108q17 0 25.5 -17t3.5 -41l-152 -633q-4 -19 -17.5 -32.5t-27.5 -13.5h-201q-15 0 -24 14t-7 34l41 405l-8 1l-89 -406q-5 -20 -17.5 -34t-27.5 -14h-196q-15 0 -24 13t-7 33z" />
    <glyph glyph-name="x" unicode="x" horiz-adv-x="466" 
d="M345 633q-6 -11 -11 -11q-3 0 -4 1l-4 9q-3 15 -3 42q0 17 -1 25q-2 16 -4 24q-8 31 -36 31h-127q-23 0 -37 -18.5t-17 -36.5q-2 -11 0 -20l34 -246q6 -38 0 -77q-9 -46 -26 -81l-104 -216q-4 -9 -6 -20q-3 -18 5 -37t31 -19h125q25 0 44 27q6 11 11 22q2 4 4.5 11.5
l3.5 10.5q9 26 15 35q5 8 9 8t7 -8q3 -12 3 -35q0 -4 0.5 -11t1.5 -11q0 -12 3 -21q8 -28 34 -28h130q24 0 37.5 18.5t16.5 37.5q1 9 0 19l-33 265q-3 26 2 58q6 35 21 67l112 230q5 9 7 21q3 17 -4.5 36t-31.5 19h-121q-26 0 -45 -30q-6 -10 -12 -24q-2 -4 -5.5 -12.5
t-5.5 -12.5q-11 -30 -19 -42zM303 711l6 -80q2 -26 22 -26q18 0 29 23l40 86q12 23 30 23h121q15 0 20 -17.5t-4 -36.5l-112 -230q-33 -67 -25 -135l33 -265q2 -19 -8.5 -36t-25.5 -17h-130q-19 0 -22 26l-5 62q-1 13 -7.5 19.5t-14.5 6.5q-20 0 -30 -26l-26 -62
q-10 -26 -31 -26h-125q-15 0 -20.5 17.5t3.5 36.5l104 216q41 86 27 168l-34 246q-3 19 8.5 36t26.5 17h127q20 0 23 -26z" />
    <glyph glyph-name="y" unicode="y" horiz-adv-x="472" 
d="M163 -17h139q22 0 34 17t14 33q2 14 15 106q13 83 18 94q23 45 116 243q99 207 103 229q2 16 -5.5 32.5t-28.5 16.5h-143q-24 0 -44 -33q-2 -5 -5.5 -14t-5.5 -12l-9 -27q-15 -42 -18 -47q-2 -3 -5 -6.5t-3 -4.5q-2 0 -3 1q-3 7 -4 11q-3 11 -3 46v27q0 11 -2 25
q-7 34 -34 34h-144q-21 0 -34 -17t-15 -33q-3 -17 29 -228q6 -46 14.5 -102.5t14.5 -94t7 -47.5q2 -10 -12 -93q-18 -102 -19 -106q-2 -17 5 -33.5t28 -16.5zM305 0h-139q-10 0 -15.5 9.5t-3.5 23.5l30 191q2 10 2 13l-66 455q-2 17 7.5 31t22.5 14h144q16 0 18 -23l7 -98
q2 -23 20 -23q15 0 26 23l39 99q8 22 26 22h143q13 0 17.5 -14.5t-2.5 -30.5l-213 -454q-4 -11 -5 -14l-30 -191q-2 -14 -10 -23.5t-18 -9.5z" />
    <glyph glyph-name="z" unicode="z" horiz-adv-x="455" 
d="M256 512l-214 -295q-12 -16 -15 -33l-22 -142q-3 -19 5.5 -39t32.5 -20h363q24 0 39 20t18 39l19 124q2 11 0.5 23.5t-11 24t-26.5 11.5h-125l208 285q10 12 14 33l24 152q3 19 -5.5 39t-32.5 20h-363q-24 0 -39 -20t-18 -39l-20 -124q-3 -19 6 -39t33 -20h129zM105 571
l20 124q3 17 14 29.5t24 12.5h363q13 0 19.5 -12.5t3.5 -29.5l-24 -152q-2 -13 -10 -25l-213 -291l-3 -19h143q13 0 19.5 -12.5t3.5 -29.5l-19 -124q-3 -17 -13.5 -29.5t-23.5 -12.5h-363q-13 0 -20 12.5t-4 29.5l22 142q3 14 11 25l219 301l3 19h-147q-13 0 -20 12.5
t-5 29.5z" />
    <glyph glyph-name="braceleft" unicode="{" horiz-adv-x="289" 
d="M314 481q3 17 6.5 48t4.5 41q5 30 13 40q4 5 12 8l11 3q10 4 16 8q16 12 21 41l21 131q3 17 -4.5 34.5t-30.5 17.5q-121 0 -182 -45.5t-80 -165.5q-5 -32 -10.5 -93.5t-6.5 -73.5q0 -3 -1 -5l-1 -3l-1 -1q-2 -1 -3 -2l-6 -4q-28 -18 -33 -49l-21 -135q-3 -19 4 -30
q1 -2 2 -3.5l2 -3t2 -2.5q4 -4 7 -6q5 -5 6 -8q2 -4 1 -14q-4 -27 -18 -82.5t-18 -84.5q-18 -116 31.5 -161t164.5 -45q22 0 35.5 18t15.5 34l21 132q5 27 -8 40q-3 3 -13 8q-6 2 -10 4q-7 3 -9 9q-5 12 0 43q3 20 10.5 57t9.5 51q8 50 2 81q-1 3 -5 14l-4 10q-3 6 -3 16
q1 5 7 15q6 6 8 10q6 6 10 14q15 28 24 89zM308 570l-11 -89q-9 -57 -22 -83q-6 -10 -15 -21q-22 -24 -8 -49q7 -12 8 -21q6 -24 -2 -75l-20 -108q-7 -41 2 -56q8 -10 23 -14q20 -6 15 -34l-21 -132q-2 -15 -11 -25t-20 -10q-18 0 -31 1t-30.5 2.5t-29.5 4.5t-26 8
t-23.5 12.5t-19.5 18t-15 24t-8.5 31t-3 39.5t4.5 48q4 28 19 89q15 60 17 78q5 27 -14 37q-13 10 -10 30l21 135q3 24 20 33q22 10 25 32l17 166q15 95 51 132q41 42 91 53q35 7 100 9q11 1 17 -9.5t4 -25.5l-21 -131q-5 -30 -26 -35q-20 -3 -27 -12q-14 -14 -20 -53z" />
    <glyph glyph-name="bar" unicode="|" horiz-adv-x="229" 
d="M128 746l-152 -961q-2 -14 4.5 -29t25.5 -15h135q19 0 30.5 15t13.5 29l152 961q2 14 -4.5 29t-25.5 15h-135q-19 0 -30.5 -15t-13.5 -29zM-7 -215l152 961q2 11 9 19t15 8h135q8 0 13 -8t3 -19l-152 -961q-1 -11 -8.5 -19t-15.5 -8h-135q-8 0 -13 8t-3 19z" />
    <glyph glyph-name="braceright" unicode="}" horiz-adv-x="287" 
d="M82 206q-3 -17 -6.5 -48t-4.5 -41q-4 -25 -13 -40q-4 -5 -12 -8q-8 -2 -12 -4q-7 -2 -15 -8q-17 -15 -22 -42l-20 -128q-3 -18 5 -36t31 -18q119 0 180.5 46t80.5 165q2 11 16 167q1 6 3 8l3 3q6 4 7 5q28 18 33 48l20 130q5 33 -16 50q0 1 -2 2.5t-2 2.5l-3 3q-2 5 0 14
q4 29 18 85t18 83q18 114 -31 160t-164 46q-22 0 -36 -18t-17 -35l-20 -130q-5 -27 8 -40q5 -5 13 -9q6 -2 9 -4q8 -3 10 -10q5 -14 0 -43q-3 -18 -10 -54t-10 -54q-7 -46 -2 -79q0 -3 1 -5.5t2 -5.5t1 -4q2 -4 4 -10q3 -9 2 -16t-7 -16l-7 -10q-1 -2 -3 -4.5t-3.5 -5
t-2.5 -5.5q-16 -34 -24 -87zM88 117l11 89q9 57 23 82q4 11 13 20q22 26 8 52q-6 9 -7 20q-5 27 2 74l20 108q7 41 -2 56q-5 9 -22 15q-21 5 -16 35l20 130q2 14 12 25t21 11q129 -3 161 -50q35 -43 20 -139q-3 -22 -18 -89q-17 -66 -18 -79q-5 -25 14 -37q14 -8 9 -35
l-20 -130q-5 -25 -22 -33q-21 -10 -24 -32l-16 -166q-15 -93 -51 -131q-38 -42 -92 -53q-48 -9 -99 -10q-11 -1 -17 10t-4 27l20 128q5 30 28 37q20 4 27 12q11 11 19 53z" />
    <glyph glyph-name="asciitilde" unicode="~" 
d="M238 166q46 -25 78 -25t82.5 37t55.5 69q3 16 1 56q-1 12 -2.5 31.5t-1.5 21.5q0 12 -8 23t-23 11q-5 0 -11 -2q-3 0 -9 -3q-6 -2 -20 -8q-3 -2 -20 -7q-6 -3 -10 -3q-6 0 -18 6l-33 14q-50 23 -82 23q-46 0 -89 -39t-50 -85q-4 -20 -2 -48q3 -42 3 -43q3 -34 29 -34
q7 0 11 2q6 2 9 4q10 3 20 9q14 6 20 8q10 3 12 3q9 0 24 -6q6 -2 17.5 -7.5t16.5 -7.5zM319 158q-27 0 -75 24q-52 22 -62 22q-13 0 -63 -24l-8 -2q-15 0 -15 20l-3 69q-2 51 36 84q10 10 19 15q38 27 66 27q30 0 76 -21q50 -22 57 -22q8 0 64 22q2 1 6 1q15 0 17 -20
l4 -101q-2 -18 -11 -26q-68 -68 -108 -68z" />
    <glyph glyph-name="exclamdown" unicode="&#xa1;" horiz-adv-x="232" 
d="M284 381l21 132q3 20 -5 40t-33 20h-120q-25 0 -40 -20t-18 -40l-21 -132q-3 -20 5 -40t34 -20h120q25 0 39.5 20t17.5 40zM288 513l-21 -132q-3 -19 -13.5 -31t-23.5 -12h-120q-14 0 -21 12t-4 31l21 132q3 18 14 30.5t24 12.5h120q13 0 20 -12.5t4 -30.5zM149 -199
q25 0 40.5 21t17.5 40l51 384q2 19 -6 38.5t-32 19.5h-112q-24 0 -38.5 -19.5t-17.5 -38.5l-71 -384q-2 -11 0 -24t11.5 -25t26.5 -12h130zM241 246l-51 -384q-3 -18 -14 -31t-24 -13h-130q-13 0 -20 13t-4 31l71 384q2 16 13 28.5t23 12.5h112q12 0 19 -12t5 -29z" />
    <glyph glyph-name="sterling" unicode="&#xa3;" 
d="M111 328l-15 -96q-2 -8 -3 -9l-1 -2q-1 0 -3 -2q-2 0 -8 -2q-39 -8 -45 -46l-22 -140q-2 -15 5 -31.5t27 -16.5h276q8 0 41 5l37 8q17 3 28 17.5t14 29.5q2 12 13 144q1 14 -6.5 28.5t-25.5 14.5q-7 0 -23 -2q-2 0 -9 -1.5t-11 -2.5q-21 -6 -35 -6h-51l-2 3q-2 7 -1 11
l15 96q1 8 4 11q0 2 4 2q6 2 12 2q12 0 18 -1q4 0 11.5 -0.5t10.5 -0.5q11 0 23 3q30 11 36 45q5 38 -20 50q-7 3 -23 5q-3 0 -10.5 -0.5t-11.5 -0.5q-12 -2 -19 -2q-6 0 -12 2q-1 0 -3 2q-1 3 0 10q6 39 18.5 52t47.5 13q11 0 32 -1.5t31 -1.5q19 0 30.5 16.5t14.5 29.5
q23 122 24 130q4 26 -23 40q-20 11 -48 14q-40 7 -89 7q-48 0 -86 -16t-61 -39.5t-40 -60.5t-25 -69.5t-15 -75.5q-1 -3 -2.5 -17t-3.5 -22q-1 -3 -2.5 -5.5t-3 -4t-1.5 -2.5q-21 0 -35.5 -14t-17.5 -34q-6 -41 30 -52q3 0 7 -2h2l1 -1v-2q1 -1 0 -9zM113 232l15 96
q2 12 -3 21.5t-14 9.5h-5q-9 0 -14.5 9t-3.5 21v5q2 12 10.5 21.5t17.5 9.5h5q9 0 17.5 9t9.5 21l2 15q11 81 30 134.5t47.5 82t60 39.5t74.5 11q77 0 128 -18l2 -1q19 -4 14 -30l-23 -125q-3 -13 -11.5 -21.5t-16.5 -7.5q-9 0 -29.5 1.5t-30.5 1.5q-40 0 -59 -17t-27 -65
q-2 -12 3 -21t14 -9h65q9 0 14 -9.5t3 -21.5v-5q-2 -12 -10 -21t-17 -9h-65q-9 0 -17 -9.5t-10 -21.5l-15 -96q-2 -12 3 -21.5t14 -9.5h51l74 12q11 1 16.5 -6.5t4.5 -20.5l-12 -139q-1 -12 -8.5 -22t-16.5 -12l-75 -13h-276q-9 0 -14.5 9t-3.5 22l22 140q2 12 10.5 21
t17.5 9h5q9 0 17 9.5t10 21.5z" />
    <glyph glyph-name="yen" unicode="&#xa5;" horiz-adv-x="465" 
d="M547 740q18 0 23.5 -13.5t3.5 -25.5q-2 -14 -23 -62q-18 -39 -41 -85q-58 -115 -61 -138q-1 -3 0 -4h8h15q27 0 27 -34q-1 -6 -5 -28q-1 -11 -10.5 -24.5t-27.5 -13.5h-54l-1 -1q-1 -1 -1 -2q-4 -4 -11 -22q-10 -25 -13 -42h70q26 0 26 -34q0 -8 -4 -28q-4 -31 -35 -38
q-7 -2 -21 -2q-6 0 -20 2q-6 1 -17 1h-12l-2 -1l-2 -4l-19 -120q-1 -11 -10.5 -24.5t-27.5 -13.5h-150q-11 0 -18 7.5t-8.5 15.5t-0.5 15l19 120v4h-67q-27 0 -27 33q0 6 2 18q0 2 0.5 4.5t1 4t0.5 2.5q2 12 12.5 25t26.5 13h68q0 2 0.5 4.5t1 4t0.5 2.5q1 6 -1 25
q-4 23 -5 31h-54q-27 0 -27 33q0 6 2 18q2 10 2 11q5 26 24 34l16 4h12h9h3v4q4 25 -15 138q-3 18 -8 50.5t-5 34.5q-5 41 -2 63q1 10 11 24t27 14h154q15 0 22 -13q5 -10 5 -21q1 -18 -2 -49q-3 -28 -2 -43v-2l1 2q5 15 12 43q7 30 14 49q6 14 12 21q11 13 26 13h153z
M555 694q5 10 1.5 19.5t-11.5 9.5h-153q-5 0 -11 -5.5t-7 -12.5l-31 -99q-4 -17 -18 -17q-13 0 -12 17l3 99q-2 18 -12 18h-154q-8 0 -14 -9.5t-5 -19.5l30 -270q2 -11 -4 -20t-14 -9h-26q-6 0 -12.5 -6.5t-7.5 -14.5l-4 -24q-1 -8 3 -14.5t10 -6.5h56q10 0 12 -13l6 -52v-8
l-3 -18q-2 -10 -9 -10h-78q-6 0 -11.5 -6.5t-7.5 -14.5l-4 -24q-1 -8 3 -14.5t10 -6.5h70q15 0 11 -21l-19 -120q-2 -21 13 -21h150q7 0 12 6.5t6 14.5l19 120q2 8 7.5 14.5t12.5 6.5h71q14 0 18 21l4 24q2 8 -1.5 14.5t-10.5 6.5h-80q-7 0 -5 10l3 18q0 5 3 8l21 52
q7 13 17 13h57q7 0 12 6.5t6 14.5l4 24q4 21 -11 21h-25q-9 0 -12.5 9.5t1.5 19.5z" />
    <glyph glyph-name="dieresis" unicode="&#xa8;" horiz-adv-x="334" 
d="M124 749l-18 -110q-1 -7 0 -15.5t8 -17t20 -8.5h94q18 0 28.5 14.5t11.5 26.5l18 110q1 7 0 15.5t-8 17t-20 8.5h-94q-18 0 -28.5 -14.5t-11.5 -26.5zM289 749l-18 -110q-1 -7 0.5 -16t8.5 -17t20 -8h93q18 0 28.5 14t12.5 27l18 110q1 7 -0.5 16t-8.5 17t-20 8h-93
q-18 0 -28.5 -14t-12.5 -27zM123 639l18 110q2 10 7.5 17t12.5 7h94q7 0 11 -7t3 -17l-18 -110q-1 -10 -7.5 -17t-13.5 -7h-94q-7 0 -10.5 7t-2.5 17zM288 639l18 110q4 24 21 24h93q8 0 12 -7t3 -17l-18 -110q-2 -10 -8.5 -17t-13.5 -7h-93q-7 0 -11.5 7t-2.5 17z" />
    <glyph glyph-name="copyright" unicode="&#xa9;" horiz-adv-x="478" 
d="M77 479q-5 -35 -5.5 -71t5 -74t20 -71t36 -59t55.5 -41t76 -15q62 0 115 32t87 83t55.5 105t29.5 107q5 34 5.5 70t-4.5 74t-18.5 71t-34.5 59.5t-54.5 42t-75.5 15.5q-63 0 -116.5 -32t-88.5 -83t-57 -105.5t-30 -107.5zM267 165q-97 0 -145.5 89.5t-27.5 224.5
q21 134 97.5 222.5t174.5 88.5q97 0 143 -90t25 -225q-21 -134 -96 -222t-171 -88zM144 477q-17 -103 20 -174.5t112 -71.5q74 0 133.5 71.5t75.5 173.5q17 103 -20 175.5t-112 72.5q-74 0 -133.5 -72.5t-75.5 -174.5zM278 248q-49 0 -80.5 37t-37 88t0.5 104
q13 85 65 157.5t124 72.5q49 0 80 -37.5t39 -88.5t-1 -105q-13 -85 -65.5 -156.5t-124.5 -71.5zM370 302q18 13 21 31q0 1 3 16.5t4 25.5q2 17 -2 28q-6 20 -26 19q-30 -1 -46 0q-10 1 -13 4q-2 2 -1 16q1 15 6 46q1 5 4 24q4 15 6 18q4 11 22 11q8 0 22 -1t22 -1
q18 0 29 20q5 11 9 27q2 7 3.5 15.5t2.5 15.5t1 8q6 31 -35 45q-22 5 -50 5q-84 0 -122 -66q-15 -25 -23 -62q-3 -11 -13 -65q-6 -40 -8 -64q-3 -36 2 -62q15 -70 98 -70h23q20 2 30 4q17 3 31 12zM381 384l-7 -51q-3 -16 -16 -21q-36 -9 -69 -9q-46 0 -66.5 22t-20 61.5
t8.5 95.5q15 96 43.5 136t94.5 40q29 0 62 -10q5 -2 7.5 -8.5t1.5 -13.5l-10 -51q-2 -9 -7.5 -14.5t-12.5 -4.5q-28 2 -40 2q-26 0 -35 -14.5t-16 -55.5q-6 -43 -5 -58q0 -17 8 -22q7 -5 24 -5l42 2q7 1 11 -5.5t2 -15.5z" />
    <glyph glyph-name="guillemotleft" unicode="&#xab;" horiz-adv-x="499" 
d="M248 244q-6 23 -4 34q1 13 15 34q4 8 31 44q21 28 33 46q18 29 20 48q5 32 -15 46l-72 50l-6 4q-6 3 -12 3q-26 0 -43 -25l-148 -226q-7 -9 -9 -23q0 -3 -2 -13q0 -11 2 -17l77 -221q10 -24 34 -24q2 0 14 3q3 2 13 6l31 17q12 7 30 18t21 13q27 16 31 47q3 18 -5 48
q-5 15 -19 45q-17 41 -17 43zM464 244q-6 23 -4 34q1 13 15 34q4 8 31 44q21 28 33 46q18 29 20 48q5 32 -15 46l-72 50l-6 4q-6 3 -12 3q-26 0 -43 -25l-148 -226q-7 -9 -9 -23q0 -3 -2 -13q0 -11 2 -17l77 -221q9 -24 33 -24q2 0 14 3q7 2 14 6l9 4.5t11.5 6.5t10.5 6
q12 7 29.5 18t21.5 13q24 13 31 47q3 22 -6 49q-5 17 -18 45q-15 35 -17 42zM318 429l-84 -130q-12 -20 -6 -42l42 -128q5 -14 -1 -30.5t-18 -23.5l-89 -51q-6 -3 -11 -3q-15 0 -19 15l-77 221q-3 6 -1 16l1 6q1 7 6 15l148 226q11 16 26 16q6 0 9 -4l72 -50q10 -7 11 -23
t-9 -30zM534 429l-84 -130q-12 -20 -6 -42l42 -128q5 -14 -1 -30.5t-18 -23.5l-89 -51q-6 -3 -12 -3q-14 0 -18 15l-77 221q-3 6 -1 16l1 6q1 7 6 15l148 226q11 16 26 16q6 0 9 -4l72 -50q10 -7 11 -23t-9 -30z" />
    <glyph glyph-name="registered" unicode="&#xae;" horiz-adv-x="478" 
d="M77 479q-5 -35 -5.5 -71t5 -74t20 -71t36 -59t55.5 -41t76 -15q62 0 115 32t87 83t55.5 105t29.5 107q11 49 5 107t-22.5 108t-60 83.5t-105.5 33.5q-63 0 -116.5 -32t-88 -83t-56.5 -105t-30 -108zM267 165q-97 0 -145.5 89.5t-27.5 224.5q21 134 97 222.5t174 88.5
q97 0 143.5 -90t25.5 -225q-21 -134 -96 -222t-171 -88zM144 477q-17 -101 21.5 -173.5t111.5 -72.5t132.5 71.5t75.5 173.5t-20.5 175t-110.5 73q-73 0 -133.5 -72.5t-76.5 -174.5zM252 663q46 44 99 44q49 0 79.5 -37.5t38.5 -89t-1 -104.5q-12 -80 -58 -146v4v11
q-1 4 -1.5 13t-0.5 14q0 8 -1 18.5t-1.5 18t-0.5 9.5q0 1 1 2q33 40 42 104q11 69 -10.5 104t-90.5 35h-92h-3zM298 396q-5 0 -9.5 -5t-5.5 -11l-9 -55q-2 -16 -13 -16h-62q-12 0 -10 16l49 305q2 16 14 16h92q56 0 77 -26q21 -25 10 -96q-10 -63 -38 -95q-5 -4 -5 -15
l5 -85q0 -7 -4.5 -13.5t-9.5 -6.5h-62q-8 0 -10 11v64q2 12 -9 12zM173 330q-25 66 -12 147q12 79 59 148zM311 488h10q18 0 24 33q5 33 -15 33h-8q-10 0 -14 -16l-5 -34q-4 -16 8 -16zM320 505l4 31h4v-15q-2 -12 -4 -16h-4zM289 318q6 -26 25 -26h62h2q-46 -44 -99 -44
q-52 0 -85 44h2h62q23 0 31 26z" />
    <glyph glyph-name="macron" unicode="&#xaf;" horiz-adv-x="354" 
d="M162 752l-17 -107q-2 -15 3 -25q6 -18 25 -18h202q20 0 32 18q8 11 10 25l17 107q2 15 -2 25q-8 18 -26 18h-202q-18 0 -32 -18q-9 -14 -10 -25zM162 645l17 107q1 11 7.5 18.5t14.5 7.5h202q17 0 14 -26l-17 -107q-1 -11 -7.5 -18.5t-14.5 -7.5h-202q-17 0 -14 26z" />
    <glyph glyph-name="degree" unicode="&#xb0;" 
d="M343 776q-37 0 -67.5 -17.5t-50 -46t-31.5 -58t-17 -60.5q-4 -40 -0.5 -80t32 -70.5t76.5 -30.5q71 0 113 56t53 125q4 40 0.5 80.5t-32 71t-76.5 30.5zM194 594q12 74 52 119.5t94 45.5t80 -45.5t14 -119.5t-52 -119t-94 -45q-53 0 -79 45.5t-15 118.5zM322 635
q-14 0 -23 -11q-10 -12 -13 -29q-3 -18 3 -30q6 -11 19 -11q29 0 36 40q3 18 -3 29.5t-19 11.5zM303 595q4 23 16 23t8 -24q-4 -23 -17 -23q-4 0 -6 5q-3 7 -1 19z" />
    <glyph glyph-name="acute" unicode="&#xb4;" horiz-adv-x="666" 
d="M449 779h-144q-26 0 -38 -29q-7 -19 -23 -55q-17 -45 -19 -58v-15.5t7 -17.5t20 -8h108q22 0 33 18q35 45 44 57q14 18 25 36q4 5 9 15q5 8 6 16q1 7 0 15.5t-8 17t-20 8.5zM303 762h144q11 0 13.5 -14t-6.5 -25l-74 -101q-8 -9 -17 -9h-108q-9 0 -12.5 10t1.5 22l39 101
q6 16 20 16z" />
    <glyph glyph-name="periodcentered" unicode="&#xb7;" horiz-adv-x="212" 
d="M55 359l-27 -169q-1 -7 0 -16t8 -17.5t20 -8.5h146q19 0 29.5 14t12.5 28l27 169q1 7 0 16t-8 17.5t-20 8.5h-146q-19 0 -29.5 -14t-12.5 -28zM45 190l27 169q1 10 7.5 17.5t14.5 7.5h146q7 0 11.5 -7t2.5 -18l-27 -169q-1 -10 -7.5 -17.5t-14.5 -7.5h-146q-7 0 -11.5 7
t-2.5 18z" />
    <glyph glyph-name="guillemotright" unicode="&#xbb;" horiz-adv-x="499" 
d="M116 306q7 -19 5 -33q-3 -13 -15 -34q-15 -23 -32 -43q-5 -7 -16.5 -22.5t-16.5 -23.5q-18 -32 -20 -48q-6 -33 15 -48l71 -50q9 -7 20 -7q25 0 42 26l148 225q7 12 9 23q0 3 0.5 7.5t1.5 6.5q0 7 -3 16l-76 221q-9 25 -33 25q-3 0 -15 -3q-3 -2 -13 -6l-31 -17
q-5 -3 -50 -31q-28 -15 -32 -48q-4 -21 5 -48q7 -18 19 -45q17 -41 17 -43zM332 306q7 -19 5 -33q-3 -13 -15 -34q-15 -23 -32 -43q-5 -7 -16.5 -22.5t-16.5 -23.5q-18 -32 -20 -48q-6 -33 15 -48l71 -50q9 -7 20 -7q25 0 42 26l148 225q7 12 9 23q0 3 0.5 7.5t1.5 6.5
q0 7 -3 16l-76 221q-9 25 -33 25q-3 0 -15 -3q-3 -2 -13 -6l-31 -17q-5 -3 -50 -31q-28 -15 -32 -48q-4 -21 5 -48q7 -18 19 -45q17 -41 17 -43zM45 122l85 130q14 21 6 41l-43 129q-5 14 1 30.5t19 23.5l88 51q7 3 12 3q15 0 19 -16l76 -221q4 -6 2 -16l-1 -6q-1 -7 -6 -15
l-148 -225q-12 -17 -26 -17q-6 0 -10 4l-71 50q-10 7 -11 23.5t8 30.5zM261 122l85 130q14 21 6 41l-43 129q-5 14 1 30.5t19 23.5l88 51q7 3 12 3q15 0 19 -16l76 -221q4 -6 2 -16l-1 -6q-1 -7 -6 -15l-148 -225q-12 -17 -26 -17q-6 0 -10 4l-71 50q-10 7 -11 23.5t8 30.5z
" />
    <glyph glyph-name="questiondown" unicode="&#xbf;" horiz-adv-x="377" 
d="M389 402l17 110q3 21 -6 41t-34 20h-117q-25 0 -40.5 -20.5t-18.5 -40.5l-17 -110q-3 -20 5.5 -40.5t33.5 -20.5h117q25 0 40.5 20t19.5 41zM389 512l-17 -110q-3 -19 -14.5 -31.5t-25.5 -12.5h-117q-14 0 -21 12.5t-4 31.5l17 110q3 18 14.5 31t24.5 13h117
q14 0 21.5 -13t4.5 -31zM107 219q-58 -50 -77 -91t-31 -118q-10 -47 -7.5 -91.5t15 -78.5t48.5 -54.5t94 -20.5q89 0 167 33q36 14 41 60q0 1 5 28t7 45q2 33 0 46q0 9 -5 19q-8 12 -21 12q-3 0 -21 -3q-3 -1 -8.5 -2.5t-6.5 -1.5q-29 -4 -65 -4q-18 0 -24 5t-4 19
q2 17 20 36q5 6 19 18l24 21q71 60 84 141q3 39 1 54q-5 43 -40 43h-102q-25 0 -48 -31q-4 -5 -14.5 -21t-16.5 -25q-14 -19 -34 -38zM16 10q12 77 31 115.5t70 81.5q36 31 69 88q14 22 31 22h102q37 0 25 -80q-8 -47 -26.5 -74.5t-57.5 -60.5q-43 -38 -49 -48
q-9 -10 -14 -33q-3 -22 7 -31q9 -10 35 -10q54 0 102 11q7 1 10.5 -9t1.5 -27l-13 -98q-1 -15 -9.5 -27.5t-19.5 -16.5q-81 -31 -160 -31q-90 0 -122.5 53t-12.5 175z" />
    <glyph glyph-name="multiply" unicode="&#xd7;" 
d="M230 531q6 10 2 17q-6 15 -25 15q-8 0 -18 -6q-4 -3 -10 -9l-88 -98q-11 -12 -13 -28q-4 -20 9 -44q4 -7 12 -19l13 -19q20 -30 22 -34q8 -17 7 -25q-1 -9 -15 -25q-19 -21 -33 -34l-19 -19q-8 -7 -18 -19q-20 -25 -23 -44q-2 -17 4 -28l57 -97q8 -15 24 -15q13 0 24 9
q11 7 18 16q3 3 5.5 6t6 7.5t5.5 6.5q4 5 17 22q19 26 31 38q7 9 12 12q1 0 2 -1q3 -4 8 -11q6 -10 20 -38q13 -29 21 -42q8 -12 13 -16q9 -9 21 -9q14 0 28 14l89 99q9 10 13 29q3 21 -10 43q-3 8 -12 20q-8 12 -13 18q-16 22 -23 34q-9 16 -7 24q2 10 15 24q5 6 17 18.5
t16 16.5l20 18q6 7 18 19q20 25 23 44q2 17 -4 28l-56 96q0 1 -0.5 2.5t-1.5 2.5q-9 13 -24 13q-12 0 -23 -9q-6 -4 -18 -16q-11 -12 -35 -42q-18 -25 -32 -40q-9 -9 -12 -11q-49 86 -60 86zM216 538l59 -103q4 -8 12 -8q9 0 14 8l92 103q6 8 14 8t12 -7v-2l58 -98
q9 -18 -6 -36l-93 -104q-15 -19 -5 -36l59 -103q11 -18 -6 -37l-88 -99q-6 -7 -13 -7q-9 0 -11 6l-2 2l-60 102q-3 7 -12 7q-7 0 -14 -7l-91 -103q-6 -7 -14 -7t-11 6q0 1 -1 2l-57 97q-9 19 6 36l92 105q15 19 5 36l-58 105q-9 19 6 36l88 98q6 8 13 8q9 0 12 -7v-1z" />
    <glyph glyph-name="divide" unicode="&#xf7;" 
d="M145 138l-16 -99q-2 -14 4 -29.5t26 -15.5h120q20 0 31 15.5t13 29.5l16 99q2 20 -6 32h80q20 0 31 15.5t13 29.5l21 132q2 14 -4.5 29t-25.5 15h-80q13 15 16 33l16 99q2 14 -4.5 29t-25.5 15h-120q-19 0 -30.5 -15t-13.5 -29l-16 -99q-3 -19 6 -33h-80q-19 0 -30.5 -15
t-13.5 -29l-21 -132q-2 -14 4 -29.5t26 -15.5h80q-14 -14 -16 -32zM207 424l16 99q1 11 8.5 19t15.5 8h120q8 0 13 -8t3 -19l-16 -99q-1 -12 -8.5 -20t-15.5 -8h-120q-19 0 -16 28zM113 374h332q8 0 13 -8t3 -19l-21 -132q-1 -12 -8.5 -20t-15.5 -8h-332q-8 0 -12.5 8
t-3.5 20l21 132q1 11 8.5 19t15.5 8zM146 39l16 99q1 11 8.5 19t15.5 8h120q8 0 13 -8t3 -19l-16 -99q-1 -12 -8.5 -20t-15.5 -8h-120q-8 0 -12.5 8t-3.5 20z" />
    <glyph glyph-name="endash" unicode="&#x2013;" horiz-adv-x="448" 
d="M64 362l-26 -166q-1 -7 0 -16t8 -17.5t20 -8.5h364q19 0 29.5 14t12.5 28l26 166v15.5t-7.5 18t-20.5 8.5h-364q-19 0 -29.5 -14t-12.5 -28zM55 196l26 166q5 25 22 25h364q8 0 12 -7.5t2 -17.5l-26 -166q-1 -10 -7.5 -17.5t-14.5 -7.5h-364q-7 0 -11.5 7t-2.5 18z" />
    <glyph glyph-name="quoteleft" unicode="&#x2018;" horiz-adv-x="222" 
d="M91 411h148q17 0 26.5 12.5t12.5 24.5q6 29 18.5 84t22 100t15.5 83q2 12 -3.5 25.5t-23.5 13.5h-111q-26 0 -36 -30q-40 -109 -51 -140q-43 -119 -45 -133q-2 -12 3.5 -26t23.5 -14zM317 713l-56 -264q-5 -21 -19 -21h-148q-8 0 -12 9t0 20l94 264q5 16 18 16h111
q7 0 10.5 -7t1.5 -17z" />
    <glyph glyph-name="quoteright" unicode="&#x2019;" horiz-adv-x="220" 
d="M310 754h-144q-17 0 -29 -16q-7 -10 -11 -23q-4 -18 -26.5 -117.5t-30.5 -145.5q-2 -13 4.5 -27t24.5 -14h108q26 0 39 32q3 8 10.5 29t19 53t20.5 56q41 112 44 131q1 8 -0.5 16.5t-8.5 17t-20 8.5zM87 454l56 260q1 10 7.5 16.5t13.5 6.5h144q9 0 13 -9.5t0 -21.5
l-92 -260q-7 -18 -20 -18h-108q-8 0 -12 7.5t-2 18.5z" />
    <glyph glyph-name="quotesinglbase" unicode="&#x201a;" horiz-adv-x="219" 
d="M228 207h-153q-18 0 -28.5 -13.5t-12.5 -25.5q-55 -249 -60 -279q-2 -13 4.5 -27t24.5 -14h115q26 0 39 32q3 10 53 146q45 127 47 140t-4.5 27t-24.5 14zM-8 -109l58 276q7 23 22 23h153q9 0 13 -9.5t0 -20.5l-98 -277q-5 -18 -19 -18h-115q-8 0 -12 7.5t-2 18.5z" />
    <glyph glyph-name="quotedblleft" unicode="&#x201c;" horiz-adv-x="435" 
d="M307 411h147q17 0 27.5 13t12.5 25q6 29 18.5 83t22 99t15.5 83q2 13 -4 26.5t-24 13.5h-109q-15 0 -25 -10.5t-13 -21.5q-3 -9 -21.5 -58t-29.5 -80q-26 -72 -36 -104q42 189 49 234q1 7 0 15.5t-8 16.5t-20 8h-109q-15 0 -25 -10.5t-13 -21.5l-92 -261l-3 -11
q-2 -13 4.5 -26t23.5 -13h146q27 0 38 32q2 -32 28 -32zM320 712l-56 -262q-6 -22 -20 -22h-146q-9 0 -12.5 9t1.5 21l91 261q7 18 20 18h109q7 0 11 -7.5t2 -17.5zM533 712l-56 -262q-5 -22 -20 -22h-147q-8 0 -11.5 9t0.5 21l92 261q7 18 20 18h109q7 0 11 -7.5t2 -17.5z
" />
    <glyph glyph-name="quotedblright" unicode="&#x201d;" horiz-adv-x="433" 
d="M522 754h-142q-17 0 -27.5 -12.5t-13.5 -25.5q0 38 -30 38h-142q-18 0 -30 -16q-7 -9 -11 -24q-2 -11 -25.5 -112.5t-30.5 -148.5q-3 -14 4 -28t25 -14h106q28 0 40 33q2 6 50 136q34 98 39 113q-43 -189 -51 -240q-2 -13 4 -27.5t24 -14.5h107q28 0 40 33q2 6 50 136
q41 118 43 131q1 7 0 16t-8.5 18t-20.5 9zM87 455l56 258q1 10 7.5 17t14.5 7h142q9 0 13 -10t0 -22l-91 -258q-7 -19 -21 -19h-106q-8 0 -12.5 8t-2.5 19zM300 455l55 258q1 10 8 17t15 7h142q9 0 13 -10t0 -22l-91 -258q-7 -19 -21 -19h-107q-8 0 -12 8.5t-2 18.5z" />
    <glyph glyph-name="quotedblbase" unicode="&#x201e;" horiz-adv-x="432" 
d="M430 207h-143q-31 0 -41 -38q0 38 -29 38h-142q-18 0 -29 -13t-14 -27q-6 -28 -18.5 -82t-21.5 -97.5t-15 -81.5q-1 -7 0 -15.5t8 -17.5t20 -9h107q15 0 26 11t14 22q2 6 50 136q20 55 39 113q-5 -23 -17 -74.5t-20.5 -91t-13.5 -73.5q-1 -7 0 -15.5t8 -18t20 -9.5h106
q15 0 26 10.5t15 22.5l90 258q3 9 3 11q1 7 0 15.5t-8 17t-20 8.5zM-5 -91l54 257q2 10 8.5 17t14.5 7h142q9 0 13 -10t0 -22l-91 -258q-7 -19 -21 -19h-107q-8 0 -12 8.5t-1 19.5zM208 -91l54 257q2 10 8.5 17t13.5 7h143q9 0 13 -10t-1 -22l-90 -258q-9 -19 -22 -19h-106
q-8 0 -12 8.5t-1 19.5z" />
    <glyph glyph-name="bullet" unicode="&#x2022;" horiz-adv-x="302" 
d="M91 426l-39 -247q-1 -8 0 -16t8.5 -17t20.5 -9h183q18 0 29 14t13 28l39 247q3 13 -3.5 27.5t-25.5 14.5h-183q-19 0 -29.5 -14t-12.5 -28zM69 179l39 247q5 25 22 25h183q8 0 12.5 -7.5t2.5 -17.5l-39 -247q-2 -11 -8.5 -18t-14.5 -7h-183q-7 0 -11.5 7t-2.5 18z" />
    <glyph glyph-name="ellipsis" unicode="&#x2026;" horiz-adv-x="701" 
d="M36 194l-27 -169q-1 -7 0 -16t8 -17.5t20 -8.5h146q19 0 29.5 14t12.5 28l27 169q1 8 0 16t-8.5 17t-20.5 9h-146q-18 0 -29 -15t-12 -27zM273 194l-27 -169q-1 -8 0.5 -17t8.5 -17t20 -8h145q19 0 30 14t13 28l27 169q2 14 -4.5 28t-25.5 14h-145q-18 0 -29 -14t-13 -28
zM511 194l-27 -169q-1 -7 0 -16t8 -17.5t20 -8.5h146q19 0 29.5 14t12.5 28l27 169q1 8 0 16t-8.5 17t-20.5 9h-146q-18 0 -29 -15t-12 -27zM26 25l27 169q1 10 7.5 17.5t14.5 7.5h146q7 0 11.5 -7t2.5 -18l-27 -169q-1 -10 -7.5 -17.5t-14.5 -7.5h-146q-7 0 -11.5 7
t-2.5 18zM263 25l27 169q2 11 8.5 18t14.5 7h145q8 0 12.5 -7t2.5 -18l-27 -169q-2 -11 -8.5 -18t-14.5 -7h-145q-8 0 -12.5 7t-2.5 18zM501 25l27 169q1 10 7.5 17.5t14.5 7.5h146q7 0 11.5 -7t2.5 -18l-27 -169q-1 -10 -7.5 -17.5t-14.5 -7.5h-146q-7 0 -11.5 7t-2.5 18z
" />
    <glyph glyph-name="guilsinglleft" unicode="&#x2039;" horiz-adv-x="283" 
d="M249 249q-7 19 -5 34q3 13 15 34q13 19 31 43q27 36 33 46q17 26 21 48q5 32 -16 46l-40 31q-18 12 -25 17l-4 2t-4.5 2t-3.5 2q-9 3 -13 3q-25 0 -42 -24l-149 -227q-6 -10 -8 -22q-1 -2 -1.5 -6.5t-0.5 -6.5q0 -11 2 -17l77 -221q9 -25 33 -25q7 0 14 3q4 2 6 4l89 50
q25 14 32 47q3 22 -6 48q-3 12 -18 46q-11 22 -17 43zM319 433l-84 -129q-12 -21 -7 -42l43 -129q5 -14 -1 -30.5t-18 -23.5l-89 -50q-5 -4 -11 -4q-14 0 -20 16l-77 221q-2 7 0 15l1 7q1 7 5 14l149 227q10 15 26 15q4 0 9 -3l72 -51q10 -7 11 -23t-9 -30z" />
    <glyph glyph-name="guilsinglright" unicode="&#x203a;" horiz-adv-x="283" 
d="M123 308q6 -20 4 -34q-3 -13 -15 -34q-9 -14 -31 -44q-27 -36 -33 -46q-17 -25 -21 -47q-4 -33 16 -47l72 -50q9 -6 19 -6q25 0 41 24l149 227q6 10 8 22q2 8 2 13q0 11 -2 17l-76 221q-7 24 -34 24q-5 0 -14 -3l-14 -6q-9 -5 -31 -17l-50 -31q-26 -14 -32 -47
q-3 -21 6 -47q7 -20 18 -46q9 -19 18 -43zM52 123l84 130q13 22 7 42l-43 129q-5 14 1 30.5t19 22.5l89 51q4 3 10 3q13 0 21 -15l76 -221q1 -7 0 -16l-1 -6q-2 -9 -5 -14l-149 -227q-11 -15 -24 -15q-7 0 -11 3l-72 50q-9 7 -10 23t8 30z" />
    <glyph glyph-name="fraction" unicode="&#x2044;" horiz-adv-x="172" 
d="M309 838q-8 4 -13 4q-24 0 -36 -26l-353 -782q-4 -8 -5 -15q-2 -24 13 -35q5 -3 43 -29q17 -12 27 -17q4 -3 10 -6q8 -4 13 -4q24 0 36 26q144 315 189 414q166 362 169 382q4 24 -13 36q-2 1 -17 11.5t-26 17.5q-13 10 -27 17q-6 5 -10 6zM-77 29l352 782q8 14 19 14
q2 0 6 -2l78 -52q6 -3 7 -12.5t-3 -17.5l-353 -782q-6 -14 -19 -14q-4 0 -5 2l-79 52q-14 7 -3 30z" />
    <glyph glyph-name="Euro" unicode="&#x20ac;" 
d="M63 407q3 -12 14 -17l-7 -40q-11 -5 -19 -17q-3 -5 -5 -16l-3 -14q-2 -17 2 -29q6 -12 13 -17q-9 -59 -4.5 -111.5t20.5 -91.5t60.5 -62t116.5 -23q94 0 165 25q27 9 31 40l21 145q1 10 -2 22q-7 18 -23 18q-21 0 -59 -2t-51 -2q-23 -2 -39 7q-15 7 -12 23q0 4 2 8h134
q18 0 29 14t13 27q0 4 2 12v18q0 29 -28 29h-144q-1 2 -1 7q1 2 1.5 6t0.5 6q0 6 3 12v3h145q18 0 29 14t13 27q0 4 2 12q1 6 1 18q-3 29 -29 29h-123v7q0 8 17 12l21 3h21q16 0 46.5 -4t42.5 -4q18 0 29.5 12.5t14.5 27.5l26 147q5 33 -20 40q-82 26 -147 26
q-69 0 -117 -16.5t-80 -53.5t-51 -80t-38 -110l-2 -7h-3q-13 0 -19 -14q-6 -18 -9 -36q0 -2 -0.5 -7t-1.5 -7q0 -11 1 -16zM96 404h-10q-10 0 -5 33t8 33h3q16 0 22 22q35 142 96 193.5t171 51.5q47 0 130 -22l12 -3q15 -4 10 -24l-26 -147q-4 -23 -24 -23q-45 8 -90 8
q-47 0 -65 -11q-14 -8 -14 -26.5t14 -18.5h124q8 0 12 -7t3 -17l-3 -18q-2 -10 -8.5 -17t-13.5 -7h-145q-7 0 -13.5 -7t-8.5 -17l-3 -20q-2 -10 2.5 -17t11.5 -7h145q7 0 11.5 -7t2.5 -18l-2 -17q-2 -10 -8.5 -17t-13.5 -7h-134q-10 0 -17 -12t-5 -25q4 -16 16 -24
t22.5 -9.5t27.5 -1.5l106 4q7 2 11 -5.5t3 -17.5l-21 -145q-3 -21 -17 -24q-76 -24 -159 -24q-117 0 -155.5 61.5t-21.5 222.5q-9 0 -14 9.5t-3 23.5q6 33 15 33h10z" />
    <glyph glyph-name="trademark" unicode="&#x2122;" horiz-adv-x="474" 
d="M356 386q6 -16 25 -16h12q9 0 15 2q8 3 16 9q0 -34 27 -34h33q18 0 28.5 14t11.5 26l47 298q2 12 -3.5 26t-23.5 14h-53q-24 0 -37 -29q-5 -11 -8 -20l-6 -21q-7 -23 -12 -34l-1 -2v1q-2 14 0 35v21q0 14 -1 20q-5 29 -29 29h-53q-16 0 -29 -15q-6 15 -24 15h-126
q-18 0 -28.5 -13.5t-12.5 -26.5l-6 -41q-3 -25 13 -35q3 -1 14 -4h13h8h2v-7l-34 -210q-4 -40 27 -40h37q18 0 28.5 14t11.5 26l34 210v4l1 3q3 0 4 1q7 1 16 6l-36 -225q-4 -40 27 -40h33q18 0 27 13t12 26zM172 622h-23q-17 0 -14 22l6 41q5 23 21 23h126q18 0 13 -23
l-6 -41q-3 -22 -20 -22q-7 0 -13 -7t-7 -17l-34 -210q-4 -23 -20 -23h-37q-7 0 -10.5 6.5t-2.5 16.5l34 210q3 24 -13 24zM320 364h-33q-7 0 -10.5 6.5t-2.5 16.5l47 298q5 23 20 23h53q14 0 14 -16l2 -77q2 -17 14 -17t18 16l29 78q3 16 17 16h53q7 0 11 -6.5t2 -16.5
l-47 -298q-4 -23 -20 -23h-33q-7 0 -10.5 6.5t-2.5 16.5l27 169l-48 -151q-2 -7 -8 -12.5t-11 -5.5h-18q-15 0 -13 18l-4 151l-27 -169q-4 -23 -19 -23z" />
    <glyph glyph-name="minus" unicode="&#x2212;" 
d="M89 353l-23 -147q-3 -12 2 -25q6 -18 26 -18h304q19 0 31 18q7 9 11 25l23 147q1 7 0 16t-8 17.5t-20 8.5h-304q-19 0 -29.5 -14t-12.5 -28zM83 206l23 147q1 10 7.5 17.5t14.5 7.5h304q7 0 11.5 -7t2.5 -18l-23 -147q-5 -26 -22 -26h-304q-8 0 -12 7.5t-2 18.5z" />
    <glyph glyph-name="_FSHallmark" horiz-adv-x="980" 
d="M85 624v96h819v-96h-819zM897 441h-99q0 10 -7 22q-9 10 -18 17q-16 8 -23 10q-3 0 -11.5 1.5t-12.5 1.5q-24 0 -47 -12q-20 -13 -20 -29q0 -31 18 -40q25 -13 44 -17l65 -15q17 -6 29 -7q5 -1 24 -6q3 -2 10.5 -5.5t10.5 -5.5q21 -13 31 -27q11 -18 12 -43
q1 -26 -10 -49q-26 -43 -72 -58q-48 -15 -93 -15q-34 0 -67 9q-31 8 -57 27q-25 18 -42 47q-15 27 -15 64l95 -2q0 -5 4 -14q2 -15 14 -26q11 -11 25 -17q17 -9 46 -9q33 0 52 12q20 9 20 25q0 30 -78 46q-74 18 -120 43q-49 26 -49 82q0 48 32 74q32 25 72 39q34 8 68 8
q48 0 93 -18q44 -18 65 -65q11 -27 11 -48zM193 296v-132h-108v407h345v-93h-237v-91h197v-91h-197zM421 213q0 21 14 35q13 13 35 13q20 0 39 -14q16 -13 16 -34q0 -19 -16 -34q-17 -13 -39 -13q-19 0 -34 15q-15 13 -15 32zM83 16v97h820v-97h-820z" />
    <glyph glyph-name="_Fontastica" horiz-adv-x="980" 
d="M286 285v-176h-104q-1 2 -1 5v611h458v-94h-353v-251h354v-95h-354zM353 456v94h354v175h104v-614h-458v93h354v252h-354zM707 49q-7 -3 -7 -9q0 -8 5 -13t11 -5q7 0 17 5l5 -5q-8 -11 -22 -11q-10 0 -20 6q-7 17 -7 20q-1 10 7 20q8 9 20 9q14 0 22 -9l-5 -8q0 1 -2.5 2
t-3.5 3t-8 2h-3q-8 -4 -9 -7zM182 12v53h38v-9h-24v-15h24v-8h-24v-21h-14zM269 65q17 0 27 -14q6 -10 2 -24q-6 -15 -24 -16l-6 -2q-6 0 -11 3q-17 8 -17 24q0 13 8 21q6 8 21 8zM370 65v-53h-3q-2 -1 -4 -1q-3 0 -8 6l-5 8q0 1 -2 3t-3 4l-11 13v-33h-12v53h10q5 -1 6 -7
l12 -13q5 -9 10 -16v36h10zM393 56v9h44v-9h-16v-44h-12v44h-16zM557 40q11 0 11 -12q2 -11 -9 -16q-2 -1 -10 -1q-19 0 -25 9q1 1 1 2l1 2q0 1 2 3l16 -5h7l4 3q0 8 -12 11q-2 0 -3 1h-4q-8 2 -8 12q-2 9 7 15q1 0 5 0.5t7 0.5q13 0 21 -4l-4 -10q-2 1 -4 1q-1 0 -3 1
q-1 1 -4 1q-1 0 -2 2h-7q-4 0 -4 -4q-2 -2 4 -7q3 -1 7.5 -3t5.5 -2zM586 56v9h46v-9h-17v-44h-12v44h-17zM653 12v53h14v-53h-14zM777 65h15l10 -25l6 -15q6 -11 7 -13h-13l-3 12h-26l-5 -12h-12q16 31 21 53zM471 64h13q3 -11 4 -13q5 -7 7 -12l2 -5l3 -9q0 -2 2 -6.5
t3 -6.5h-13q-1 1 -1 5l-1 2q-1 1 -1.5 2t-0.5 3h-23q-1 -2 -1 -7q-1 -1 -1 -2l-3 -3h-11zM284 37v2q0 7 -4 12q-5 5 -12 5q-2 -2 -4 -2q-6 -1 -10 -8q-6 -7 -1 -13q5 -12 16 -12q4 0 5 1q10 3 10 15zM467 33h18q0 4 -1 4q-1 1 -2 3l-1 2q-1 2 -1 5q-1 1 -2 3l-1 2zM776 33
h17l-1 4l-3 5q0 1 -0.5 2.5t-1.5 2.5l-1 2q-1 2 -2 3z" />
  </font>
</defs>
</svg>
